<svg width="7" height="10" viewBox="0 0 7 10" fill="none" xmlns="http://www.w3.org/2000/svg">
<path d="M5.24966 0.00126449C6.70795 -0.0074538 7.55802 2.05254 6.58112 3.18091C5.21925 4.88277 3.81712 6.54886 2.38091 8.1849C3.42699 8.26882 4.47368 8.36378 5.51976 8.47315C5.84061 8.5067 6.16151 8.54088 6.48236 8.57682C6.59732 8.5898 6.70805 8.64257 6.78934 8.73233C6.87053 8.82199 6.91547 8.94022 6.91547 9.06231C6.91547 9.18439 6.87053 9.30262 6.78934 9.39228C6.70805 9.48204 6.59732 9.53481 6.48236 9.54779C6.16151 9.58373 5.84061 9.61791 5.51976 9.65146C4.24364 9.78488 2.96691 9.8998 1.69079 9.99534C0.49157 10.1015 -0.360634 8.37022 0.478324 7.34163C1.60752 5.71129 2.76864 4.10882 3.95866 2.53234C3.09028 2.45676 2.22125 2.30435 1.35287 2.07088C1.03203 1.98461 0.711111 1.88792 0.390274 1.7801C0.286876 1.74493 0.187402 1.68743 0.114227 1.60057C0.0410261 1.51362 0 1.40539 0 1.29462C0 1.18384 0.0410261 1.07561 0.114227 0.988661C0.187402 0.901805 0.286876 0.844298 0.390274 0.809135C0.711111 0.70131 1.03203 0.604624 1.35287 0.518352C2.62899 0.175256 3.90572 0.00212203 5.18184 2.17124e-07C5.20446 -1.0756e-05 5.22707 0.000393977 5.24966 0.00126449ZM1.69079 8.12927C1.72764 8.13203 1.7646 8.13533 1.80145 8.13812C1.76539 8.1268 1.72832 8.12102 1.69079 8.12927ZM5.16161 2.58923C5.16839 2.58949 5.17526 2.58924 5.18184 2.58923C5.17357 2.58922 5.16513 2.58799 5.15685 2.58797C5.15831 2.588 5.16015 2.58921 5.16161 2.58923Z" fill="black" style="fill:black;fill-opacity:1;"/>
</svg>
