<svg width="235" height="44" viewBox="0 0 235 44" fill="none" xmlns="http://www.w3.org/2000/svg">
<mask id="path-1-outside-1_1717_80832" maskUnits="userSpaceOnUse" x="0" y="0" width="235" height="44" fill="black">
<rect fill="white" width="235" height="44"/>
<path d="M209 1C214.184 1 218.907 2.97216 222.46 6.20703L233.5 4L227.282 12.8818C228.386 15.3629 229 18.1096 229 21V23C229 34.0457 220.046 43 209 43H21C9.95431 43 1 34.0457 1 23V21C1 9.95431 9.95431 1 21 1H209Z"/>
</mask>
<g filter="url(#filter0_i_1717_80832)">
<path d="M209 1C214.184 1 218.907 2.97216 222.46 6.20703L233.5 4L227.282 12.8818C228.386 15.3629 229 18.1096 229 21V23C229 34.0457 220.046 43 209 43H21C9.95431 43 1 34.0457 1 23V21C1 9.95431 9.95431 1 21 1H209Z" fill="white" style="fill:white;fill-opacity:1;"/>
</g>
<path d="M209 1V0V0V1ZM222.46 6.20703L221.787 6.94648C222.022 7.16041 222.344 7.24992 222.656 7.18763L222.46 6.20703ZM233.5 4L234.319 4.57349C234.554 4.23877 234.561 3.79516 234.337 3.45309C234.114 3.11102 233.705 2.93931 233.304 3.0194L233.5 4ZM227.282 12.8818L226.463 12.3083C226.262 12.5958 226.226 12.9676 226.368 13.2882L227.282 12.8818ZM229 21H230H229ZM209 43V44V43ZM21 43V44V44V43ZM1 23H0H1ZM21 1V0V1ZM209 1V2C213.925 2 218.411 3.87268 221.787 6.94648L222.46 6.20703L223.133 5.46758C219.403 2.07164 214.442 1.37091e-06 209 0V1ZM222.46 6.20703L222.656 7.18763L233.696 4.9806L233.5 4L233.304 3.0194L222.264 5.22643L222.46 6.20703ZM233.5 4L232.681 3.42651L226.463 12.3083L227.282 12.8818L228.101 13.4553L234.319 4.57349L233.5 4ZM227.282 12.8818L226.368 13.2882C227.416 15.6441 228 18.2526 228 21H229H230C230 17.9665 229.355 15.0817 228.196 12.4755L227.282 12.8818ZM229 21H228V23H229H230V21H229ZM229 23H228C228 33.4934 219.493 42 209 42V43V44C220.598 44 230 34.598 230 23H229ZM209 43V42H21V43V44H209V43ZM21 43V42C10.5066 42 2 33.4934 2 23H1H0C5.96046e-08 34.598 9.40202 44 21 44V43ZM1 23H2V21H1H0V23H1ZM1 21H2C2 10.5066 10.5066 2 21 2V1V0C9.40202 5.96046e-08 0 9.40202 0 21H1ZM21 1V2H209V1V0H21V1Z" fill="black" style="fill:black;fill-opacity:1;" mask="url(#path-1-outside-1_1717_80832)"/>
<defs>
<filter id="filter0_i_1717_80832" x="0" y="0" width="234.5" height="44" filterUnits="userSpaceOnUse" color-interpolation-filters="sRGB">
<feFlood flood-opacity="0" result="BackgroundImageFix"/>
<feBlend mode="normal" in="SourceGraphic" in2="BackgroundImageFix" result="shape"/>
<feColorMatrix in="SourceAlpha" type="matrix" values="0 0 0 0 0 0 0 0 0 0 0 0 0 0 0 0 0 0 127 0" result="hardAlpha"/>
<feOffset dx="2" dy="-4"/>
<feComposite in2="hardAlpha" operator="arithmetic" k2="-1" k3="1"/>
<feColorMatrix type="matrix" values="0 0 0 0 0.956863 0 0 0 0 0.956863 0 0 0 0 0.956863 0 0 0 1 0"/>
<feBlend mode="normal" in2="shape" result="effect1_innerShadow_1717_80832"/>
</filter>
</defs>
</svg>
