<svg width="116" height="44" viewBox="0 0 116 44" fill="none" xmlns="http://www.w3.org/2000/svg">
<mask id="path-1-outside-1_2038_151199" maskUnits="userSpaceOnUse" x="0" y="0" width="116" height="44" fill="black">
<rect fill="white" width="116" height="44"/>
<path d="M94.0576 1C105.103 1 114.058 9.95431 114.058 21V23C114.058 34.0457 105.103 43 94.0576 43H25.0576C14.0119 43 5.05762 34.0457 5.05762 23V21C5.05762 18.0718 5.68669 15.2905 6.81738 12.7842C4.05938 10.9336 1.57924 8.15839 1 2C2.03815 4.53948 6.9332 6.50523 11.6514 6.15723C15.1983 2.95158 19.9002 1 25.0576 1H94.0576Z"/>
</mask>
<g filter="url(#filter0_i_2038_151199)">
<path d="M94.0576 1C105.103 1 114.058 9.95431 114.058 21V23C114.058 34.0457 105.103 43 94.0576 43H25.0576C14.0119 43 5.05762 34.0457 5.05762 23V21C5.05762 18.0718 5.68669 15.2905 6.81738 12.7842C4.05938 10.9336 1.57924 8.15839 1 2C2.03815 4.53948 6.9332 6.50523 11.6514 6.15723C15.1983 2.95158 19.9002 1 25.0576 1H94.0576Z" fill="white" style="fill:white;fill-opacity:1;"/>
</g>
<path d="M114.058 21H115.058H114.058ZM5.05762 23H4.05762H5.05762ZM6.81738 12.7842L7.72892 13.1954C7.92962 12.7505 7.77985 12.2257 7.37456 11.9538L6.81738 12.7842ZM1 2L1.92564 1.6216C1.73808 1.16279 1.24274 0.910617 0.761397 1.02888C0.280055 1.14715 -0.0420214 1.60016 0.00439429 2.09364L1 2ZM11.6514 6.15723L11.7249 7.15452C11.9468 7.13815 12.1568 7.04828 12.3219 6.89912L11.6514 6.15723ZM94.0576 1V2C104.551 2 113.058 10.5066 113.058 21H114.058H115.058C115.058 9.40202 105.656 0 94.0576 0V1ZM114.058 21H113.058V23H114.058H115.058V21H114.058ZM114.058 23H113.058C113.058 33.4934 104.551 42 94.0576 42V43V44C105.656 44 115.058 34.598 115.058 23H114.058ZM94.0576 43V42H25.0576V43V44H94.0576V43ZM25.0576 43V42C14.5642 42 6.05762 33.4934 6.05762 23H5.05762H4.05762C4.05762 34.598 13.4596 44 25.0576 44V43ZM5.05762 23H6.05762V21H5.05762H4.05762V23H5.05762ZM5.05762 21H6.05762C6.05762 18.2163 6.65541 15.575 7.72892 13.1954L6.81738 12.7842L5.90585 12.373C4.71798 15.0061 4.05762 17.9273 4.05762 21H5.05762ZM6.81738 12.7842L7.37456 11.9538C6.0774 11.0834 4.88598 10.0239 3.94462 8.48555C3.00176 6.94478 2.27386 4.86468 1.99561 1.90636L1 2L0.00439429 2.09364C0.305386 5.29371 1.10717 7.68041 2.23869 9.52948C3.37172 11.381 4.79937 12.6344 6.2602 13.6146L6.81738 12.7842ZM1 2L0.0743598 2.3784C0.74936 4.02957 2.55 5.29264 4.57922 6.09186C6.66009 6.91141 9.21364 7.33975 11.7249 7.15452L11.6514 6.15723L11.5778 5.15994C9.37092 5.32271 7.11787 4.94218 5.31213 4.23098C3.45475 3.49945 2.28879 2.50991 1.92564 1.6216L1 2ZM11.6514 6.15723L12.3219 6.89912C15.6921 3.85319 20.1574 2 25.0576 2V1V0C19.6431 0 14.7045 2.04997 10.9809 5.41533L11.6514 6.15723ZM25.0576 1V2H94.0576V1V0H25.0576V1Z" fill="black" style="fill:black;fill-opacity:1;" mask="url(#path-1-outside-1_2038_151199)"/>
<defs>
<filter id="filter0_i_2038_151199" x="0" y="0" width="115.058" height="44" filterUnits="userSpaceOnUse" color-interpolation-filters="sRGB">
<feFlood flood-opacity="0" result="BackgroundImageFix"/>
<feBlend mode="normal" in="SourceGraphic" in2="BackgroundImageFix" result="shape"/>
<feColorMatrix in="SourceAlpha" type="matrix" values="0 0 0 0 0 0 0 0 0 0 0 0 0 0 0 0 0 0 127 0" result="hardAlpha"/>
<feOffset dx="-2" dy="-4"/>
<feComposite in2="hardAlpha" operator="arithmetic" k2="-1" k3="1"/>
<feColorMatrix type="matrix" values="0 0 0 0 0.956863 0 0 0 0 0.956863 0 0 0 0 0.956863 0 0 0 1 0"/>
<feBlend mode="normal" in2="shape" result="effect1_innerShadow_2038_151199"/>
</filter>
</defs>
</svg>
