<svg width="20" height="18" viewBox="0 0 20 18" fill="none" xmlns="http://www.w3.org/2000/svg">
<path d="M9.85472 6.7856C11.1486 6.77832 11.9029 8.49854 11.0361 9.4408C9.82773 10.862 8.58364 12.2532 7.30932 13.6194C8.23749 13.6895 9.1662 13.7688 10.0944 13.8601C10.3791 13.8882 10.6638 13.9167 10.9485 13.9467C11.0505 13.9575 11.1487 14.0016 11.2208 14.0766C11.2929 14.1514 11.3328 14.2502 11.3328 14.3521C11.3328 14.4541 11.2929 14.5528 11.2208 14.6277C11.1487 14.7026 11.0505 14.7467 10.9485 14.7575C10.6638 14.7875 10.3791 14.8161 10.0944 14.8441C8.96209 14.9555 7.82927 15.0515 6.69699 15.1313C5.63294 15.2199 4.87679 13.7742 5.62119 12.9152C6.6231 11.5538 7.65335 10.2157 8.70924 8.8992C7.93873 8.83609 7.16766 8.70882 6.39716 8.51385C6.11248 8.44181 5.82773 8.36107 5.54306 8.27103C5.45132 8.24167 5.36306 8.19365 5.29813 8.12112C5.23318 8.04851 5.19678 7.95813 5.19678 7.86563C5.19678 7.77312 5.23318 7.68274 5.29813 7.61014C5.36306 7.53761 5.45132 7.48959 5.54306 7.46022C5.82773 7.37018 6.11248 7.28944 6.39716 7.2174C7.52944 6.9309 8.66226 6.78632 9.79454 6.78455C9.81461 6.78454 9.83467 6.78487 9.85472 6.7856ZM6.69699 13.573C6.72968 13.5753 6.76248 13.578 6.79517 13.5804C6.76318 13.5709 6.73028 13.5661 6.69699 13.573ZM9.77659 8.94671C9.78261 8.94692 9.7887 8.94672 9.79454 8.94671C9.7872 8.9467 9.77971 8.94568 9.77237 8.94565C9.77366 8.94568 9.7753 8.94669 9.77659 8.94671Z" fill="black" style="fill:black;fill-opacity:1;"/>
<path d="M3.24303 11.1097C4.14391 11.1041 4.66905 12.4403 4.06555 13.1722C3.22425 14.2761 2.35806 15.3568 1.47083 16.418C2.11706 16.4724 2.76366 16.534 3.40989 16.605C3.6081 16.6267 3.80634 16.6489 4.00454 16.6722C4.07556 16.6807 4.14397 16.7149 4.19419 16.7731C4.24434 16.8313 4.2721 16.9079 4.2721 16.9871C4.2721 17.0663 4.24434 17.143 4.19419 17.2012C4.14397 17.2594 4.07556 17.2936 4.00454 17.302C3.80634 17.3254 3.6081 17.3475 3.40989 17.3693C2.62155 17.4558 1.83284 17.5304 1.0445 17.5923C0.303673 17.6612 -0.222785 16.5382 0.29549 15.871C0.993062 14.8135 1.71036 13.7741 2.44551 12.7515C1.90905 12.7025 1.3722 12.6036 0.83575 12.4522C0.63755 12.3962 0.439296 12.3335 0.241096 12.2635C0.177221 12.2407 0.115769 12.2034 0.0705647 12.1471C0.0253443 12.0907 0 12.0205 0 11.9486C0 11.8768 0.0253443 11.8066 0.0705647 11.7502C0.115769 11.6938 0.177221 11.6565 0.241096 11.6337C0.439296 11.5638 0.63755 11.5011 0.83575 11.4451C1.62409 11.2226 2.4128 11.1103 3.20114 11.1089C3.21511 11.1089 3.22908 11.1091 3.24303 11.1097ZM1.0445 16.3819C1.06727 16.3837 1.0901 16.3859 1.11286 16.3877C1.09059 16.3803 1.06769 16.3766 1.0445 16.3819ZM3.18864 12.7884C3.19283 12.7886 3.19707 12.7884 3.20114 12.7884C3.19603 12.7884 3.19081 12.7876 3.1857 12.7876C3.1866 12.7876 3.18774 12.7884 3.18864 12.7884Z" fill="black" style="fill:black;fill-opacity:1;"/>
<path d="M18.1079 0.00136702C19.6845 -0.00805816 20.6034 2.21896 19.5473 3.43882C18.075 5.27867 16.5592 7.07985 15.0066 8.84854C16.1375 8.93926 17.269 9.04193 18.3999 9.16017C18.7468 9.19644 19.0937 9.23339 19.4406 9.27224C19.5649 9.28627 19.6846 9.34332 19.7724 9.44036C19.8602 9.53729 19.9088 9.6651 19.9088 9.79709C19.9088 9.92908 19.8602 10.0569 19.7724 10.1538C19.6846 10.2509 19.5649 10.3079 19.4406 10.3219C19.0937 10.3608 18.7468 10.3977 18.3999 10.434C17.0203 10.5783 15.6401 10.7025 14.2605 10.8058C12.964 10.9205 12.0427 9.04889 12.9497 7.9369C14.1705 6.17437 15.4257 4.44197 16.7123 2.73766C15.7735 2.65595 14.834 2.49119 13.8952 2.23879C13.5483 2.14552 13.2014 2.041 12.8545 1.92443C12.7428 1.88641 12.6352 1.82424 12.5561 1.73035C12.477 1.63635 12.4326 1.51934 12.4326 1.39958C12.4326 1.27983 12.477 1.16282 12.5561 1.06882C12.6352 0.974924 12.7428 0.912755 12.8545 0.87474C13.2014 0.758173 13.5483 0.653647 13.8952 0.560381C15.2748 0.189466 16.655 0.00229408 18.0346 2.34729e-07C18.0591 -1.16281e-05 18.0835 0.000425921 18.1079 0.00136702ZM14.2605 8.7884C14.3003 8.79139 14.3403 8.79495 14.3801 8.79797C14.3412 8.78573 14.3011 8.77949 14.2605 8.7884ZM18.0127 2.79917C18.0201 2.79945 18.0275 2.79918 18.0346 2.79917C18.0257 2.79915 18.0165 2.79783 18.0076 2.7978C18.0092 2.79784 18.0112 2.79914 18.0127 2.79917Z" fill="black" style="fill:black;fill-opacity:1;"/>
</svg>
