<svg width="21" height="22" viewBox="0 0 21 22" fill="none" xmlns="http://www.w3.org/2000/svg">
<path d="M13.2154 1.64834L14.537 2.02779C16.3704 2.88345 17.1965 4.4557 16.9772 6.76068C16.9105 7.0347 16.8186 7.297 16.6757 7.60326L16.5977 7.77031C16.013 9.0232 14.5189 10.2586 12.1145 11.5438C11.3739 13.1308 10.5077 13.6759 9.52825 13.2188L9.4529 13.1836C8.5635 12.599 8.3332 11.8473 8.762 10.9285C9.45068 9.45289 10.8694 8.18237 12.9923 7.17265C13.363 6.83707 13.6194 6.54985 13.7234 6.32711L13.8143 6.13222C13.8334 5.63254 13.5225 5.25011 12.9449 4.98051C11.9152 4.49994 10.9356 5.02605 10.0183 6.59839C9.49685 6.86365 8.97893 6.85928 8.47663 6.62485C7.84876 6.33182 7.70592 5.65484 8.03514 4.62177L8.17807 4.3155C9.02268 2.50578 10.6891 1.6221 13.2154 1.64834ZM9.02759 13.8328C9.85639 14.2196 10.0503 14.8526 9.62153 15.7714L9.53057 15.9663C9.21871 16.6345 8.57173 16.8411 7.60175 16.6258C6.91588 15.9327 6.73494 15.2719 7.05979 14.5758C7.41063 13.8241 8.0706 13.5896 9.02759 13.8328Z" fill="#383838" style="fill:#383838;fill:color(display-p3 0.2191 0.2191 0.2191);fill-opacity:1;"/>
<path d="M4.22455 4.23095L5.08327 4.28039C6.31992 4.54989 7.04064 5.39545 7.2244 6.83218C7.22145 7.00858 7.20155 7.18129 7.15654 7.38786L7.13198 7.50054C6.94782 8.34563 6.20633 9.30532 4.91628 10.4209C4.683 11.4913 4.2296 11.9433 3.56893 11.7993L3.51811 11.7883C2.89484 11.5541 2.65073 11.1271 2.78578 10.5074C3.00269 9.51206 3.69335 8.54129 4.84959 7.63265C5.02956 7.37679 5.14643 7.1662 5.17917 7.01597L5.20782 6.88451C5.15063 6.57697 4.90823 6.38644 4.5186 6.30153C3.82405 6.15017 3.29879 6.60618 2.95569 7.69204C2.67408 7.92574 2.35744 7.99444 2.01864 7.9206C1.59513 7.82831 1.41469 7.4349 1.47322 6.75915L1.51824 6.55258C1.78426 5.3319 2.67935 4.56305 4.22455 4.23095ZM3.34803 12.243C3.90706 12.3648 4.11263 12.7243 3.97757 13.3441L3.94893 13.4755C3.85071 13.9262 3.48439 14.1415 2.86283 14.1437C2.34882 13.8153 2.14734 13.437 2.24966 12.9675C2.36016 12.4605 2.73056 12.2264 3.34803 12.243Z" fill="#383838" style="fill:#383838;fill:color(display-p3 0.2191 0.2191 0.2191);fill-opacity:1;"/>
<path d="M17.7949 11.7342L18.5337 12.147C19.5125 12.917 19.787 13.9752 19.3322 15.3259C19.2538 15.4807 19.162 15.6251 19.0333 15.7886L18.9632 15.8778C18.437 16.5466 17.3682 17.0774 15.7469 17.5104C15.0804 18.3577 14.4848 18.5629 13.9619 18.1515L13.9217 18.1199C13.4706 17.6447 13.438 17.1619 13.8239 16.6714C14.4437 15.8836 15.4722 15.3211 16.8862 15.0138C17.1554 14.8647 17.3494 14.7285 17.4429 14.6096L17.5248 14.5055C17.6063 14.2087 17.4737 13.9359 17.1653 13.6933C16.6155 13.2608 15.9546 13.4387 15.1843 14.2524C14.8346 14.3382 14.5248 14.263 14.2566 14.052C13.9214 13.7883 13.9308 13.3625 14.273 12.7895L14.4016 12.626C15.1617 11.6599 16.2844 11.364 17.7949 11.7342ZM13.5757 18.4493C14.0181 18.7974 14.0456 19.204 13.6597 19.6945L13.5778 19.7985C13.2972 20.1552 12.8805 20.1883 12.3293 19.9232C12.0155 19.4116 11.9997 18.9901 12.2921 18.6185C12.6078 18.2172 13.0362 18.1693 13.5757 18.4493Z" fill="#383838" style="fill:#383838;fill:color(display-p3 0.2191 0.2191 0.2191);fill-opacity:1;"/>
</svg>
