<svg width="10" height="16" viewBox="0 0 10 16" fill="none" xmlns="http://www.w3.org/2000/svg">
<path d="M4.43619 6.49283e-06L3.08643 0.176696C1.16544 0.744149 0.12499 2.16161 2.08352e-06 4.45049C0.024929 4.72858 0.07617 4.9989 0.17096 5.3198L0.222664 5.49483C0.610445 6.80757 1.89108 8.23718 4.05549 9.84978C4.54668 11.5126 5.31426 12.1739 6.34055 11.8708L6.41949 11.8475C7.37637 11.4062 7.71263 10.7042 7.42825 9.74157C6.97153 8.19545 5.76984 6.74252 3.84041 5.44112C3.52695 5.05795 3.31828 4.73898 3.24934 4.50561L3.18902 4.3014C3.24397 3.80941 3.60468 3.48083 4.20993 3.30204C5.28884 2.98333 6.1703 3.64277 6.83661 5.31728C7.30797 5.65381 7.81564 5.72587 8.34194 5.5704C8.99981 5.37607 9.23943 4.73437 9.06939 3.67448L8.9746 3.35358C8.41448 1.4574 6.91331 0.346672 4.43619 6.49283e-06ZM6.74018 12.5457C5.87179 12.8022 5.58863 13.3933 5.873 14.356L5.93332 14.5602C6.14014 15.2603 6.74307 15.558 7.72441 15.4901C8.49801 14.9127 8.77256 14.2924 8.55712 13.5631C8.32446 12.7755 7.71291 12.4486 6.74018 12.5457Z" fill="#CD3429" style="fill:#CD3429;fill:color(display-p3 0.8039 0.2039 0.1608);fill-opacity:1;"/>
</svg>
