<svg width="20" height="20" viewBox="0 0 20 20" fill="none" xmlns="http://www.w3.org/2000/svg">
<path fill-rule="evenodd" clip-rule="evenodd" d="M8.99255 5.34932C7.68972 3.88364 5.43654 3.77566 3.99953 5.11003C2.72018 6.29799 2.51305 8.24756 3.51423 9.67782L3.59839 9.79804C4.06181 10.4601 4.5822 11.0803 5.15362 11.6518L9.91174 16.4099C9.96055 16.4587 10.0397 16.4587 10.0885 16.4099L14.8466 11.6518C15.4181 11.0803 15.9384 10.4601 16.4019 9.79803L16.486 9.67782C17.4872 8.24756 17.2801 6.29799 16.0007 5.11003C14.5637 3.77566 12.3105 3.88364 11.0077 5.34932L10.0001 6.48284L8.99255 5.34932ZM10.0001 4.35136C8.16215 2.34604 5.03602 2.21432 3.03555 4.0719C1.23791 5.74115 0.94687 8.48053 2.35365 10.4902L2.43781 10.6104C2.94856 11.3401 3.5221 12.0237 4.15189 12.6535L8.91 17.4116C9.51206 18.0137 10.4882 18.0137 11.0902 17.4116L15.8484 12.6535C16.4782 12.0237 17.0517 11.3401 17.5624 10.6104L17.6466 10.4902C19.0534 8.48053 18.7623 5.74115 16.9647 4.0719C14.9642 2.21432 11.8381 2.34604 10.0001 4.35136Z" fill="var(------icon_primary, #1A1A1A)" style="fill:#1A1A1A;fill:color(display-p3 0.1020 0.1020 0.1020);fill-opacity:1;"/>
</svg>
