<svg width="18" height="18" viewBox="0 0 18 18" fill="none" xmlns="http://www.w3.org/2000/svg">
<path fill-rule="evenodd" clip-rule="evenodd" d="M3.04343 6.8818L4.18723 4.90068C4.23861 4.81169 4.34374 4.76882 4.44269 4.79649L4.98929 4.94937C6.08296 5.25526 7.21432 4.60212 7.49631 3.50204L7.63712 2.95274C7.66263 2.85321 7.75233 2.78361 7.85507 2.78361L10.143 2.78361C10.2457 2.78361 10.3354 2.8532 10.3609 2.95272L10.5019 3.50246C10.784 4.60239 11.9152 5.25543 13.0088 4.94964L13.555 4.7969C13.6539 4.76923 13.7591 4.8121 13.8104 4.90108L14.9543 6.88237C15.0057 6.97135 14.9903 7.08383 14.9168 7.15569L14.5115 7.5523C13.6998 8.34653 13.6999 9.65285 14.5116 10.4471L14.917 10.8438C14.9905 10.9157 15.0059 11.0282 14.9545 11.1171L13.8107 13.0983C13.7593 13.1873 13.6542 13.2302 13.5552 13.2025L13.0087 13.0497C11.915 12.7438 10.7835 13.397 10.5017 14.4972L10.3607 15.0474C10.3352 15.147 10.2455 15.2166 10.1427 15.2166L8.04294 15.2166C7.9277 15.2166 7.83109 15.1295 7.81915 15.0149L7.78906 14.7261C7.6592 13.4795 6.43966 12.6491 5.23222 12.985L4.443 13.2045C4.34413 13.232 4.23916 13.1891 4.18784 13.1003L3.04322 11.1177C2.99184 11.0287 3.00728 10.9162 3.08073 10.8444L3.48673 10.4472C4.29861 9.65296 4.29863 8.34643 3.48677 7.55217L3.08094 7.15514C3.00749 7.08328 2.99205 6.97079 3.04343 6.8818ZM2.18931 8.06652C1.69964 7.58747 1.59673 6.83755 1.93925 6.2443L3.08305 4.26318C3.42555 3.66994 4.12643 3.3841 4.78612 3.56861L5.33272 3.72149C5.73778 3.83479 6.1568 3.59288 6.26124 3.18544L6.40205 2.63614C6.57214 1.97262 7.1701 1.50861 7.85507 1.50861H10.143C10.8279 1.50861 11.4258 1.97255 11.596 2.636L11.7369 3.18575C11.8414 3.59313 12.2604 3.83499 12.6654 3.72174L13.2116 3.569C13.8713 3.38454 14.5721 3.67038 14.9146 4.26358L16.0585 6.24487C16.401 6.83808 16.2981 7.58793 15.8086 8.06699L15.4032 8.4636C15.1026 8.75776 15.1026 9.24159 15.4032 9.53574L15.8087 9.93249C16.2983 10.4115 16.4012 11.1614 16.0587 11.7546L14.9149 13.7358C14.5724 14.3291 13.8715 14.6149 13.2118 14.4304L12.6653 14.2775C12.2602 14.1642 11.8412 14.4062 11.7368 14.8137L11.5958 15.3639C11.4258 16.0275 10.8278 16.4916 10.1427 16.4916L8.04294 16.4916C7.27468 16.4916 6.63061 15.9111 6.55101 15.147L6.52092 14.8582C6.47283 14.3965 6.02114 14.0889 5.57394 14.2133L4.78472 14.4329C4.12553 14.6163 3.42578 14.3303 3.08366 13.7377L1.93904 11.7552C1.59652 11.1619 1.69944 10.412 2.18913 9.93296L2.59512 9.53579C2.89582 9.24162 2.89583 8.75772 2.59514 8.46355L2.18931 8.06652ZM10.8854 8.99993C10.8854 10.041 10.0415 10.885 9.00041 10.885C7.95934 10.885 7.11538 10.041 7.11538 8.99993C7.11538 7.95885 7.95934 7.11489 9.00041 7.11489C10.0415 7.11489 10.8854 7.95885 10.8854 8.99993ZM12.1604 8.99993C12.1604 10.7452 10.7457 12.16 9.00041 12.16C7.25517 12.16 5.84038 10.7452 5.84038 8.99993C5.84038 7.25469 7.25517 5.83989 9.00041 5.83989C10.7457 5.83989 12.1604 7.25469 12.1604 8.99993Z" fill="var(------overlay_surface_fg, black)" fill-opacity="0.6" style="fill: var(------overlay_surface_fg, black);fill-opacity:0.6;"/>
</svg>
