<svg width="18" height="18" viewBox="0 0 18 18" fill="none" xmlns="http://www.w3.org/2000/svg">
<path fill-rule="evenodd" clip-rule="evenodd" d="M5.36243 5.62502C5.36243 3.61608 6.99099 1.98752 8.99993 1.98752C11.0089 1.98752 12.6374 3.61608 12.6374 5.62502C12.6374 7.63395 11.0089 9.26252 8.99993 9.26252C6.99099 9.26252 5.36243 7.63395 5.36243 5.62502ZM8.99993 3.26252C7.69515 3.26252 6.63743 4.32025 6.63743 5.62502C6.63743 6.92979 7.69515 7.98752 8.99993 7.98752C10.3047 7.98752 11.3624 6.92979 11.3624 5.62502C11.3624 4.32025 10.3047 3.26252 8.99993 3.26252Z" fill="var(------overlay_surface_fg, black)" fill-opacity="0.6" style="fill: var(------overlay_surface_fg, black);fill-opacity:0.6;"/>
<path d="M13.3876 15.375C13.3876 15.7271 13.1022 16.0125 12.7501 16.0125C12.398 16.0125 12.1126 15.7271 12.1126 15.375V13.7625H10.4999C10.1478 13.7625 9.86243 13.4771 9.86243 13.125C9.86243 12.7729 10.1478 12.4875 10.4999 12.4875H12.1126V10.875C12.1126 10.5229 12.398 10.2375 12.7501 10.2375C13.1022 10.2375 13.3876 10.5229 13.3876 10.875V12.4875H14.9999C15.352 12.4875 15.6374 12.7729 15.6374 13.125C15.6374 13.4771 15.352 13.7625 14.9999 13.7625H13.3876V15.375Z" fill="var(------overlay_surface_fg, black)" fill-opacity="0.6" style="fill: var(------overlay_surface_fg, black);fill-opacity:0.6;"/>
<path d="M6.75029 11.5124C5.03131 11.5124 3.63779 12.9059 3.63779 14.6249C3.63779 14.6871 3.68816 14.7374 3.75029 14.7374H9.00029C9.35238 14.7374 9.63779 15.0228 9.63779 15.3749C9.63779 15.727 9.35238 16.0124 9.00029 16.0124H3.75029C2.984 16.0124 2.36279 15.3912 2.36279 14.6249C2.36279 12.2018 4.32714 10.2374 6.75029 10.2374H9.00029C9.35238 10.2374 9.63779 10.5228 9.63779 10.8749C9.63779 11.227 9.35238 11.5124 9.00029 11.5124H6.75029Z" fill="var(------overlay_surface_fg, black)" fill-opacity="0.6" style="fill: var(------overlay_surface_fg, black);fill-opacity:0.6;"/>
</svg>
