<svg width="16" height="16" viewBox="0 0 16 16" fill="none" xmlns="http://www.w3.org/2000/svg">
<path fill-rule="evenodd" clip-rule="evenodd" d="M2.93257 2.93264C3.15387 2.71134 3.51266 2.71134 3.73396 2.93264L7.99993 7.19861L12.2659 2.93264C12.4872 2.71134 12.846 2.71134 13.0673 2.93264C13.2886 3.15393 13.2886 3.51273 13.0673 3.73402L8.80132 8L13.0673 12.266C13.2886 12.4873 13.2886 12.8461 13.0673 13.0674C12.846 13.2887 12.4872 13.2887 12.2659 13.0674L7.99993 8.80138L3.73396 13.0674C3.51266 13.2887 3.15387 13.2887 2.93257 13.0674C2.71128 12.8461 2.71128 12.4873 2.93257 12.266L7.19855 8L2.93257 3.73402C2.71128 3.51273 2.71128 3.15393 2.93257 2.93264Z" fill="var(------overlay_surface_fg, black)" fill-opacity="0.6" style="fill: var(------overlay_surface_fg, black);fill-opacity:0.6;"/>
<path d="M12.1953 2.86237C12.4557 2.60202 12.8773 2.60202 13.1377 2.86237C13.398 3.12272 13.398 3.54442 13.1377 3.80475L8.94238 8.00006L13.1377 12.1954C13.398 12.4557 13.398 12.8774 13.1377 13.1378C12.8773 13.3981 12.4557 13.3981 12.1953 13.1378L8 8.94244L3.80469 13.1378C3.54436 13.3981 3.12266 13.398 2.8623 13.1378C2.60196 12.8774 2.60196 12.4557 2.8623 12.1954L7.05762 8.00006L2.8623 3.80475C2.60196 3.5444 2.60196 3.12272 2.8623 2.86237C3.12265 2.60202 3.54434 2.60202 3.80469 2.86237L8 7.05768L12.1953 2.86237Z" stroke="var(------overlay_surface_fg, black)" stroke-opacity="0.6" style="stroke: var(------overlay_surface_fg, black);stroke-opacity:0.6;" stroke-width="0.2" stroke-linecap="round"/>
</svg>
