<svg width="20" height="20" viewBox="0 0 20 20" fill="none" xmlns="http://www.w3.org/2000/svg">
<path fill-rule="evenodd" clip-rule="evenodd" d="M19.9767 7.28657C19.9205 6.59187 19.4641 5.9143 18.9611 5.35259C18.4325 4.76236 17.7399 4.17784 17.0129 3.66379C16.2842 3.14847 15.499 2.68866 14.7734 2.35531C14.0734 2.03374 13.3405 1.78805 12.7456 1.79163L12.6974 1.79192L12.6497 1.79874C12.3844 1.83663 12.2007 2.00258 12.1055 2.10725C11.9859 2.23868 11.8853 2.40592 11.8032 2.60526L11.7964 2.62167C11.7219 2.80298 11.5949 3.11205 11.3282 3.38611C11.0739 3.64737 10.6655 3.9039 9.95579 3.89583C9.26308 3.88796 8.88857 3.61364 8.66627 3.35161C8.44544 3.09132 8.35441 2.82143 8.30688 2.68051C8.30195 2.66588 8.29749 2.65265 8.29339 2.64096C8.15128 2.23492 7.7976 1.87459 7.33959 1.80916C7.26399 1.79836 7.18733 1.80037 7.15604 1.80123C7.10557 1.80263 7.04548 1.80621 6.97713 1.81255C6.83994 1.82526 6.66053 1.84985 6.44616 1.8942C6.01698 1.983 5.44247 2.15207 4.78266 2.46776C3.45829 3.1014 1.81372 4.31461 0.316809 6.60683C0.128137 6.88624 0.120725 7.19484 0.147755 7.41105C0.176119 7.63792 0.253645 7.86183 0.342848 8.0618C0.522716 8.46501 0.807283 8.89656 1.11461 9.28317C1.4239 9.67226 1.7823 10.0485 2.13085 10.3332C2.30456 10.4751 2.49091 10.6067 2.67991 10.7047C2.85471 10.7954 3.10396 10.8959 3.38231 10.8848C3.55459 10.8779 3.71675 10.847 3.86731 10.8003C3.82164 11.6416 3.77991 12.5689 3.75788 13.4117C3.73953 14.1137 3.73449 14.7693 3.75359 15.2709C3.76305 15.5193 3.77903 15.7484 3.80616 15.9333C3.81949 16.0242 3.83849 16.1257 3.86851 16.2219L3.86877 16.2228C3.8826 16.2671 3.92081 16.3897 4.01296 16.5134C4.09968 16.6477 4.20875 16.748 4.29486 16.8174C4.40858 16.909 4.53954 16.9915 4.67506 17.0656C4.94681 17.2143 5.29045 17.3581 5.67908 17.4898C6.45933 17.7542 7.48355 17.9906 8.61366 18.113C9.91545 18.254 11.4097 18.2488 12.8546 17.9277C12.7686 17.8165 12.6795 17.7071 12.5879 17.6C12.5098 17.5086 12.4299 17.4191 12.3486 17.3317C12.1441 17.1121 11.9225 16.8977 11.6863 16.6944C10.7099 16.8197 9.70745 16.8065 8.7662 16.7046C7.73225 16.5926 6.80985 16.3772 6.13372 16.1481C5.79417 16.033 5.53217 15.9197 5.35495 15.8228C5.28751 15.7859 5.23996 15.7555 5.20862 15.733L5.20781 15.7276C5.19165 15.6175 5.17801 15.4474 5.16923 15.217C5.15188 14.7612 5.15595 14.1415 5.17406 13.4487C5.21018 12.067 5.30068 10.4438 5.37321 9.37064L5.55806 6.63582L4.07139 8.93869C4.02307 9.01355 3.90458 9.15968 3.74502 9.28301C3.60355 9.39236 3.47497 9.44948 3.3695 9.46509C3.36005 9.46098 3.34772 9.45521 3.33235 9.44724C3.25793 9.40863 3.15441 9.34008 3.027 9.23602C2.77335 9.02884 2.48461 8.72999 2.22359 8.40163C1.9606 8.0708 1.75168 7.74258 1.63663 7.48466C1.59805 7.39818 1.57612 7.33301 1.56437 7.28818C2.90166 5.27505 4.32038 4.2594 5.39408 3.74569C5.9426 3.48325 6.40715 3.34894 6.73318 3.28149C6.83696 3.26002 6.92618 3.24543 6.99904 3.23564C7.07387 3.44662 7.24637 3.86778 7.58599 4.2681C8.04858 4.81335 8.79908 5.29945 9.9397 5.31241C11.0634 5.32518 11.8372 4.89421 12.3434 4.37422C12.7565 3.94979 12.9716 3.48443 13.0711 3.24698C13.3498 3.3058 13.7267 3.4335 14.182 3.64265C14.8183 3.93495 15.528 4.34884 16.195 4.8205C16.8639 5.29343 17.4682 5.80916 17.9058 6.29771C18.335 6.77693 18.5202 7.13818 18.5583 7.35276C18.4822 8.02985 18.0717 8.54546 17.5627 8.92062C17.3025 9.11238 17.0324 9.25439 16.8064 9.3481C16.6585 9.40945 16.5521 9.4409 16.4923 9.45623C16.4559 9.43266 16.4072 9.39539 16.3483 9.34181C16.1987 9.20559 16.0555 9.02994 15.9753 8.91574L14.4283 6.71317L14.6907 9.39194C14.7096 9.58524 14.7293 9.79794 14.7489 10.025C15.2384 10.0684 15.7117 10.3225 16.0134 10.7864C16.0908 10.9054 16.1717 11.0233 16.2558 11.1396C16.2495 11.0469 16.243 10.955 16.2365 10.8641C16.3189 10.8805 16.4075 10.8889 16.5007 10.8846C16.7399 10.8738 17.0539 10.7791 17.3491 10.6567C17.6671 10.5248 18.0396 10.3289 18.4031 10.0611C19.1253 9.52888 19.8768 8.65925 19.9768 7.39974L19.9813 7.34315L19.9767 7.28657ZM5.16824 15.7007C5.16824 15.7007 5.16979 15.702 5.17228 15.7046C5.17019 15.7028 5.16824 15.7007 5.16824 15.7007Z" fill="var(------icon_primary, #1A1A1A)" style="fill:#1A1A1A;fill:color(display-p3 0.1020 0.1020 0.1020);fill-opacity:1;"/>
<path fill-rule="evenodd" clip-rule="evenodd" d="M15.2076 11.3047C14.9229 10.8664 14.2825 10.8627 13.9929 11.2979C13.7861 11.6085 13.5586 11.9114 13.3159 12.1998C13.2302 12.3016 13.1427 12.4014 13.0536 12.4991C12.7935 12.7843 12.5069 13.0649 12.1973 13.3298C11.9165 13.5702 11.6176 13.7969 11.3032 14.0023C10.8605 14.2917 10.8652 14.9419 11.312 15.2249C11.6285 15.4254 11.9297 15.6475 12.213 15.8843C12.5144 16.1363 12.7946 16.4041 13.0503 16.6788C13.1409 16.7761 13.2297 16.8756 13.3166 16.9772C13.5601 17.2618 13.7873 17.5615 13.9936 17.8701C14.2833 18.3038 14.922 18.3002 15.2069 17.8634C15.4088 17.5537 15.6324 17.2527 15.8735 16.9665C15.9551 16.8697 16.0385 16.7747 16.1237 16.6816C16.3772 16.405 16.6553 16.1361 16.9555 15.8836C17.2369 15.6469 17.537 15.4253 17.8535 15.2254C18.3014 14.9426 18.306 14.291 17.8622 14.0018C17.5479 13.797 17.2501 13.5707 16.971 13.3305C16.6628 13.0651 16.3783 12.7835 16.1205 12.4963C16.0367 12.4029 15.9545 12.3075 15.8741 12.2106C15.6337 11.9206 15.41 11.6164 15.2076 11.3047ZM14.3996 13.1122C14.4648 13.0348 14.5289 12.9565 14.5921 12.8773C14.6548 12.9573 14.7186 13.0364 14.7834 13.1147C14.8756 13.2258 14.9698 13.3351 15.0662 13.4424C15.3622 13.7724 15.6899 14.0969 16.0468 14.4041C16.1247 14.4712 16.2041 14.5375 16.2849 14.6029C16.203 14.6674 16.1226 14.733 16.0436 14.7994C15.6944 15.0931 15.3722 15.4048 15.0791 15.7248C14.9805 15.8324 14.8841 15.9421 14.7901 16.0538C14.7229 16.1335 14.6569 16.2142 14.5922 16.2958C14.5269 16.215 14.4606 16.1352 14.3932 16.0564C14.2935 15.9398 14.1914 15.8254 14.0872 15.7135C13.7931 15.3976 13.4703 15.0889 13.1216 14.7974C13.043 14.7317 12.963 14.6668 12.8817 14.6029C12.962 14.5381 13.0409 14.4725 13.1184 14.4061C13.4749 14.1011 13.8032 13.7795 14.1003 13.4538C14.2021 13.3421 14.302 13.2282 14.3996 13.1122Z" fill="var(------icon_primary, #1A1A1A)" style="fill:#1A1A1A;fill:color(display-p3 0.1020 0.1020 0.1020);fill-opacity:1;"/>
</svg>
