<svg width="24" height="24" viewBox="0 0 24 24" fill="none" xmlns="http://www.w3.org/2000/svg">
<path d="M5.82662 1.51401C5.75355 1.37619 5.5561 1.37619 5.48303 1.51401L4.44214 3.47729L2.47885 4.51819C2.34103 4.59126 2.34103 4.78871 2.47885 4.86177L4.44214 5.90267L5.48303 7.86595C5.5561 8.00377 5.75355 8.00377 5.82662 7.86595L6.86751 5.90267L8.8308 4.86177C8.96861 4.7887 8.96861 4.59125 8.8308 4.51819L6.86751 3.47729L5.82662 1.51401Z" fill="var(------icon_primary, #1A1A1A)" style="fill:#1A1A1A;fill:color(display-p3 0.1020 0.1020 0.1020);fill-opacity:1;"/>
<path d="M19.1121 15.5536C19.0391 15.4157 18.8416 15.4157 18.7685 15.5536L18.094 16.8259L16.8216 17.5005C16.6838 17.5735 16.6838 17.771 16.8216 17.8441L18.094 18.5186L18.7685 19.791C18.8416 19.9288 19.0391 19.9288 19.1121 19.791L19.7867 18.5186L21.059 17.8441C21.1968 17.771 21.1968 17.5735 21.059 17.5005L19.7867 16.8259L19.1121 15.5536Z" fill="var(------icon_primary, #1A1A1A)" style="fill:#1A1A1A;fill:color(display-p3 0.1020 0.1020 0.1020);fill-opacity:1;"/>
<path fill-rule="evenodd" clip-rule="evenodd" d="M15.4893 3.45696C16.3234 2.62291 17.6756 2.62291 18.5097 3.45696L20.328 5.27523C21.162 6.10928 21.162 7.46154 20.328 8.29559L8.50918 20.1144C7.67513 20.9484 6.32287 20.9484 5.48882 20.1144L3.67055 18.2961C2.8365 17.462 2.8365 16.1098 3.67055 15.2757L15.4893 3.45696ZM17.3076 4.65904C17.1375 4.48888 16.8616 4.48888 16.6914 4.65904L15.7773 5.57318L18.2117 8.00764L19.1259 7.0935C19.296 6.92335 19.296 6.64747 19.1259 6.47731L17.3076 4.65904ZM17.0097 9.20972L14.5752 6.77526L4.87263 16.4778C4.70247 16.648 4.70247 16.9239 4.87263 17.094L6.69091 18.9123C6.86106 19.0824 7.13694 19.0824 7.3071 18.9123L17.0097 9.20972Z" fill="var(------icon_primary, #1A1A1A)" style="fill:#1A1A1A;fill:color(display-p3 0.1020 0.1020 0.1020);fill-opacity:1;"/>
</svg>
