<svg width="396" height="42" viewBox="0 0 396 42" fill="none" xmlns="http://www.w3.org/2000/svg">
<path fill-rule="evenodd" clip-rule="evenodd" d="M0 16C0 10.3995 0 7.59921 1.08993 5.46009C2.04867 3.57847 3.57847 2.04867 5.46009 1.08993C7.59921 0 10.3995 0 16 0H380C385.601 0 388.401 0 390.54 1.08993C392.422 2.04867 393.951 3.57847 394.91 5.46009C396 7.59921 396 10.3995 396 16V26C396 31.6005 396 34.4008 394.91 36.5399C393.951 38.4215 392.422 39.9513 390.54 40.9101C388.401 42 385.601 42 380 42H16C10.3995 42 7.59921 42 5.46009 40.9101C3.57847 39.9513 2.04867 38.4215 1.08993 36.5399C0 34.4008 0 31.6005 0 26V16Z" fill="var(------fill_light_secondary, white)" style="fill: var(------fill_light_secondary, white);fill-opacity:1;"/>
</svg>
