<svg width="24" height="24" viewBox="0 0 24 24" fill="none" xmlns="http://www.w3.org/2000/svg">
<path fill-rule="evenodd" clip-rule="evenodd" d="M15.601 2.39895C15.933 2.7309 15.933 3.26909 15.601 3.60103L7.73241 11.4697C7.52448 11.6776 7.40515 11.7979 7.32456 11.8928C7.29161 11.9316 7.27523 11.9549 7.2682 11.9656C7.26288 11.9882 7.26288 12.0118 7.2682 12.0343C7.27523 12.0451 7.29161 12.0684 7.32456 12.1072C7.40515 12.2021 7.52448 12.3224 7.73241 12.5303L15.601 20.399C15.933 20.7309 15.933 21.2691 15.601 21.601C15.2691 21.933 14.7309 21.933 14.399 21.601L6.51008 13.7122C6.32951 13.5316 6.15966 13.3618 6.02859 13.2074C5.88618 13.0397 5.74033 12.8351 5.65475 12.5717C5.53403 12.2001 5.53403 11.7999 5.65475 11.4283C5.74033 11.1649 5.88617 10.9603 6.02858 10.7926C6.15967 10.6382 6.32952 10.4684 6.51009 10.2878L14.399 2.39895C14.7309 2.06701 15.2691 2.06701 15.601 2.39895Z" fill="var(------icon_nav_secondary, #1A1A1A)" style="fill:#1A1A1A;fill:color(display-p3 0.1020 0.1020 0.1020);fill-opacity:1;"/>
</svg>
