<svg width="24" height="24" viewBox="0 0 24 24" fill="none" xmlns="http://www.w3.org/2000/svg">
<path d="M19.9995 17.1504C20.4688 17.1504 20.8499 17.5307 20.8501 18C20.8501 18.4694 20.469 18.8506 19.9995 18.8506H3.99951C3.53025 18.8504 3.1499 18.4693 3.1499 18C3.15011 17.5309 3.53038 17.1506 3.99951 17.1504H19.9995ZM19.9995 11.1504C20.4688 11.1504 20.8499 11.5307 20.8501 12C20.8501 12.4694 20.469 12.8506 19.9995 12.8506H3.99951C3.53025 12.8504 3.1499 12.4693 3.1499 12C3.15011 11.5309 3.53038 11.1506 3.99951 11.1504H19.9995ZM19.9995 5.15039C20.4688 5.15039 20.8499 5.53074 20.8501 6C20.8501 6.46944 20.469 6.85059 19.9995 6.85059H3.99951C3.53025 6.85037 3.1499 6.46931 3.1499 6C3.15011 5.53087 3.53038 5.1506 3.99951 5.15039H19.9995Z" fill="var(------icon_primary, #1A1A1A)" style="fill:#1A1A1A;fill:color(display-p3 0.1020 0.1020 0.1020);fill-opacity:1;"/>
</svg>
