<svg width="223" height="40" viewBox="0 0 223 40" fill="none" xmlns="http://www.w3.org/2000/svg">
<path fill-rule="evenodd" clip-rule="evenodd" d="M216.892 36.75H13.0351L11.412 27.0127L6.57123 29.4707L8.42767 34.7734L0.535095 38.75L5.17767 33.0059L0.535095 29.4707L10.3886 20.874L7.0351 0.75H222.035L216.892 36.75Z" fill="white" style="fill:white;fill-opacity:1;"/>
<path d="M217.262 0.0119801C216.933 0.0138826 215.609 0.00925499 215.037 0.0100573C215.686 -0.0100641 218.448 0.00507146 217.262 0.0119801ZM158.505 1.47313C158.98 1.46815 159.455 1.46318 159.931 1.4582C158.58 1.45497 156.765 1.45862 155.511 1.4539C155.306 1.45311 155.838 1.4387 155.353 1.43806C154.868 1.43742 154.961 1.4571 154.256 1.45921C153.464 1.46151 149.84 1.4478 148.585 1.44813C143.891 1.44946 139.156 1.4607 134.452 1.45253C139.308 1.43796 134.415 1.42314 133.055 1.42945C132.754 1.43091 132.802 1.46751 127.93 1.45829C124.834 1.45245 127.693 1.40013 122.527 1.42634C126.5 1.46294 122.593 1.46037 119.478 1.46159C118.941 1.46181 114.605 1.45631 112.69 1.45793C112.035 1.45849 111.036 1.47766 110.167 1.47816C109.569 1.47849 109.116 1.46801 108.228 1.46855C104.087 1.47091 100.014 1.47172 95.8661 1.46818C98.2902 1.41893 93.9633 1.44719 93.7689 1.44483C92.7806 1.43146 97.2505 1.42765 95.4827 1.41929C93.0124 1.42082 90.542 1.42234 88.0717 1.42387C90.0992 1.42992 85.3876 1.46535 84.5203 1.44923C84.9021 1.49275 73.2612 1.41135 71.4892 1.42588C71.1201 1.42895 73.536 1.45046 67.9317 1.44062C67.3248 1.43953 67.5544 1.4264 67.2361 1.42762C67.0454 1.42836 65.8916 1.4701 64.6623 1.44703C64.2133 1.43861 67.0853 1.4112 60.7783 1.42222C63.2901 1.4647 52.0329 1.44523 49.9619 1.43458C50.3756 1.44029 50.7894 1.44599 51.2032 1.4517C49.1558 1.43631 48.7864 1.45075 48.3251 1.44996C46.4664 1.4468 43.9112 1.43224 42.1797 1.43357C40.1535 1.4351 40.1467 1.46152 37.7846 1.45124C38.3451 1.45707 38.9056 1.4629 39.466 1.46873C37.8347 1.46733 36.2033 1.46592 34.572 1.46452C38.3497 1.42955 33.757 1.46285 33.4544 1.4636C32.9718 1.46488 33.6652 1.45056 32.8581 1.45234C32.7747 1.45264 32.8953 1.46612 31.6514 1.46763C29.0522 1.47075 29.463 1.4538 28.3718 1.45399C28.2718 1.45408 28.6218 1.46622 26.737 1.4691C20.7466 1.47824 26.7668 1.45979 26.9966 1.45811C27.2985 1.4559 25.2445 1.40514 30.333 1.42314C28.6244 1.41741 28.4526 1.39494 28.2602 1.39439C28.0899 1.39393 25.1296 1.39709 24.9664 1.39787C23.5111 1.40549 24.7917 1.42084 24.5081 1.42359C24.2761 1.42581 20.7096 1.40581 19.8736 1.45198C18.1672 1.40939 20.8555 1.41329 23.7171 1.40675C24.1346 1.39801 20.992 1.38951 20.8269 1.38953C16.7735 1.38961 19.0176 1.42464 18.1314 1.44703C17.6659 1.45875 16.0144 1.43485 17.5392 1.46626C13.8601 1.46957 16.0913 1.45137 15.8537 1.44868C15.4951 1.44472 14.2078 1.45372 14.0466 1.45253C13.8102 1.45075 14.6323 1.43988 13.6998 1.43605C13.5448 1.43549 12.0423 1.4542 13.9797 1.46315C11.3911 1.46049 11.6044 1.47644 10.7265 1.44429C8.9436 1.50512 9.4328 1.40832 8.73072 1.40492C6.86384 1.39593 7.40551 1.4437 7.30693 1.44602C7.24812 1.44732 7.15569 1.44837 7.0351 1.44923L7.72482 0.635063C7.94299 1.8892 8.65545 6.24459 8.85382 7.3967C8.73689 6.90432 8.18001 3.35558 8.0414 2.56439C7.57935 -0.073243 8.64481 6.29002 8.28251 4.37887C8.42824 5.18117 8.57397 5.98346 8.71971 6.78575C8.93801 8.26486 8.57745 6.17492 9.24878 10.1417C9.38059 10.7867 8.77749 7.33656 8.91162 8.02654C8.99064 8.43324 9.37644 10.7339 9.38975 10.7782C9.40425 10.8224 9.04946 8.74409 9.11476 9.07011C9.25706 9.7819 10.4992 17.3711 9.52436 11.5988C9.79314 13.2093 9.88561 14.0468 10.1326 15.4411C10.2924 16.3427 9.50897 11.251 10.7677 18.876C10.7731 19.042 10.2534 15.8293 10.2379 15.7464C10.216 15.6297 10.2639 16.2186 10.2783 16.3195C10.3041 16.499 10.6518 18.5572 11.0228 20.7683C11.0538 20.9507 10.9504 21.2365 10.8113 21.3585C9.14404 22.8164 7.36158 24.3719 6.72902 24.9074C7.24524 24.495 2.23873 28.8317 1.70082 29.3126C1.55766 29.4407 2.11011 28.982 1.95661 29.1183C1.71777 29.3304 1.37488 29.6297 0.975897 29.976L0.941304 28.9372C2.20399 29.904 3.98561 31.283 4.94504 32.0143C5.20159 32.2099 5.4066 32.3655 5.57075 32.4896C5.87189 32.7176 5.91888 33.1193 5.6823 33.4137C5.09287 34.148 5.18795 34.0466 5.13608 34.1107C4.63795 34.7257 5.02742 34.2275 4.72332 34.6038C4.30083 35.1266 1.59475 38.4719 1.04119 39.159L0.2423 38.1689C0.310988 38.1341 0.356418 38.1111 0.374407 38.1018C0.399257 38.089 0.30855 38.1318 0.239292 38.1629L1.04639 39.1632C1.09693 39.1061 1.13257 39.0685 1.05464 39.1699L0.234515 38.1534C0.305823 38.1153 0.441394 38.0452 0.676391 37.9259C0.845519 37.84 0.747341 37.9125 3.63921 36.4455C7.12193 34.6789 1.20596 37.6429 2.64541 36.8936C4.89933 35.7923 4.81299 35.8018 5.4215 35.4979C5.59916 35.4092 6.74712 34.8515 8.12094 34.1646L7.78426 34.9987C7.69042 34.7279 7.59315 34.4488 7.494 34.1664C7.59194 34.4434 7.68987 34.7204 7.78781 34.9974L8.12263 34.168C7.1663 34.6535 6.20997 35.139 5.25363 35.6245C5.98123 35.261 7.1215 34.6854 8.12783 34.1783L7.79871 34.9936C7.55612 34.3008 7.335 33.6681 7.19265 33.2555C7.01664 32.7452 7.1836 33.158 6.79557 32.0514C6.71309 31.8165 6.33813 30.9015 7.37503 33.7933C7.43881 34.0312 6.9671 32.6475 6.73812 32.0092C6.70345 31.9127 6.54078 31.5411 6.27266 30.7174C6.22191 30.5612 6.73088 31.8432 5.96568 29.6827C5.86056 29.3851 5.99978 29.0423 6.28075 28.8986C6.82312 28.6208 7.59476 28.2213 8.68201 27.6539C8.84871 27.5669 8.26072 27.8529 8.42355 27.7676C8.53488 27.7093 9.86587 27.0386 10.012 26.9626C10.1614 26.8848 9.51401 27.1998 9.69169 27.1069C10.6026 26.6304 11.8279 26.0628 9.93608 27.0192C10.3298 26.8235 10.7235 26.6278 11.1172 26.432C11.5473 26.2122 11.9737 26.4294 12.0544 26.9056C12.0964 27.1712 12.1383 27.4368 12.1803 27.7023C12.0918 26.9483 12.3734 28.7983 12.5357 29.7651C13.5758 35.9613 12.9076 31.8074 13.0974 32.8709C13.4026 34.5814 13.1225 33.2828 13.5652 35.8237C13.5991 36.0185 13.271 33.9373 13.7186 36.6361L13.0351 36.0571C13.6009 36.0576 14.3738 36.0589 15.4171 36.0615C14.6231 36.0624 13.8291 36.0633 13.0351 36.0642L13.7115 36.6372C13.6942 36.5342 13.6769 36.4312 13.6596 36.3282C13.6663 36.397 13.6807 36.5043 13.7008 36.639L13.0351 36.0751C13.9214 36.0906 15.994 36.0621 16.1757 36.0617C18.5662 36.0568 16.9501 36.0696 20.4998 36.0513C20.8169 36.0497 21.5074 36.0584 22.1852 36.0541C24.9953 36.0361 18.4774 36.0432 18.2992 36.0288C18.2148 36.0218 25.2242 36.0235 25.4648 36.0269C26.4866 36.0417 22.2873 36.0334 23.0878 36.0518C23.3799 36.0583 33.3703 36.0449 35.3746 36.0521C37.6875 36.0604 38.7287 36.1085 38.7434 36.0544C39.3962 36.1075 39.9726 36.0713 40.2686 36.0716C43.8453 36.0766 43.8519 36.0771 46.9191 36.072C47.5963 36.0709 48.1682 36.087 48.4078 36.0843C48.5472 36.0826 48.2866 36.0654 48.9696 36.0601C49.9183 36.0528 55.6201 36.0705 56.0439 36.0801C56.4677 36.0896 53.6361 36.0842 54.1435 36.0998C56.1932 36.1014 58.1588 36.0976 60.222 36.0992C61.079 36.0999 60.6387 36.1109 61.009 36.1111C61.1665 36.1112 64.1259 36.1016 64.0005 36.0976C63.7068 36.0882 54.5685 36.0945 56.9749 36.0753C57.4391 36.0716 59.0794 36.0968 58.8185 36.0662C66.9827 36.0731 75.1468 36.0801 83.311 36.087C78.6202 36.11 73.3413 36.0895 68.4281 36.0916C67.7546 36.0919 65.4782 36.0889 65.7549 36.1044C69.933 36.1084 75.1272 36.1004 79.139 36.1105C79.2675 36.1108 78.7961 36.1247 79.2769 36.1269C80.1759 36.1311 83.1028 36.1086 83.5949 36.1144C83.6791 36.1158 82.0135 36.1341 82.52 36.1458C83.8202 36.1758 84.1502 36.1094 85.2682 36.1102C86.1327 36.1108 91.9422 36.1429 93.3891 36.1226C94.9276 36.101 89.1077 36.1101 89.5376 36.0924C93.4754 36.0747 97.4626 36.0936 101.183 36.0914C101.249 36.0914 100.68 36.0775 101.51 36.0756C102.955 36.0722 103.334 36.0919 104.037 36.095C104.795 36.0983 107.477 36.0955 107.836 36.1027C107.882 36.1036 107.338 36.1231 107.256 36.1236C106.088 36.1317 105.673 36.1064 105.566 36.1061C105.167 36.1051 104.775 36.1148 104.41 36.1142C103.81 36.1133 103.48 36.1043 102.688 36.1035C102.142 36.1029 102.669 36.1201 102.143 36.1193C101.95 36.119 99.8648 36.0797 99.6704 36.1198C99.6101 36.1324 116.658 36.1487 118.362 36.1386C116.901 36.1338 115.439 36.1289 113.977 36.1241C116.945 36.1358 120.511 36.1038 120.764 36.1512C131.771 36.1551 142.778 36.159 153.785 36.1628C155.75 36.1669 154.672 36.1973 157.906 36.1885C157.07 36.1788 156.235 36.1691 155.399 36.1594C157.056 36.1662 164.4 36.1795 165.589 36.1732C165.743 36.1724 165.956 36.1448 167.791 36.1424C169.42 36.1403 169.681 36.161 170.552 36.1649C171.283 36.1682 172.103 36.1628 172.32 36.1639C172.487 36.1648 172.553 36.1775 172.953 36.1797C174.218 36.1865 173.193 36.1509 174.448 36.1918C174.142 36.1933 173.837 36.1949 173.531 36.1964C175.057 36.2023 177.142 36.2209 174.894 36.23C174.508 36.2316 174.84 36.2194 174.551 36.2194C163.265 36.2217 172.278 36.2454 176.233 36.2265C177.249 36.2446 182.941 36.2335 183.131 36.2371C183.394 36.2423 182.419 36.2567 183.697 36.2692C183.965 36.2719 191.577 36.2617 188.836 36.2858C188.27 36.2908 184.621 36.2855 183.741 36.2863C185.811 36.3246 190.663 36.2696 191.209 36.2711C193.41 36.277 186.981 36.3043 191.939 36.3088C195.752 36.3122 192.172 36.2866 193.639 36.2756C194.463 36.2695 198.778 36.2977 198.661 36.2612C200.142 36.2573 199.275 36.2766 199.458 36.278C199.636 36.2792 202.548 36.2683 203.494 36.276C203.608 36.277 203.247 36.296 203.366 36.2975C203.597 36.3002 206.405 36.2964 206.518 36.2948C206.59 36.2936 205.92 36.277 206.195 36.273C206.516 36.2683 209.218 36.2722 209.367 36.2675C209.578 36.2603 206.242 36.265 206.798 36.2464C208.335 36.2511 210.841 36.2387 211.856 36.2237C211.607 36.228 210.116 36.2286 209.599 36.2271C209.842 36.1999 213.044 36.2002 211.949 36.2218C212.645 36.2102 212.17 36.2041 212.562 36.1931C212.665 36.1904 213.653 36.1898 213.844 36.1851C213.868 36.1841 212.848 36.1739 213.053 36.1683C213.422 36.1583 216.42 36.1606 216.665 36.1632C217.355 36.1706 214.911 36.1796 214.708 36.1911C214.679 36.1929 216.757 36.2154 216.789 36.2174C216.91 36.2387 214.597 36.2234 214.862 36.2426C215.434 36.2466 216.006 36.2507 216.578 36.2548C214.371 36.2742 210.29 36.2642 209.238 36.2863C212.508 36.2798 215.932 36.2805 215.925 36.3304C215.922 36.3514 214.511 36.3637 214.566 36.369C214.774 36.3881 216.733 36.3674 216.805 36.3684C216.864 36.3695 216.892 36.3707 216.892 36.3718C216.892 36.3718 216.892 36.3718 216.892 36.3718C216.891 36.383 214.099 36.391 213.959 36.3961C213.724 36.4052 214.967 36.4425 214.965 36.4508C214.922 36.4524 212.933 36.4613 213.604 36.4757C214.283 36.4902 216.024 36.4906 216.085 36.4921C216.417 36.5008 213.373 36.5087 213.282 36.5139C213.234 36.5165 214.869 36.5324 214.917 36.537C214.957 36.5416 213.715 36.5517 213.225 36.5662C212.86 36.577 213.923 36.5853 213.736 36.587C213.603 36.5881 210.726 36.588 210.584 36.5899C210.374 36.5927 211.048 36.6056 210.949 36.6088C210.81 36.6134 209.881 36.6088 210.002 36.6136C210.093 36.6171 213.694 36.6616 213.671 36.6735C213.63 36.6938 209.816 36.6472 213.365 36.7272C213.39 36.7277 214.254 36.722 214.278 36.7225C214.811 36.7372 212.042 36.7599 215.428 36.7559C209.129 36.7815 214.644 36.7864 213.712 36.8206C213.352 36.8337 210.91 36.8391 210.899 36.8411C211.136 36.8577 211.914 36.8448 212.178 36.853C212.324 36.8575 210.139 36.8752 210.631 36.8866C210.885 36.8925 213.204 36.8904 213.3 36.8915C214.218 36.9024 213.092 36.914 213.294 36.9217C213.428 36.9269 214.827 36.9273 214.864 36.9282C214.923 36.9302 213.023 36.951 212.627 36.9584C212.326 36.964 213.455 36.9728 213.245 36.9753C211.98 36.99 209.289 36.9525 211.882 37.0051C212.041 37.0083 213.022 37.007 213.051 37.0076C213.657 37.0225 211.851 37.0238 211.527 37.036C210.973 37.057 213.569 37.0453 211.41 37.0601C213.029 37.0738 213.932 37.0733 215.827 37.0694C210.579 37.0801 208.727 37.1345 214.553 37.1331C212.7 37.1323 212.906 37.163 212.353 37.1635C212.009 37.1638 209.322 37.1333 210.554 37.2018C210.709 37.2104 212.341 37.1995 211.83 37.217C207.912 37.2125 211.747 37.2282 211.751 37.2305C211.7 37.2708 202.127 37.2378 200.482 37.2424C198.573 37.2477 196.877 37.2795 196.462 37.2795C195.097 37.2796 196.23 37.2634 195.925 37.2575C195.615 37.2516 191.733 37.2825 191.54 37.2808C190.788 37.274 191.551 37.2549 191.473 37.2539C190.542 37.2422 185.328 37.2572 183.869 37.2527C183.914 37.2651 186.844 37.2661 185.015 37.286C182.884 37.3093 182.763 37.2546 182.707 37.2522C172.946 37.2527 163.185 37.2532 153.424 37.2537C153.545 37.2828 159.927 37.2609 160.072 37.2647C160.925 37.2874 150.144 37.287 148.822 37.2767C149.826 37.283 150.831 37.2893 151.836 37.2956C150.12 37.329 146.324 37.2856 143.842 37.3003C143.041 37.3051 144.58 37.318 144.548 37.3189C143.647 37.3319 142.202 37.3219 143.283 37.3045C141.083 37.3212 141.405 37.3027 139.717 37.3013C139.63 37.3013 140.355 37.3148 139.019 37.3204C138.394 37.323 135.057 37.323 134.61 37.3348C134.426 37.3398 136.119 37.3922 136.328 37.3471C139.957 37.3691 137.488 37.3266 138.898 37.3276C139.114 37.3279 138.617 37.353 142.167 37.3412C141.491 37.3865 137.402 37.3526 136.701 37.3581C135.256 37.3694 141.212 37.3928 142.305 37.3575C141.794 37.3929 142.728 37.3622 144.055 37.3637C145.509 37.3653 144.875 37.3758 145.662 37.3759C147.813 37.3761 146.921 37.3511 148.694 37.3737C146.965 37.3039 151.729 37.3645 153.117 37.3827C150.859 37.3863 148.6 37.3898 146.341 37.3934C146.47 37.397 146.599 37.4007 146.729 37.4043C146.134 37.4038 145.539 37.4033 144.944 37.4028C145.039 37.3993 145.134 37.3958 145.23 37.3923C142.162 37.4151 141.413 37.3894 141.163 37.3891C137.943 37.3862 134.223 37.3864 130.967 37.3863C130.479 37.3863 130.814 37.4091 127.254 37.3912C126.118 37.3856 127.19 37.3678 125.903 37.3705C124.293 37.4187 124.323 37.3802 123.844 37.3802C122.471 37.3802 121.631 37.3921 121.504 37.3923C119.807 37.3941 117.32 37.3921 115.456 37.3939C115.421 37.3941 116.391 37.4089 115.18 37.4045C114.755 37.403 110.94 37.3397 107.605 37.3603C108.472 37.3646 109.339 37.3688 110.207 37.3731C109.187 37.3671 102.04 37.3831 103.788 37.4C104.859 37.4104 107.474 37.3696 107.761 37.4088C105.383 37.3971 92.2476 37.4146 91.225 37.4055C91.0836 37.4042 91.9538 37.3915 91.7584 37.3899C91.6072 37.3886 88.5984 37.3916 88.1989 37.3868C87.9612 37.3839 89.2907 37.3761 89.1826 37.3715C89.088 37.3682 85.3306 37.3628 85.1161 37.3787C86.0388 37.3723 88.6322 37.3779 87.2721 37.3913C87.0972 37.393 86.1905 37.3827 85.9781 37.3848C84.006 37.4044 89.8992 37.3997 90.8113 37.3999C87.1094 37.4202 81.3838 37.3962 77.0946 37.4095C75.3613 37.3962 79.6641 37.3892 77.703 37.3782C73.6349 37.3554 76.6206 37.3965 76.4942 37.3982C75.4838 37.4116 72.0421 37.3398 72.0403 37.3945C70.5655 37.3862 71.0428 37.3793 68.9615 37.3865C69.2353 37.3903 69.5091 37.3941 69.7829 37.3978C67.4722 37.4295 62.5814 37.3496 62.9479 37.3435C63.9335 37.3272 66.4805 37.3527 66.698 37.3521C67.0201 37.3512 67.9101 37.2957 71.4339 37.3453C72.8767 37.3081 65.8489 37.3202 69.0467 37.2948C66.887 37.299 58.0024 37.2731 56.7234 37.2894C56.5708 37.2916 57.2816 37.3286 55.0866 37.3098C54.0446 37.3008 56.5573 37.3003 56.0804 37.2919C54.6133 37.266 34.6585 37.2826 30.8679 37.2839C30.622 37.284 30.7122 37.2725 30.4704 37.2726C29.7278 37.2729 27.0212 37.2901 25.692 37.2848C28.446 37.3061 23.0975 37.3077 21.737 37.3054C19.672 37.3018 19.7998 37.2816 18.9077 37.2773C17.225 37.2691 15.0899 37.2765 13.0351 37.2809C12.7832 37.2802 12.5522 37.0859 12.5114 36.8373C12.1544 34.7232 11.815 32.6949 11.6134 31.3458C11.5995 31.4513 11.2468 29.1966 10.9137 27.0958L11.6408 27.4632C10.8115 27.876 10.0089 28.2766 9.42231 28.5743C7.90787 29.3429 5.72413 30.4848 7.77629 29.463C7.45757 29.6245 7.13687 29.7873 6.81498 29.9507L7.07937 29.2928C7.69952 31.0637 8.33539 32.8693 8.94198 34.5934C9.03013 34.8475 8.91339 35.1397 8.67286 35.2601C8.04299 35.5787 7.42462 35.8913 6.82405 36.1947C6.4183 36.3996 6.97126 36.1062 6.2791 36.4563C6.2163 36.4882 6.13537 36.5434 5.54117 36.8443C0.636151 39.3282 3.01297 38.1 2.09062 38.5556C1.57452 38.8106 1.1941 38.9998 0.91534 39.1394C3.77615 37.6952 7.07505 36.0274 7.95766 35.5823C7.28813 35.8917 2.94305 38.1065 0.764479 39.2053C0.24601 39.4661 -0.22651 38.8807 0.138607 38.4295C0.359143 38.1565 0.548327 37.9229 0.694009 37.7442C0.734186 37.6949 0.607231 37.877 0.647895 37.8268C0.648745 37.8258 0.649595 37.8247 0.650445 37.8237C1.08326 37.2901 3.82918 33.8834 3.24839 34.5722C3.0925 34.7571 1.82651 36.3235 0.326297 38.1824C0.729957 37.6773 0.412832 38.0417 0.48394 37.9525C1.34683 36.871 3.49066 34.2459 4.24821 33.3123C4.42133 33.0989 4.40018 33.1071 4.42849 33.072C4.5767 32.8895 4.68117 32.7633 4.7606 32.6688L4.85279 33.4325C4.49933 33.1526 4.5773 33.194 3.86095 32.6814C3.04404 32.0327 3.90751 32.6896 4.86369 33.4182L4.77459 32.6801C4.09511 33.5202 3.35549 34.4334 3.48442 34.2935C3.53549 34.2381 4.04692 33.6102 4.79024 32.6927L4.87588 33.4022C3.62536 32.4477 1.84908 31.0966 0.231369 29.8696C-0.0402302 29.6616 -0.0529127 29.3171 0.205503 29.0929C2.22914 27.3207 3.98343 25.7772 3.96222 25.7776C3.9973 25.7515 4.13104 25.6404 4.40286 25.4096C5.00559 24.8978 7.65472 22.5822 8.10843 22.1786C8.18488 22.1104 8.13386 22.1141 8.22943 22.0304C8.34156 21.9321 9.11765 21.2618 10.0338 20.4674L9.85627 20.9627C9.63476 19.6083 9.37199 18.0177 9.22232 17.1781C9.36065 18.0344 9.49899 18.8907 9.63732 19.747C8.77603 14.5802 8.9001 15.3803 9.17792 17.1033C9.19218 17.1894 9.20499 17.2734 9.21857 17.3556C9.43423 18.691 9.71284 20.4027 9.71478 20.4291C9.72198 20.5285 8.25611 11.7633 8.56518 13.4447C8.60818 13.679 9.27154 17.737 8.95695 15.7255C8.90191 15.3735 8.46212 12.7697 8.44153 12.6325C8.30367 11.7146 9.27105 17.3994 9.17606 16.7006C8.92614 15.3234 8.64137 13.55 8.3724 11.9676C8.25001 11.2475 8.20535 11.0731 8.19025 10.9843C7.96493 9.65657 8.10508 10.3994 8.03078 9.95602C7.99086 9.71815 7.52078 7.10625 7.64994 7.59321C6.17837 -1.02558 7.21804 5.21319 8.10232 10.5034C7.80673 8.83453 7.26878 5.5556 7.01975 4.08554C6.93038 3.55809 6.96691 3.87346 6.81524 2.98256C6.74503 2.57012 6.61767 1.80712 6.45813 0.846147C6.39569 0.464839 6.64871 0.163992 7.0351 0.165077C10.3916 0.167124 16.1294 0.178775 17.9225 0.182091C16.5018 0.187675 16.9172 0.204888 18.0138 0.203699C19.1105 0.202501 18.1893 0.179526 18.4032 0.177056C18.6325 0.174499 23.7778 0.185343 24.6338 0.182366C20.7602 0.190688 21.6341 0.207853 24.9218 0.20965C24.4466 0.214594 23.9712 0.219538 23.496 0.224482C25.423 0.217534 29.4745 0.243719 30.5886 0.235927C30.7633 0.234674 30.1355 0.220241 30.2336 0.219538C31.2107 0.213406 34.5349 0.228125 34.6896 0.2232C34.8207 0.219101 33.4028 0.207001 33.929 0.201044C34.0389 0.199789 35.4059 0.219298 36.7523 0.214502C37.2518 0.212738 36.951 0.199088 37.0768 0.198297C38.1256 0.191731 37.5066 0.214717 39.4234 0.211023C40.8277 0.20829 41.8737 0.185818 43.8144 0.193261C37.4422 0.164615 42.7989 0.176581 45.4634 0.1679C45.8903 0.166515 45.5244 0.141736 48.0757 0.153801C42.6461 0.198606 49.6237 0.177483 51.0511 0.177971C51.1294 0.178124 51.1562 0.194465 51.8562 0.194726C51.9155 0.194712 51.8303 0.183669 52.4809 0.182824C58.6514 0.17484 54.7059 0.187315 55.8782 0.198205C56.3773 0.202846 59.3779 0.18723 60.186 0.186852C60.3719 0.186813 60.2865 0.198288 61.0054 0.197839C62.2774 0.197015 63.4171 0.1848 64.2566 0.183831C64.3546 0.183775 64.3586 0.20188 65.9502 0.196008C66.3977 0.194367 66.9001 0.187938 66.2645 0.182732C64.1568 0.165611 60.1588 0.195243 57.7766 0.178155C55.6042 0.162592 62.4542 0.161124 62.8105 0.161034C62.9413 0.160977 61.6035 0.169967 62.9626 0.171746C64.1233 0.173227 66.2445 0.141955 67.9743 0.148765C68.1062 0.14927 69.4882 0.175784 69.4245 0.177331C69.3667 0.17846 67.2442 0.184215 67.5524 0.191888C67.5893 0.192762 68.9381 0.192584 69.1142 0.198297C69.3298 0.205251 69.9111 0.273493 70.1992 0.275204C70.9384 0.279431 70.4573 0.263867 70.9355 0.26495C71.9608 0.267233 75.5171 0.287414 75.6328 0.26376C75.0453 0.262356 74.4578 0.260952 73.8703 0.259548C77.139 0.257115 75.7457 0.247047 76.2088 0.24261C76.7075 0.237811 76.5672 0.258602 77.6691 0.260555C77.9088 0.260985 82.5192 0.256644 82.4353 0.24792C79.8857 0.261805 80.831 0.236111 80.7134 0.235652C80.2667 0.233978 79.6962 0.248391 79.0969 0.248103C74.8816 0.245848 79.1327 0.223099 78.1376 0.217249C77.7951 0.21528 77.1127 0.227584 76.9673 0.226954C76.495 0.224916 76.4874 0.208804 76.1723 0.210108C75.4371 0.213132 76.2954 0.23593 76.2372 0.237117C75.5803 0.251384 73.006 0.233632 74.6085 0.208826C73.6465 0.199886 73.5338 0.230035 72.771 0.217982C71.2543 0.194115 73.5265 0.200245 74.1421 0.196283C76.3503 0.181988 77.0054 0.193559 80.1313 0.189599C81.257 0.188202 82.5905 0.173557 83.1128 0.172753C83.4418 0.172247 86.5484 0.223201 86.6398 0.143455C87.8474 0.151171 89.7421 0.203722 90.9862 0.201318C92.1032 0.199126 91.748 0.170914 91.8523 0.169823C92.012 0.168108 93.3627 0.170331 93.8196 0.166344C94.3549 0.161633 94.0877 0.150865 94.9371 0.146476C97.0509 0.135584 96.9955 0.164381 97.2128 0.166252C99.735 0.187884 98.6306 0.146924 99.1903 0.143638C99.7107 0.140619 107.012 0.156384 108.548 0.146018C107.923 0.151786 107.298 0.157554 106.672 0.163322C107.791 0.181284 108.978 0.151987 108.999 0.184197C109.226 0.132194 111.536 0.166955 112.23 0.165611C112.503 0.165058 112.481 0.156197 112.824 0.155815C114.161 0.154261 117.175 0.161315 117.9 0.156822C121.037 0.137477 113.017 0.105297 112.386 0.103353C113.649 0.103927 120.8 0.0922799 117.513 0.06728C117.005 0.0634228 116.105 0.0866945 115.819 0.0876055C113.888 0.0935971 115.407 0.0727425 115.256 0.0707591C114.998 0.0675575 113.727 0.087718 113.392 0.0853165C113.28 0.0845468 114 0.0656631 112.159 0.0652658C113.064 0.046959 118.241 0.061874 118.921 0.057575C119.163 0.0560399 117.646 0.0169219 122.076 0.0549199C122.025 0.0512882 121.974 0.0476564 121.922 0.0440247C124.389 0.0425293 126.856 0.0410339 129.323 0.0395384C129.055 0.0479056 127.67 0.0647116 129.414 0.0611457C130.419 0.059082 129.676 0.0404454 129.767 0.0399047C130.669 0.034775 146.621 0.0409767 149.713 0.0388976C150.764 0.0382227 153.696 0.023245 153.919 0.0229668C155.256 0.0214676 159.988 0.0312163 160.933 0.0291011C161.522 0.0277444 160.962 0.012165 161.488 0.0128956C161.978 0.0135964 161.471 0.0286543 161.616 0.0292842C162.821 0.0347407 171.97 0.0149909 174.142 0.0291926C172.814 0.0249292 166.188 0.0550139 166.322 0.065632C166.35 0.0670878 167.961 0.0785428 168.293 0.0729564C168.842 0.0859936 170.726 0.0462996 171.751 0.0540959C171.867 0.0549814 171.41 0.0772467 173.24 0.0812881C173.87 0.082669 175.52 0.0653136 177.18 0.0847672C179.585 0.0754198 192.224 0.104295 193.092 0.0803725C193.117 0.0791095 191.337 0.0708721 192.54 0.0610542C194.139 0.0480043 192.703 0.0919621 194.566 0.095754C194.847 0.0963308 200.031 0.0918824 200.2 0.0891619C201.771 0.0644915 197.241 0.0544912 197.304 0.0516239C197.462 0.0444021 201.226 0.0400328 201.379 0.0417358C201.524 0.0435076 198.455 0.0761964 202.144 0.0638009C201.721 0.0598944 201.298 0.0559881 200.876 0.0520816C202.611 0.0444737 202.776 0.0670887 203.196 0.0684702C204.503 0.0728441 205.916 0.0384931 208.009 0.0809219C208.562 0.092182 207.644 0.104686 207.713 0.106375C208.378 0.12153 209.226 0.0809875 210.226 0.111227C210.301 0.113482 207.974 0.131598 212.041 0.131644C211.761 0.128745 211.481 0.125845 211.201 0.122946C211.775 0.116473 215.892 0.112627 216.446 0.114157C218.065 0.118629 216.653 0.139442 218.28 0.136954C217.237 0.108432 222.183 0.104709 221.898 0.129264C221.934 0.127645 221.98 0.126177 222.035 0.124848C222.44 0.125986 222.712 0.438109 222.654 0.838422C222.538 1.82064 221.969 5.64901 221.704 7.50153C221.527 8.73517 221.181 11.2535 221.123 11.6453C221.053 12.1225 221.053 11.9744 220.925 12.836C220.889 13.0817 220.537 15.6506 220.194 17.9006C220.127 18.3367 219.961 19.2486 220.068 18.4358C220.252 17.0445 220.655 14.4207 220.63 14.4512C220.602 14.4875 220.109 18.0289 219.97 18.9811C219.328 23.3776 219.668 20.8344 219.644 20.9465C219.585 21.2373 219.242 23.6406 219.226 23.7407C219.16 24.1553 219.389 22.4503 219.382 22.4231C219.373 22.3901 219.017 24.703 219.087 24.1757C219.189 23.4209 219.514 21.295 219.532 21.1599C219.769 19.4009 219.393 21.8047 219.283 22.4662C219.249 22.6667 219.356 21.8639 219.33 22.0305C218.945 24.574 219.299 22.5738 219.052 24.267C218.832 25.7777 219.089 23.8302 219.08 23.8878C219.068 23.9622 218.809 25.769 218.761 26.0508C218.737 26.1897 219.367 21.4873 219.321 21.6808C219.111 23.1799 218.901 24.679 218.69 26.178C218.65 26.2921 218.975 24.1393 219.005 23.916C219.064 23.4665 218.873 24.7162 218.873 24.6614C218.872 24.6319 219.065 23.1607 218.868 24.4865C218.801 24.9422 218.681 25.9016 218.426 27.5601C219.23 21.7768 218.645 25.7804 218.612 25.9496C218.579 26.1153 218.954 23.3529 218.479 26.703C218.411 26.8415 218.474 26.6287 218.602 25.6757C218.758 24.5083 218.358 27.2009 218.979 22.9411C218.922 23.1804 218.434 26.6059 218.407 26.7869C218.383 26.9433 218.481 26.1804 218.438 26.4514C217.937 29.6563 218.272 27.4536 218.112 28.3798C218.098 28.4621 217.654 31.4956 217.98 29.1846C218.575 24.9742 218.857 23.2194 218.892 22.5026C218.418 25.612 217.922 29.3906 217.787 30.3371C217.581 31.786 217.782 30.2833 217.753 30.4613C217.743 30.5231 217.566 31.7717 217.562 31.7883C217.385 32.6713 218.356 26.2306 218.637 24.1994C218.552 24.7425 218.466 25.2855 218.381 25.8285C218.486 25.0903 218.591 24.352 218.696 23.6138C218.179 27.1284 218.673 23.737 218.757 22.8542C218.776 22.656 218.462 24.9687 218.813 22.3295C218.529 24.2725 218.61 23.6513 218.37 25.4131C218.36 25.3653 218.907 21.4025 219.122 19.8392C218.315 25.3548 218.825 22.2166 218.111 26.9824C218.005 27.8699 218.327 25.5924 218.304 25.7785C218.22 26.4464 217.978 28.0054 217.751 29.8955C217.714 30.2033 217.921 28.9082 217.645 30.829C217.615 31.0415 217.422 32.2629 217.423 32.2457C217.432 32.0814 217.61 30.8709 217.612 30.8201C217.613 30.7724 217.423 32.1242 217.421 32.1286C217.397 32.1676 217.575 31.0001 217.545 31.1691C217.481 31.5341 216.748 36.3894 217.665 30.0472C216.933 35.3193 217.589 30.7246 217.874 28.6715C217.947 28.148 217.955 28.0139 218.058 27.2678C218.19 26.3079 218.356 25.1861 218.425 24.6895C218.499 24.1554 218.04 27.1847 218.674 22.7993C218.33 25.0281 217.794 28.9752 217.463 31.1656C216.795 35.5848 217.86 28.0746 217.969 27.2919C217.997 27.0833 217.883 27.78 217.902 27.6409C217.933 27.4136 218.549 23.1528 218.597 22.7309C218.645 22.3101 218.375 24.2919 218.343 24.4218C218.322 24.5098 219.042 19.3666 218.639 22.1488C218.361 24.0665 217.889 27.607 217.768 28.1974C218.168 25.376 218.568 22.5546 218.968 19.7332C218.734 21.2753 218.499 22.8173 218.265 24.3594C218.713 21.1925 219.12 18.4575 219.53 15.4475C218.453 22.6674 219.83 13.0962 219.839 12.9902C219.841 12.9545 219.399 15.7937 219.327 16.2504C219.673 13.7281 220.761 6.06871 220.077 10.543C220.203 9.73116 220.459 7.7582 220.454 7.78392C220.399 8.03122 219.798 12.3285 219.88 11.6254C219.976 10.8106 220.166 9.67694 220.342 8.42766C221.04 3.4804 220.989 3.38957 221.359 0.653359L222.035 1.43327C221.218 1.43947 220.167 1.44196 218.685 1.43824C218.815 1.4419 218.944 1.44557 219.073 1.44923C212.017 1.4434 204.961 1.43757 197.905 1.43174C195.144 1.46315 187.797 1.48228 184.188 1.4788C183.461 1.47813 179.894 1.46164 179.624 1.45875C179.126 1.45321 181.867 1.4511 180.628 1.44071C180.367 1.43858 174.327 1.43166 174.759 1.44923C175.436 1.45127 177.554 1.44243 177.9 1.44657C180.336 1.47613 161.715 1.45252 160.793 1.46443C161.205 1.47013 161.617 1.47584 162.03 1.48155C160.855 1.47874 159.68 1.47593 158.505 1.47313ZM212.497 0.0617866C213.203 0.0441542 214.97 0.0573973 216.014 0.0524479C217.457 0.0455168 219.91 -0.0223804 218.854 0.0456727C216.735 0.051044 214.616 0.0564153 212.497 0.0617866ZM181.531 0.03551C182.952 0.0449808 181.85 0.0829884 180.685 0.0671884C180.556 0.0653928 179.609 0.0227626 181.531 0.03551ZM196.426 0.0535465C196.366 0.0540499 195.138 0.0530439 195.096 0.0524479C193.994 0.0371877 197.696 0.0403067 196.426 0.0535465ZM124.472 0.0730481C126.037 0.0714073 124.904 0.0368554 123.93 0.0510746C123.869 0.0519774 124.369 0.0731287 124.472 0.0730481ZM125.585 0.0739636C126.801 0.104904 129.25 0.042197 127.303 0.048511C127.114 0.0491486 125.529 0.0724568 125.585 0.0739636ZM186.595 0.0506167C186.435 0.0624754 184.97 0.0567494 184.344 0.0539128C184.361 0.0430861 185.982 0.0519421 186.595 0.0506167ZM149.437 0.0539128C149.375 0.0632355 154.469 0.0627203 154.816 0.0504336C154.012 0.0556464 149.495 0.045535 149.437 0.0539128ZM136.373 0.0670053C136.502 0.068617 138.262 0.0661668 138.211 0.0579413C137.352 0.0471505 135.792 0.0597104 136.373 0.0670053ZM110.408 0.066456C110.313 0.0685223 111.631 0.120869 108.508 0.0864152C108.049 0.0813704 109.687 0.0676932 109.524 0.0658151C109.183 0.062152 108.913 0.0604445 108.696 0.0601386C110.151 0.0557999 111.662 0.0537588 111.808 0.0569341C112.494 0.0719308 110.451 0.0655936 110.408 0.066456ZM96.7767 0.105459C96.477 0.113997 94.5634 0.109432 94.1279 0.105917C94.0531 0.105255 94.3791 0.0828145 93.5174 0.0844926C92.8256 0.0858779 93.859 0.108862 92.5114 0.105184C91.1495 0.101493 92.969 0.0851123 92.8501 0.0839432C92.6907 0.0824108 90.584 0.0927315 90.6495 0.0793654C90.6984 0.0694647 92.9553 0.0761591 93.5133 0.0740551C94.228 0.0713509 93.3615 0.0548555 94.5558 0.058399C95.3063 0.0606121 94.8903 0.0896191 95.0487 0.0910846C95.1815 0.0922655 97.8049 0.0755721 96.7727 0.105367C96.774 0.105398 96.7753 0.105428 96.7767 0.105459ZM108.303 0.0614204C108.412 0.0604402 108.541 0.0599191 108.696 0.0601386C108.564 0.0605324 108.433 0.0609897 108.303 0.0614204ZM208.392 0.0745129C207.654 0.0655666 209.846 0.0540953 210.676 0.0658151C210.69 0.0752664 208.51 0.0759056 208.392 0.0745129ZM106.954 0.0850419C104.794 0.0777752 106.383 0.0677812 108.303 0.0614204C107.693 0.0668803 107.68 0.0874692 106.954 0.0850419ZM168.293 0.0729564C168.202 0.070793 168.144 0.0674199 168.137 0.0618781C168.376 0.0679392 168.398 0.0711945 168.293 0.0729564ZM163.253 0.0630684C161.525 0.079949 165.036 0.0792677 165.013 0.0671884C165.003 0.0626285 163.322 0.0623971 163.253 0.0630684ZM122.464 0.0714C122.622 0.073052 120.167 0.124025 123.731 0.0857744C121.829 0.0797669 123.836 0.0742159 123.806 0.069752C123.729 0.0569218 120.533 0.0692546 119.825 0.0637093C119.271 0.086665 121.942 0.0659574 122.46 0.0714C122.461 0.0714 122.462 0.0714 122.464 0.0714ZM72.2092 0.0930988C72.6423 0.0796473 74.0161 0.0839754 74.9432 0.0847672C74.5101 0.0982187 73.1363 0.0938907 72.2092 0.0930988ZM114.004 37.4088C107.651 37.4213 106.828 37.3665 112.641 37.3881C112.755 37.3886 114.389 37.4033 114.004 37.4088ZM59.4858 37.3946C58.8872 37.3708 60.8681 37.3669 62.1691 37.3768C62.4635 37.379 63.552 37.4032 62.309 37.4079C62.3487 37.379 60.4264 37.3679 59.4858 37.3946ZM105.733 0.100332C105.104 0.116254 103.168 0.10492 102.147 0.102529C102.77 0.0894195 104.831 0.0953483 105.733 0.100332ZM93.1295 37.3803C92.46 37.3785 92.0079 37.3992 92.1235 37.401C92.641 37.4089 93.8924 37.3921 93.1295 37.3803ZM111.984 0.102804C112.073 0.112318 109.508 0.121477 109.329 0.0979513C109.878 0.0996535 111.921 0.0968332 111.984 0.102804ZM73.9575 0.10024C74.3556 0.105078 72.2934 0.113739 71.6697 0.108938C71.7199 0.0988114 73.6964 0.0970957 73.9575 0.10024ZM82.3496 37.3873C81.75 37.3855 80.2521 37.385 80.0862 37.3934C79.8801 37.4038 82.0766 37.4003 82.3496 37.3873ZM193.913 37.3692C193.988 37.373 191.668 37.4001 190.637 37.3933C188.679 37.3801 193.831 37.3665 193.913 37.3692ZM99.4676 37.3695C101.358 37.3893 99.2591 37.3702 99.3419 37.391C100.614 37.3917 103.779 37.3927 101.603 37.3723C101.179 37.3683 100.061 37.3709 99.4676 37.3695ZM97.7234 37.3626C97.5206 37.3693 96.1578 37.3906 97.336 37.389C97.8806 37.3883 98.7586 37.3647 97.7234 37.3626ZM179.539 37.3784C177.844 37.36 185.613 37.3699 185.836 37.3731C185.954 37.3748 186.032 37.3764 186.076 37.3778C186.361 37.3719 187.828 37.3709 187.998 37.3857C187.558 37.3844 186.357 37.3857 186.218 37.3841C186.157 37.3834 186.113 37.3828 186.082 37.3821C185.564 37.3949 179.864 37.3819 179.539 37.3784ZM166.666 37.3595C168.605 37.3323 168.948 37.3785 168.781 37.38C166.67 37.3989 168.047 37.3648 167.982 37.3632C167.835 37.3606 166.335 37.3764 166.672 37.3595C166.67 37.3595 166.668 37.3595 166.666 37.3595ZM176.9 37.3708C176.98 37.3702 178.608 37.3717 178.675 37.3724C180.009 37.3879 175.402 37.3839 176.9 37.3708ZM86.5019 0.137778C85.3362 0.133187 86.4797 0.116194 87.2543 0.122305C87.318 0.122908 87.5302 0.141835 86.5019 0.137778ZM96.7924 37.3672C96.5221 37.364 89.6089 37.3518 90.0243 37.3775C90.6114 37.3745 98.4694 37.3877 96.7924 37.3672ZM45.1282 37.3609C46.3473 37.3611 45.0181 37.3853 44.3676 37.3763C44.1264 37.373 44.8209 37.3609 45.1282 37.3609ZM115.442 0.124777C116.708 0.111479 116.446 0.156092 115.349 0.1408C115.306 0.140201 115.393 0.125297 115.442 0.124777ZM54.8676 37.3749C50.6632 37.3895 51.6588 37.3128 57.125 37.3387C56.9539 37.3421 56.7829 37.3455 56.6118 37.3489C62.9209 37.3605 57.0433 37.3544 55.4983 37.3587C54.9113 37.3603 55.4035 37.3731 54.8716 37.3749C54.8703 37.3749 54.8689 37.3749 54.8676 37.3749ZM38.7171 37.3595C34.668 37.305 42.3979 37.3405 44.6151 37.3334C42.4657 37.3559 39.6673 37.3525 43.4732 37.3755C37.9085 37.38 40.2251 37.3583 40.0029 37.3565C39.74 37.3544 38.8897 37.3618 38.7171 37.3595ZM49.3975 37.3591C49.6315 37.3575 51.395 37.3686 52.0301 37.3668C51.1419 37.3854 47.8436 37.3699 49.3975 37.3591ZM153.17 37.3721C153.317 37.3575 153.679 37.3468 155.071 37.3522C154.641 37.3596 153.752 37.3659 153.17 37.3721ZM213.836 0.138511C214.795 0.139556 216.703 0.14505 216.118 0.129721C216.054 0.128415 213.839 0.129907 213.836 0.138511ZM76.7133 37.3554C76.5094 37.3536 71.2376 37.3524 73.0585 37.3684C73.6076 37.3733 78.4042 37.3712 76.7133 37.3554ZM104.013 37.3572C103.572 37.357 101.779 37.3598 101.741 37.3632C101.62 37.3751 103.82 37.3686 104.013 37.3572ZM218.671 0.153434C218.797 0.154947 221.725 0.152267 221.403 0.145194C220.792 0.131818 218.239 0.148224 218.671 0.153434ZM82.2609 0.171929C82.0162 0.172468 81.6925 0.156632 81.6079 0.156456C81.4088 0.15623 76.9291 0.162321 78.6406 0.14199C78.9261 0.138583 85.3715 0.14639 86.2098 0.148399C86.534 0.170138 83.7807 0.149458 83.1107 0.151695C82.9927 0.15212 82.9171 0.170307 82.263 0.171837C82.2622 0.171868 82.2616 0.171898 82.2609 0.171929ZM160.421 37.3567C160.619 37.3429 165.885 37.3338 165.824 37.3505C164.023 37.3526 162.222 37.3547 160.421 37.3567ZM157.746 37.3544C156.622 37.3447 159.254 37.3414 160.03 37.3457C160.038 37.355 157.909 37.3559 157.746 37.3544ZM94.0239 37.3055C93.4948 37.3089 95.1222 37.3291 94.7581 37.333C94.5248 37.3355 93.3423 37.3279 92.9652 37.3342C92.8582 37.3362 94.0644 37.3552 94.4133 37.3543C94.9089 37.3533 94.4283 37.3383 94.9691 37.3382C96.7645 37.3379 98.3563 37.3486 100.04 37.3483C100.192 37.3483 99.0128 37.3377 100.309 37.3379C100.51 37.3379 101.713 37.3536 103.264 37.3512C106.69 37.3026 109.205 37.3504 113.551 37.3328C113.387 37.3283 110.137 37.316 109.945 37.3155C106.312 37.3075 99.8028 37.3067 95.9974 37.3066C95.0209 37.3065 95.4951 37.3168 95.0745 37.3172C94.7421 37.3175 95.1373 37.2984 94.0239 37.3055ZM213.327 0.14904C213.784 0.168062 215.386 0.156022 216.41 0.157005C216.05 0.139846 214.327 0.153255 213.327 0.14904ZM134.101 37.3397C133.588 37.3404 131.997 37.3347 131.866 37.3404C131.697 37.3479 133.993 37.3526 134.101 37.3397ZM57.0018 0.166527C56.9522 0.167046 55.7179 0.166027 55.6713 0.165428C54.5685 0.150161 58.2706 0.153289 57.0018 0.166527ZM27.4773 0.162865C26.5414 0.165213 25.5973 0.171157 25.2828 0.155723C25.8792 0.158087 27.5871 0.152115 27.4773 0.162865ZM9.79158 20.8604C9.78972 20.83 9.79928 20.873 9.81705 20.9693L10.0077 20.4374C9.61838 20.7892 8.05132 22.1437 7.71241 22.4373C7.84121 22.3142 9.57957 20.7847 10.0006 20.4293L9.80642 20.971C9.79766 20.9126 9.79245 20.8742 9.79158 20.8604ZM152.967 37.3087C154.69 37.3099 154.326 37.2792 155.419 37.2931C155.598 37.2954 156.175 37.3592 154.282 37.3353C153.941 37.331 155.274 37.3159 152.967 37.3087ZM58.0153 37.3393C58.4533 37.326 59.8223 37.3299 60.7473 37.331C60.5399 37.3409 58.6735 37.3384 58.0153 37.3393ZM222.338 2.73656C222.206 3.53349 221.692 7.22999 221.834 6.31755C221.855 6.18778 222.264 3.25474 222.338 2.73656ZM101.354 0.161308C99.8188 0.176173 102.999 0.180777 104.003 0.166252C103.549 0.167204 101.458 0.16033 101.354 0.161308ZM8.19417 11.2077C8.20688 11.2803 8.47309 12.8865 8.48434 12.9585C8.68837 14.2773 7.93503 9.7324 8.19417 11.2077ZM37.1863 0.187402C36.5997 0.199634 32.7429 0.189764 31.8785 0.177514C32.7103 0.159627 37.9143 0.172123 37.1863 0.187402ZM145.881 37.3174C147.109 37.3167 148.275 37.3205 149.404 37.3258C149.166 37.3361 146.011 37.3251 145.881 37.3174ZM9.17792 17.1033C9.19218 17.1894 9.20499 17.2734 9.21857 17.3556C9.2047 17.2697 9.19117 17.1855 9.17792 17.1033ZM118.381 37.3101C117.351 37.3061 117.565 37.3249 117.628 37.3255C118.403 37.3316 119.546 37.3147 118.381 37.3101ZM214.503 0.177056C214.86 0.194086 216.592 0.180877 217.588 0.18493C217.299 0.171479 215.306 0.175269 214.503 0.177056ZM34.3808 37.3246C33.0871 37.3061 38.3503 37.2847 39.4594 37.2966C39.5413 37.308 34.5701 37.3271 34.3808 37.3246ZM106.123 0.186852C106.226 0.200197 108.436 0.184093 107.966 0.177788C107.669 0.173776 106.061 0.178562 106.123 0.186852ZM42.1062 37.3044C42.6006 37.3003 43.7533 37.3135 43.3474 37.3215C42.8265 37.3318 41.9784 37.3055 42.1062 37.3044ZM86.4729 37.2936C86.2567 37.2916 83.3491 37.3053 84.5502 37.3189C85.3838 37.3284 85.5164 37.3091 85.7124 37.309C85.9314 37.3091 90.5992 37.3327 86.4729 37.2936ZM11.1428 28.8211C11.3282 29.9023 11.5404 31.2117 11.7295 32.3442C11.6445 31.8842 11.2087 29.2833 11.1428 28.8211ZM97.6002 0.190423C97.8666 0.19582 105.125 0.19907 101.001 0.182458C100.761 0.181519 96.7909 0.174079 97.6002 0.190423ZM152.967 37.3087C152.75 37.3085 152.499 37.3079 152.209 37.3066C152.497 37.3071 152.749 37.308 152.967 37.3087ZM133.407 37.3066C133.804 37.2969 131.806 37.2943 131.217 37.2995C131.035 37.3114 133.353 37.308 133.407 37.3066ZM11.7572 32.428C11.8715 33.0797 12.063 34.265 12.1983 35.0728C12.1667 34.9375 11.7952 32.7117 11.7572 32.428ZM6.17176 23.8368C5.17837 24.6963 3.96188 25.7609 3.95038 25.7856C3.92868 25.8023 3.87946 25.8428 3.79858 25.9109C3.71688 25.9797 2.65983 26.9088 2.19662 27.3079C-0.576384 29.6975 12.8395 18.0051 5.0878 24.8094C5.44912 24.4852 5.81044 24.161 6.17176 23.8368ZM42.4049 0.213404C43.1505 0.226851 45.2386 0.210001 44.6967 0.204706C44.3193 0.201078 41.6584 0.199865 42.4049 0.213404ZM13.714 0.221369C13.9369 0.223769 15.9757 0.214351 16.0282 0.207269C14.8561 0.199807 12.6987 0.21022 13.714 0.221369ZM48.1365 0.229151C48.6044 0.23118 49.2016 0.209497 49.1466 0.208551C48.671 0.200636 47.3505 0.217078 48.1365 0.229151ZM149.4 37.2502C148.703 37.244 146.484 37.2597 146 37.2741C145.911 37.2713 145.668 37.2677 145.224 37.2633C145.225 37.2633 145.226 37.2633 145.228 37.2633C144.628 37.2576 126.688 37.2512 138.721 37.2788C139.098 37.2797 138.583 37.2668 140.117 37.2691C140.218 37.2693 140.268 37.2798 140.581 37.2803C141.301 37.2814 145.136 37.288 145.907 37.2795C145.914 37.2815 145.964 37.2833 146.069 37.285C147.015 37.3002 149.94 37.255 149.4 37.2502ZM9.67179 0.223292C10.082 0.22718 11.3809 0.223488 11.5154 0.214228C10.8713 0.209689 8.71959 0.214221 9.67179 0.223292ZM97.8253 0.228419C98.6613 0.236035 100.78 0.221797 100.139 0.214228C99.7469 0.209572 96.8612 0.219675 97.8253 0.228419ZM22.6806 0.218348C17.8873 0.207401 21.5367 0.219233 20.8025 0.232814C21.4286 0.227992 22.0546 0.22317 22.6806 0.218348ZM171.584 37.2853C170.82 37.2822 171.718 37.2554 172.56 37.2699C172.824 37.2746 172.012 37.287 171.584 37.2853ZM206.098 37.277C205.446 37.2532 208.632 37.2672 207.39 37.2835C207.332 37.284 206.145 37.2779 206.098 37.277ZM181.981 37.2673C181.462 37.2835 181.124 37.2854 179.662 37.2814C181.826 37.2768 179.819 37.2625 181.981 37.2673ZM3.96222 25.7776C3.95544 25.7826 3.94975 25.787 3.95038 25.7856C3.95786 25.7799 3.96131 25.7776 3.96222 25.7776ZM52.6432 0.22494C53.2431 0.238645 54.9249 0.237636 54.4239 0.223841C54.3756 0.222564 52.8891 0.214813 52.6432 0.22494ZM146 37.2741C146.08 37.2765 146.04 37.2781 145.907 37.2795C145.901 37.2777 145.935 37.276 146 37.2741ZM43.6137 0.23611C43.6737 0.225884 41.1142 0.221908 41.0115 0.223109C39.5425 0.240842 42.5568 0.236725 43.6137 0.23611ZM114.749 0.242793C114.881 0.241726 114.029 0.215331 113.507 0.225672C113.103 0.233696 114.254 0.246854 114.749 0.242793ZM186.944 37.2607C187.754 37.2607 188.895 37.2607 189.106 37.2732C188.563 37.2713 186.927 37.2699 186.944 37.2607ZM204.851 37.2598C203.893 37.2745 201.705 37.2745 200.307 37.272C200.282 37.2526 203.952 37.2643 204.851 37.2598ZM151.598 37.2575C151.532 37.2567 149.499 37.2509 149.777 37.2639C150.182 37.2829 152.172 37.2645 151.598 37.2575ZM110.802 0.228785C109.893 0.237729 111.984 0.265216 112.943 0.243983C113.436 0.233111 110.955 0.227287 110.802 0.228785ZM57.8942 0.242885C59.0936 0.235369 56.121 0.221981 55.7058 0.23556C56.2582 0.23665 57.4681 0.245546 57.8942 0.242885ZM17.0848 0.256618C20.8644 0.295783 18.8059 0.224335 18.1355 0.230616C18.0409 0.231513 16.9925 0.255697 17.0848 0.256618ZM220.934 12.0096C220.864 12.54 221.166 10.5681 221.189 10.3107C221.204 10.1516 220.979 11.6703 220.934 12.0096ZM0.91534 39.1394C0.866292 39.1641 0.817376 39.1888 0.768604 39.2135C0.240812 39.4789 -0.240205 38.883 0.131477 38.4238C0.196807 38.3428 0.261767 38.2623 0.326297 38.1824C0.27421 38.2475 0.210204 38.3271 0.131774 38.424C-0.239635 38.8829 0.241028 39.4784 0.768433 39.2131C0.813935 39.1902 0.862825 39.1657 0.91534 39.1394ZM68.7815 0.295346C66.1209 0.240049 66.4003 0.282669 66.1692 0.282437C65.6696 0.281842 64.5085 0.26689 63.5671 0.269345C64.6453 0.263119 65.7237 0.256893 66.802 0.250667C65.9502 0.246675 58.5503 0.226319 58.3951 0.235286C58.173 0.248055 60.5015 0.244049 60.5694 0.245174C60.6671 0.246776 61.0308 0.282277 61.2468 0.283627C61.6022 0.285785 67.7898 0.286521 68.7815 0.295346ZM24.9887 0.250484C24.381 0.246264 24.2082 0.232198 23.926 0.23556C23.8298 0.236711 23.8143 0.250127 23.4858 0.253597C23.9868 0.252559 24.4877 0.251522 24.9887 0.250484ZM73.5458 0.245631C74.299 0.262025 70.922 0.2558 70.8138 0.253963C70.2362 0.242851 72.9303 0.232239 73.5458 0.245631ZM44.8914 0.248012C45.0147 0.248969 47.6078 0.254087 47.5869 0.244991C46.9009 0.238056 43.4338 0.236036 44.8914 0.248012ZM23.0802 0.254512C22.1691 0.252948 20.4469 0.239438 20.6443 0.25964C20.6457 0.25964 20.647 0.25964 20.6484 0.25964C21.459 0.257931 22.2696 0.256221 23.0802 0.254512ZM107.69 0.27145C109.379 0.303625 108.579 0.26297 107.084 0.25259C106.631 0.267035 107.414 0.266215 107.69 0.27145ZM113.094 0.295438C113.563 0.301228 118.404 0.294884 117.665 0.277859C117.403 0.271792 114.619 0.287093 114.491 0.285916C114.297 0.284172 115.184 0.265338 113.7 0.26907C113.787 0.275452 112.933 0.293504 113.094 0.295438ZM109.088 0.29205C110.766 0.316519 111.143 0.27139 109.881 0.271267C109.388 0.271188 108.849 0.28852 109.088 0.29205ZM102.235 0.288205C102.838 0.292485 104.446 0.298728 105.555 0.283719C104.071 0.282437 102.588 0.281155 101.105 0.279873C100.934 0.288376 101.706 0.284444 102.239 0.288205C102.237 0.288205 102.236 0.288205 102.235 0.288205ZM214.933 37.1441C213.6 37.1313 216.671 37.1264 216.801 37.1296C217.186 37.14 215.529 37.1498 214.933 37.1441ZM219.056 22.2597C218.998 22.6256 218.948 22.863 218.841 23.6713C218.969 22.8612 219.097 22.0512 219.226 21.2411C219.288 20.6062 219.119 21.8597 219.056 22.2597ZM218.51 25.345C218.526 25.2303 218.393 25.8505 218.634 24.3731C218.796 23.3749 218.037 28.8211 217.878 29.801C218.024 28.714 218.375 26.333 218.51 25.345ZM216.961 34.8534C216.948 34.9157 217.239 32.8468 217.275 32.6078C217.468 31.3527 217.028 34.5164 216.961 34.8534ZM217.912 28.2569C217.765 29.2256 218.066 27.0762 218.163 26.4366C218.18 26.3756 217.934 28.1073 217.912 28.2569ZM201.433 36.5118C200.373 36.4822 199.425 36.546 201.056 36.5332C201.134 36.5326 201.478 36.5133 201.433 36.5118ZM217.206 32.8253C217.353 31.8566 217.051 34.006 216.955 34.6457C216.939 34.7041 217.184 32.9728 217.206 32.8253ZM200.687 36.4412C199.279 36.4198 199.775 36.4915 199.95 36.4944C200.675 36.5058 203.16 36.4776 203.668 36.4706C199.948 36.4814 201.35 36.4512 200.687 36.4412ZM194.192 36.4842C192.886 36.4918 196.224 36.5065 196.862 36.4865C196.212 36.4874 194.564 36.482 194.192 36.4842ZM186.264 36.4612C185.562 36.4587 183.473 36.4525 183.123 36.4638C183.889 36.4617 185.968 36.4728 186.264 36.4612ZM184.674 36.4274C183.576 36.4121 183.313 36.4567 184.579 36.4435C184.628 36.4429 184.714 36.4283 184.674 36.4274ZM178.502 36.4113C177.782 36.3936 176.96 36.4368 178.127 36.438C178.474 36.4382 178.579 36.4134 178.502 36.4113ZM198.924 36.3641C197.893 36.3565 196.564 36.3874 198.766 36.3908C197.993 36.3955 197.219 36.4003 196.446 36.405C199.33 36.4224 199.118 36.3794 199.946 36.3812C201.104 36.3837 201.012 36.4191 200.78 36.4303C201.729 36.4086 205.76 36.4082 208.09 36.4041C206.042 36.395 202.719 36.3792 200.699 36.3734C200.122 36.3717 199.562 36.3815 199.07 36.3804C198.282 36.3786 198.982 36.3646 198.928 36.3641C198.927 36.3641 198.926 36.3641 198.924 36.3641ZM170.39 36.4107C168.273 36.3906 169.611 36.434 170.807 36.4262C170.859 36.4256 170.442 36.4112 170.39 36.4107ZM216.678 35.5854C217.096 32.7882 216.829 34.8267 217.63 28.9645C217.304 31.4288 217.629 29.1032 217.571 29.585C217.524 29.9715 217.311 31.4143 217.447 30.5774C217.272 31.6779 216.592 36.4678 216.559 36.6809C216.559 36.6789 216.56 36.6769 216.56 36.6748C216.54 36.8028 216.545 36.478 216.678 35.5854ZM186.254 36.3477C185.548 36.295 185.271 36.3786 183.883 36.335C182.035 36.3984 188.988 36.335 189.83 36.3885C182.279 36.3823 194.819 36.4416 189.548 36.3614C193.89 36.3905 190.971 36.3515 191.641 36.3413C192.358 36.3304 194.814 36.3422 194.689 36.3226C194.688 36.3226 194.687 36.3226 194.685 36.3226C193.183 36.324 191.681 36.3253 190.179 36.3267C191.649 36.369 188.579 36.3564 187.538 36.3219C187.11 36.3305 186.682 36.3391 186.254 36.3477ZM194.756 36.3874C194.608 36.3865 191.341 36.3924 191.552 36.4009C191.988 36.4063 196.625 36.3998 194.756 36.3874ZM209.136 36.3782C207.963 36.3781 206.149 36.3698 205.51 36.3858C206.683 36.3859 208.497 36.3941 209.136 36.3782ZM148.726 36.3752C147.231 36.3883 151.835 36.3921 150.503 36.3766C150.438 36.3759 148.8 36.3745 148.726 36.3752ZM182.853 36.3557C181.332 36.3396 182.051 36.3908 183.177 36.3774C183.243 36.3767 182.923 36.3564 182.853 36.3557ZM216.996 33.3157C216.998 33.2133 217.588 29.1523 217.69 28.4322C217.643 28.843 216.994 33.4333 216.996 33.3157ZM211.201 36.3312C208.867 36.2861 205.699 36.3382 205.352 36.3371C205.006 36.3359 205.548 36.3162 205.469 36.3156C205.29 36.3145 201.611 36.3162 201.433 36.3176C201.306 36.3186 201.971 36.3464 201.212 36.3551C202.693 36.3393 209.418 36.3492 209.767 36.3461C210.037 36.3437 207.999 36.3146 211.197 36.3312C211.198 36.3312 211.2 36.3312 211.201 36.3312ZM204.484 36.331C205.402 36.3426 202.825 36.3441 202.202 36.3398C200.816 36.3302 204.366 36.3296 204.484 36.331ZM198.285 36.3203C197.991 36.3177 195.335 36.3153 195.109 36.3283C196.366 36.3451 198.953 36.3264 198.285 36.3203ZM168.73 36.3221C168.041 36.3237 166.144 36.3138 166.035 36.3251C166.725 36.3234 168.622 36.3334 168.73 36.3221ZM218.879 19.4419C218.708 20.575 219.079 17.946 219.193 17.1799C219.207 17.1393 218.894 19.3454 218.879 19.4419ZM182.595 36.2475C182.187 36.2441 173.854 36.2527 172.685 36.258C173.829 36.2665 182.087 36.2672 182.461 36.263C182.571 36.2617 182.647 36.2481 182.595 36.2475ZM200.616 36.2423C201.38 36.2257 201.878 36.2456 201.975 36.2459C202.919 36.2484 204.879 36.2447 204.449 36.2607C202.782 36.2542 199.095 36.2754 200.616 36.2423ZM168.138 36.2467C165.309 36.2529 170.743 36.2704 170.031 36.253C169.985 36.252 168.431 36.2461 168.138 36.2467ZM183.526 36.2427C184.15 36.2292 192.485 36.2408 193.823 36.2408C192.625 36.2657 191.659 36.2468 190.049 36.2481C189.614 36.2484 189.73 36.2588 189.684 36.2588C188.932 36.2593 189.495 36.2473 189.031 36.2472C188.738 36.2471 182.648 36.2616 183.526 36.2427ZM201.052 36.2308C201.518 36.2212 206.722 36.2172 206.932 36.2197C208.498 36.2386 201.456 36.2341 201.052 36.2308ZM182.762 36.2206C183.658 36.1918 187.797 36.2111 184.964 36.2255C184.694 36.2268 183.548 36.2143 182.762 36.2206ZM168.44 36.2192C168.301 36.2184 165.352 36.2126 165.299 36.2218C165.725 36.2254 170.025 36.2286 168.44 36.2192ZM169.97 36.1882C169.899 36.1884 170.59 36.2061 169.207 36.2039C169.092 36.2036 168.877 36.1838 167.138 36.191C166.786 36.1925 166.239 36.2057 166.278 36.2065C168.089 36.2377 173.541 36.1779 169.97 36.1882ZM201.147 36.2147C200.867 36.2063 201.543 36.1813 202.153 36.194C202.415 36.1994 201.927 36.2144 201.147 36.2147ZM159.086 36.2112C160.801 36.1961 155.418 36.1932 155.144 36.1971C155.316 36.2065 158.915 36.2127 159.086 36.2112ZM219.143 16.7691C219.143 16.7704 219.143 16.7717 219.142 16.7731C219.35 15.3456 219.236 16.2319 219.246 16.165C219.699 13.126 219.555 13.9287 219.62 13.4526C219.758 12.4317 219.769 12.6009 220.001 10.8784C219.616 13.7252 219.977 11.1354 220 11.0566C220.096 10.745 219.436 14.8396 219.244 16.259C219.217 16.4568 219.441 15.0004 219.374 15.5072C219.153 17.155 218.347 22.2467 219.143 16.7691ZM202.624 36.1918C203.293 36.177 208.369 36.1913 207.023 36.2035C206.806 36.2054 201.64 36.2133 202.624 36.1918ZM4.34492 26.9166C3.43407 27.7282 5.57443 25.8808 5.96291 25.5287C6.15561 25.354 4.74502 26.5601 4.34492 26.9166ZM9.15771 9.62635C8.91686 8.19686 8.61311 6.69827 8.91771 8.47582C8.95011 8.66471 9.17773 9.79146 9.15771 9.62635ZM40.871 36.1427C39.3574 36.1236 39.4475 36.159 40.5587 36.1585C40.951 36.1584 40.9187 36.1433 40.871 36.1427ZM1.116 38.9901C1.21221 38.873 2.3104 37.5107 2.26394 37.5552C1.97046 37.9128 1.19138 38.8797 0.998913 39.1249L0.266758 38.2174C0.345594 38.1763 0.356742 38.169 0.264794 38.2135L1.00231 39.1276C1.02827 39.0965 1.06565 39.0513 1.116 38.9901ZM41.3517 36.1377C40.4542 36.144 41.9989 36.1696 43.0959 36.1446C42.5388 36.1467 41.444 36.137 41.3517 36.1377ZM179.634 36.1424C178.883 36.1569 176.756 36.1526 175.535 36.1551C175.403 36.1362 178.761 36.1458 179.634 36.1424ZM10.1481 15.6997C9.90941 14.3482 10.382 17.25 10.3549 16.9812C10.3497 16.9441 10.1575 15.7529 10.1481 15.6997ZM89.7059 36.1357C88.7084 36.147 91.8756 36.1621 91.0039 36.1423C90.961 36.1415 89.7606 36.1351 89.7059 36.1357ZM103.536 36.1422C102.779 36.1384 99.5522 36.1396 100.808 36.1506C101.003 36.1522 103.479 36.1525 103.536 36.1422ZM219.619 13.3664C219.542 13.7673 219.881 11.4249 219.932 11.0899C219.953 10.9583 219.719 12.8434 219.619 13.3664ZM31.0403 36.1397C30.2572 36.1421 28.2259 36.1375 27.8682 36.1476C28.8263 36.1455 31.2979 36.1599 31.0403 36.1397ZM9.95278 22.0682C10.2055 21.8554 10.5059 21.5988 10.7998 21.3453C10.935 21.2266 11.0356 20.9486 11.0055 20.7712C10.8443 19.7683 10.6787 18.8146 10.7192 19.1781C11.0277 21.0202 10.8105 19.62 10.9987 20.7724C11.0285 20.9478 10.929 21.2227 10.7952 21.3401C10.6121 21.4988 10.3445 21.7301 9.95278 22.0682ZM46.3958 36.115C45.7677 36.1134 45.2865 36.1398 45.3574 36.141C46.0379 36.1529 47.0198 36.1253 46.3958 36.115ZM7.65984 28.2302C7.63343 28.2347 6.73444 28.6914 6.29159 28.92C6.0211 29.0583 5.88708 29.3883 5.98827 29.6748C6.05848 29.8711 6.09972 29.983 6.07555 29.9075C6.0698 29.8895 6.03939 29.8006 5.99517 29.6724C5.89518 29.3893 6.02761 29.0632 6.2949 28.9265C6.73936 28.7034 7.68359 28.2261 7.65984 28.2302ZM153.268 36.136C152.345 36.1257 155.162 36.1157 155.995 36.1277C156.401 36.145 153.384 36.1372 153.268 36.136ZM63.8119 36.1216C63.9056 36.1049 60.7589 36.1144 61.9987 36.1282C62.3091 36.1317 63.7791 36.1272 63.8119 36.1216ZM93.9367 36.1016C91.826 36.1215 100.689 36.1357 98.3602 36.1108C98.1937 36.1091 94.1205 36.0999 93.9367 36.1016ZM108.412 36.114C108.048 36.1118 108.229 36.0557 109.736 36.0773C109.934 36.0801 109.009 36.095 109.17 36.0984C109.266 36.1003 112.542 36.1082 112.693 36.1069C112.856 36.1054 112.665 36.0874 112.829 36.0854C113.015 36.0831 115.032 36.0989 116.089 36.0991C118.079 36.0994 118.294 36.0844 118.458 36.0844C118.933 36.0843 119.733 36.0949 120.697 36.0949C125.556 36.0948 132.989 36.0821 136.841 36.1139C133.413 36.1011 130.146 36.1146 126.735 36.1188C127.734 36.0875 121.716 36.1429 125.236 36.1068C123.615 36.1146 109.606 36.1209 108.416 36.114C108.415 36.114 108.413 36.114 108.412 36.114ZM8.23276 3.98005C8.36415 4.67574 7.91393 1.97163 7.68065 0.642423L7.0351 1.40446C7.38347 1.40146 7.63909 1.39766 7.71866 1.39311C7.59263 1.39246 7.34653 1.39231 7.0351 1.3925L7.66885 0.644389C7.86338 1.80744 8.21671 3.8942 8.23276 3.98005ZM7.78576 24.0701C7.46814 24.3516 7.18933 24.6447 5.49999 26.0933C5.49846 26.0946 5.49693 26.0959 5.49541 26.0973C5.00148 26.5208 5.55412 26.0266 5.46221 26.1024C5.4286 26.13 3.88727 27.45 5.1552 26.3398C7.08887 24.6466 5.35588 26.2017 6.3888 25.3011C6.51505 25.191 8.45607 23.4706 8.33948 23.5664C8.32738 23.5763 7.74217 24.0925 7.64383 24.1759C7.27246 24.4906 7.44331 24.326 7.39125 24.3707C7.22112 24.5172 4.14367 27.2286 3.68278 27.6076C3.53304 27.7308 8.59729 23.2953 8.79689 23.125C8.92311 23.0174 8.89177 23.0878 9.0233 22.9773C9.07211 22.9363 10.1424 21.9945 10.8357 21.3865C10.9828 21.2575 11.0922 20.9552 11.0595 20.7622C11 20.4105 10.9534 20.1329 10.9381 20.0361C10.9222 19.9353 10.9102 19.8582 10.9016 19.8016C10.959 20.2074 10.5566 17.7884 10.5802 17.8607C10.5916 17.902 10.8665 19.5673 10.8757 19.627C10.8797 19.6532 10.883 19.676 10.8863 19.6972C10.8719 19.5874 10.9562 20.0776 11.0723 20.7601C11.1056 20.9567 10.9942 21.2648 10.8443 21.3963C9.72184 22.3822 7.91465 23.9638 8.55805 23.419C7.31633 24.5156 8.71756 23.2443 7.78576 24.0701ZM1.79882 29.32C1.92546 29.205 2.0521 29.09 2.17874 28.975C1.79649 29.3104 1.40339 29.6543 1.00143 30.0052L0.964832 28.9063C2.43213 30.0229 4.00276 31.2263 5.6023 32.4482C5.92761 32.6945 5.97837 33.1284 5.7228 33.4464C5.26538 34.0106 4.80544 34.5785 4.34629 35.1466C3.81342 35.8059 4.44271 35.0606 3.73978 35.9212C3.17668 36.6106 2.54235 37.3646 2.84319 36.9855C2.9166 36.893 4.06561 35.4914 4.63476 34.7852C5.20124 34.0822 5.52683 33.6748 5.71333 33.4388C5.96446 33.1263 5.91458 32.6999 5.59492 32.4579C5.1205 32.1048 5.32433 32.27 5.24156 32.2074C5.10376 32.1031 3.77047 31.072 3.03787 30.5149C2.22314 29.8953 1.60293 29.4262 0.947651 28.9289L0.982785 29.9838C1.7632 29.3007 2.59868 28.572 3.93258 27.4188C2.56542 28.6273 3.33547 27.9895 1.79882 29.32ZM77.1027 36.0709C77.2129 36.0596 79.1106 36.0696 79.8002 36.068C79.6917 36.0793 77.7926 36.0693 77.1027 36.0709ZM149.315 1.44374C149.898 1.42522 145.529 1.42063 146.68 1.43605C146.935 1.43947 148.766 1.4436 149.315 1.44374ZM129.688 1.43247C129.104 1.43759 131.457 1.45093 131.453 1.43659C131.449 1.432 129.764 1.43181 129.688 1.43247ZM12.649 30.1821C12.6678 30.2911 12.928 31.8775 12.9354 31.9273C13.0911 32.9812 12.2323 27.7598 12.649 30.1821ZM105.829 1.45527C107.866 1.44314 101.734 1.43788 103.608 1.45335C103.701 1.4541 105.731 1.45586 105.829 1.45527ZM97.3061 1.45866C97.7944 1.45801 99.9629 1.46404 99.9914 1.45838C100.035 1.44927 97.5525 1.44304 97.3061 1.45866ZM46.8197 36.0451C46.5844 36.0242 49.4438 36.04 50.438 36.0374C50.6741 36.0583 47.8135 36.0425 46.8197 36.0451ZM28.7708 36.0297C40.8257 36.0133 38.1682 36.0578 28.0528 36.0399C28.0383 36.0265 28.01 36.0308 28.7708 36.0297ZM44.2074 36.0322C43.7692 36.0456 42.4003 36.0416 41.4754 36.0405C41.6417 36.0312 43.5402 36.0346 44.2074 36.0322ZM154.517 1.47239C153.761 1.48928 150.413 1.46846 151.009 1.4615C151.147 1.45999 154.795 1.46311 154.517 1.47239ZM12.8327 31.1754C12.8066 30.8952 13.3936 34.4672 13.4347 34.7413C13.6005 35.8462 12.8853 31.4639 12.8327 31.1754ZM63.9296 36.0272C64.5687 36.0113 66.3843 36.0195 67.5519 36.0197C67.0203 36.0333 64.9204 36.0275 63.9296 36.0272ZM55.5004 36.0148C55.5737 36.0142 57.2022 36.0156 57.275 36.0163C58.6094 36.0319 54.0026 36.0279 55.5004 36.0148ZM218.709 18.7272C218.716 18.6734 218.892 17.4527 218.898 17.4102C219.069 16.3227 218.543 19.9864 218.709 18.7272Z" fill="black" style="fill:black;fill-opacity:1;"/>
</svg>
