<svg width="25" height="36" viewBox="0 0 25 36" fill="none" xmlns="http://www.w3.org/2000/svg">
<path d="M14.8236 18.7647L32.8236 11.6308V9.23529L14.8236 18.7647Z" fill="black" style="fill:black;fill-opacity:1;"/>
<path d="M20.1177 19.8235L32.8236 15.8603V14.5294L20.1177 19.8235Z" fill="black" style="fill:black;fill-opacity:1;"/>
<path d="M20.1177 32L32.8236 36.2353V34.4857L20.1177 32Z" fill="black" style="fill:black;fill-opacity:1;"/>
<path d="M21.1765 34.6471L28.5883 41V39.5593L21.1765 34.6471Z" fill="black" style="fill:black;fill-opacity:1;"/>
<path d="M22.2353 22.4706L33.8824 21.9412V20.8824L22.2353 22.4706Z" fill="black" style="fill:black;fill-opacity:1;"/>
<path d="M18 21.9412L32.6688 19.2941L32.8236 18.7647L18 21.9412Z" fill="black" style="fill:black;fill-opacity:1;"/>
<path d="M21.1765 24.0588L35.8453 26.1765L36 24.7647L21.1765 24.0588Z" fill="black" style="fill:black;fill-opacity:1;"/>
<path d="M19.0593 26.1765L33.7198 30.4118L35.4706 27.7647L19.0593 26.1765Z" fill="black" style="fill:black;fill-opacity:1;"/>
<path d="M13.4655 -1.35294H15.8824L1.90735e-06 16.6471L13.4655 -1.35294Z" fill="black" style="fill:black;fill-opacity:1;"/>
<path d="M3.17649 8.17648L8.47061 -1.35294H7.29414L3.17649 8.17648Z" fill="black" style="fill:black;fill-opacity:1;"/>
<path d="M8.47064 11.3529L23.8236 0.2353L20.1177 -2.41176L8.47064 11.3529Z" fill="black" style="fill:black;fill-opacity:1;"/>
<path d="M15.8824 9.2353L23.2942 4.02547V1.82353L15.8824 9.2353Z" fill="black" style="fill:black;fill-opacity:1;"/>
<path d="M2.1177 6.05883C4.09417 3.71177 6.01417 -1.05647 6.353 -1.35294H5.08241L2.1177 6.05883Z" fill="black" style="fill:black;fill-opacity:1;"/>
</svg>
