<svg width="33" height="36" viewBox="0 0 33 36" fill="none" xmlns="http://www.w3.org/2000/svg">
<path d="M13.2787 -3H10.8525L21.4816 9.18932L13.2787 -3Z" fill="black" style="fill:black;fill-opacity:1;"/>
<path d="M6.6004 28.2047L-8.11655 32.1052L-9.87415 29.6674L6.6004 28.2047Z" fill="black" style="fill:black;fill-opacity:1;"/>
<path d="M24.1388 6.75147L18.8243 -2.02484H20.0053L24.1388 6.75147Z" fill="black" style="fill:black;fill-opacity:1;"/>
<path d="M10.6203 8.60889L-2.43359 -0.00555378L0.968678 -0.00554276L10.6203 8.60889Z" fill="black" style="fill:black;fill-opacity:1;"/>
<path d="M10.8525 6.75147L1.81781 -0.0745544H3.41217L10.8525 6.75147Z" fill="black" style="fill:black;fill-opacity:1;"/>
<path d="M2.88069 7.7266L-5.62256 3.9775V2.85088L2.88069 7.7266Z" fill="black" style="fill:black;fill-opacity:1;"/>
<path d="M9.25812 15.5278L-8.81128 9.9328V7.72661L9.25812 15.5278Z" fill="black" style="fill:black;fill-opacity:1;"/>
<path d="M5.0065 17.4781L-8.81128 13.828V12.6023L5.0065 17.4781Z" fill="black" style="fill:black;fill-opacity:1;"/>
<path d="M1.81782 19.9159L-9.87415 19.4284V18.4532L1.81782 19.9159Z" fill="black" style="fill:black;fill-opacity:1;"/>
<path d="M6.0694 19.4284L-8.65595 16.9905L-8.81128 16.5029L6.0694 19.4284Z" fill="black" style="fill:black;fill-opacity:1;"/>
<path d="M2.88068 21.3786L-11.8447 23.3289L-12 22.0287L2.88068 21.3786Z" fill="black" style="fill:black;fill-opacity:1;"/>
<path d="M7.66385 30.6425L-7.74829 34.4323V33.568L7.66385 30.6425Z" fill="black" style="fill:black;fill-opacity:1;"/>
<path d="M2.34931 34.0555L-7.74829 36.981V36.5362L2.34931 34.0555Z" fill="black" style="fill:black;fill-opacity:1;"/>
</svg>
