<svg width="39" height="25" viewBox="0 0 39 25" fill="none" xmlns="http://www.w3.org/2000/svg">
<g filter="url(#filter0_d_1711_13456)">
<path d="M17.7862 14.2306L22.8234 12.4551L22.8225 12.4564C22.9838 12.3988 23.1218 12.4119 23.2321 12.4615L23.233 12.4593C23.2392 12.4617 23.2445 12.4668 23.2505 12.4695C23.2553 12.4719 23.2614 12.472 23.2661 12.4746L23.2652 12.4759C23.4182 12.5524 23.4972 12.7126 23.4977 12.9121C23.4977 12.9182 23.4979 12.9245 23.4977 12.9307L23.3653 17.0919L23.3644 17.0912C23.3602 17.2962 23.2773 17.508 23.1362 17.6885C23.122 17.7067 23.107 17.7242 23.0914 17.741C22.9514 17.8915 22.7988 17.9692 22.6834 18.0129L22.6843 18.0135L17.9219 19.9097L17.9228 19.9104C17.9207 19.9113 17.9185 19.9109 17.9164 19.9117L17.9136 19.9137L17.9127 19.9131C17.781 19.9666 17.5993 20.0066 17.4462 19.916C17.2889 19.8229 17.245 19.6426 17.2377 19.5043L17.2377 19.4984L17.0659 15.2457L17.0658 15.2262C17.0653 15.0137 17.145 14.7842 17.3012 14.5813L17.3094 14.5705C17.4664 14.3738 17.6511 14.2798 17.7807 14.2326L17.7862 14.2306ZM19.7262 16.0178L19.6831 16.7998L20.7336 16.3798L20.7316 15.577L19.7262 16.0178Z" fill="white" stroke="black" style="fill:white;fill-opacity:1;stroke:black;stroke-opacity:1;" stroke-linejoin="round"/>
<path d="M7.37582 10.8532C7.50349 10.8101 7.62776 10.7908 7.74536 10.7962L7.86081 10.8095L7.89917 10.8198C8.11101 10.8889 8.22706 11.0702 8.24972 11.3101L8.76975 16.0149L9.86299 11.423L9.86392 11.4227C9.90564 11.2284 10.0007 11.0129 10.1797 10.8265C10.3493 10.6498 10.537 10.5596 10.6952 10.5117L10.6962 10.5104L12.5887 9.8883L12.5878 9.88862C12.7434 9.83648 12.9059 9.82074 13.051 9.87456C13.16 9.91501 13.2406 9.98753 13.2984 10.0759L13.3488 10.1694L13.3644 10.2116L14.6549 14.4496L15.466 8.86939C15.5033 8.60546 15.6444 8.36982 15.8084 8.18758L15.8178 8.17762C15.9584 8.02654 16.1128 7.92507 16.2663 7.86418L16.4188 7.8165L16.429 7.81404L18.9145 7.29686L18.9587 7.28966C19.1745 7.26724 19.3518 7.34233 19.4592 7.51117C19.5721 7.66937 19.6076 7.88417 19.5553 8.13202L17.1929 19.5426C17.1417 19.795 17.0123 20.0288 16.8321 20.2238C16.6569 20.4327 16.4484 20.5783 16.2278 20.653L13.865 21.4515C13.5739 21.5498 13.1196 21.6151 12.9881 21.1769C12.9867 21.1722 12.985 21.1676 12.9838 21.1628L11.7824 16.537L10.3545 22.0524L10.3536 22.0517C10.2921 22.3018 10.1405 22.515 9.95933 22.6667C9.79404 22.805 9.61216 22.8876 9.45013 22.9425L9.45103 22.9432L6.92684 23.8127L6.92407 23.8136C6.75766 23.8699 6.57025 23.8988 6.40552 23.8377C6.23145 23.773 6.13212 23.6255 6.09048 23.4478C6.0893 23.4428 6.08814 23.4377 6.08713 23.4325L4.11875 13.2315L4.11969 13.2302C4.07711 13.0144 4.12153 12.7727 4.24284 12.5353L4.29154 12.4481C4.41099 12.2483 4.58295 12.0674 4.80426 11.9636C4.80965 11.9611 4.81556 11.9584 4.82096 11.956L7.33322 10.8695L7.37582 10.8532Z" fill="white" stroke="black" style="fill:white;fill-opacity:1;stroke:black;stroke-opacity:1;" stroke-linejoin="round"/>
<path d="M22.8935 9.27039C22.9803 9.21442 23.0693 9.17696 23.1581 9.15884L23.2466 9.14655L23.2863 9.14718C23.472 9.15995 23.6029 9.28519 23.6693 9.46957L23.6701 9.46904L24.29 11.1333L24.2691 9.49703L24.2699 9.4965C24.2653 9.33657 24.298 9.14034 24.4079 8.94763C24.5109 8.7671 24.6425 8.66033 24.7484 8.59597L24.749 8.59449L24.7679 8.58232L24.7673 8.5838L25.7444 7.96385L25.7438 7.96534C25.8526 7.89587 25.9791 7.84847 26.1084 7.86254C26.206 7.8732 26.2853 7.91605 26.3478 7.97375L26.4043 8.03561L26.4298 8.07273L27.3563 9.61144L27.1141 7.2482C27.09 7.02171 27.1591 6.8013 27.2488 6.63153L27.2555 6.61958L27.3446 6.48237C27.4392 6.3576 27.5486 6.2703 27.6563 6.2148L27.6664 6.20941L29.0162 5.55468C29.03 5.54799 29.0443 5.54144 29.0582 5.53637C29.2381 5.47076 29.4103 5.50203 29.5346 5.6379L29.5324 5.64043C29.6353 5.7435 29.6983 5.89459 29.7058 6.08473L29.9988 12.9678C30.0077 13.164 29.956 13.36 29.8664 13.5371L29.8685 13.5379C29.8622 13.5516 29.8532 13.5639 29.8464 13.5773C29.8416 13.5861 29.8382 13.5968 29.8331 13.6055L29.8319 13.6041C29.7386 13.7787 29.6158 13.9182 29.4736 14.0098L28.235 14.8082C28.0667 14.9167 27.7009 15.0872 27.4955 14.7429C27.493 14.7387 27.4902 14.7346 27.4879 14.7303L26.4572 12.848L26.4407 15.4063L26.4397 15.4059C26.4403 15.6302 26.3567 15.8418 26.2409 16.0016C26.1375 16.1442 26.0161 16.237 25.9191 16.2997L25.9202 16.3001L24.5984 17.163L24.5959 17.1646C24.4874 17.2345 24.3465 17.2972 24.1996 17.2812C24.0425 17.2641 23.9313 17.1632 23.8637 17.0323C23.8612 17.0275 23.8588 17.0223 23.8565 17.0173L21.2562 11.4531L21.2568 11.4516C21.1799 11.2884 21.1672 11.085 21.2157 10.8739L21.2629 10.7179C21.3222 10.5612 21.4187 10.4078 21.5584 10.2936L21.572 10.2827L22.8561 9.29663L22.8935 9.27039Z" fill="white" stroke="black" style="fill:white;fill-opacity:1;stroke:black;stroke-opacity:1;" stroke-linejoin="round"/>
<path d="M32.9306 4.54282L33.0229 1.3896L34.1439 1.14393L33.678 4.37903L32.9306 4.54282Z" fill="black" style="fill:black;fill-opacity:1;"/>
<path d="M31.2721 4.12302L31.3644 0.969799L32.4854 0.724126L32.0195 3.95923L31.2721 4.12302Z" fill="black" style="fill:black;fill-opacity:1;"/>
</g>
<defs>
<filter id="filter0_d_1711_13456" x="3.62933" y="0.724126" width="30.5146" height="24.1727" filterUnits="userSpaceOnUse" color-interpolation-filters="sRGB">
<feFlood flood-opacity="0" result="BackgroundImageFix"/>
<feColorMatrix in="SourceAlpha" type="matrix" values="0 0 0 0 0 0 0 0 0 0 0 0 0 0 0 0 0 0 127 0" result="hardAlpha"/>
<feOffset dy="0.5"/>
<feComposite in2="hardAlpha" operator="out"/>
<feColorMatrix type="matrix" values="0 0 0 0 0 0 0 0 0 0 0 0 0 0 0 0 0 0 1 0"/>
<feBlend mode="normal" in2="BackgroundImageFix" result="effect1_dropShadow_1711_13456"/>
<feBlend mode="normal" in="SourceGraphic" in2="effect1_dropShadow_1711_13456" result="shape"/>
</filter>
</defs>
</svg>
