<svg width="253" height="39" viewBox="0 0 253 39" fill="none" xmlns="http://www.w3.org/2000/svg">
<path d="M246.173 36.75H12.1771L10.4379 26.5186L6.59412 28.4707L8.45056 33.7734L0.557983 37.75L5.20056 32.0059L0.557983 28.4707L9.45056 20.7119L6.05798 0.75H252.058L246.173 36.75Z" fill="white" style="fill:white;fill-opacity:1;"/>
<path d="M242.815 0.0119801C242.45 0.0138826 240.979 0.00925499 240.342 0.0100573C241.064 -0.0100641 244.134 0.00507146 242.815 0.0119801ZM177.515 1.47313C178.043 1.46815 178.571 1.46318 179.099 1.4582C177.598 1.45497 175.581 1.45862 174.188 1.4539C173.96 1.45311 174.551 1.4387 174.012 1.43806C173.473 1.43742 173.577 1.4571 172.792 1.45921C171.913 1.46151 167.885 1.4478 166.49 1.44813C161.273 1.44946 156.011 1.4607 150.784 1.45253C156.18 1.43796 150.742 1.42314 149.231 1.42945C148.896 1.43091 148.949 1.46751 143.535 1.45829C140.094 1.45245 143.272 1.40013 137.53 1.42634C141.945 1.46294 137.603 1.46037 134.142 1.46159C133.545 1.46181 128.726 1.45631 126.597 1.45793C125.869 1.45849 124.759 1.47766 123.793 1.47816C123.129 1.47849 122.626 1.46801 121.639 1.46855C117.036 1.47091 112.51 1.47172 107.9 1.46818C110.594 1.41893 105.785 1.44719 105.569 1.44483C104.471 1.43146 109.439 1.42765 107.474 1.41929C104.728 1.42082 101.983 1.42234 99.2375 1.42387C101.491 1.42992 96.2545 1.46535 95.2907 1.44923C95.715 1.49275 82.7776 1.41135 80.8083 1.42588C80.3981 1.42895 83.083 1.45046 76.8546 1.44062C76.18 1.43953 76.4353 1.4264 76.0815 1.42762C75.8696 1.42836 74.5873 1.4701 73.2211 1.44703C72.722 1.43861 75.9139 1.4112 68.9045 1.42222C71.696 1.4647 59.1852 1.44523 56.8835 1.43458C57.3434 1.44029 57.8032 1.44599 58.263 1.4517C55.9876 1.43631 55.5771 1.45075 55.0645 1.44996C52.9988 1.4468 50.1589 1.43224 48.2347 1.43357C45.9829 1.4351 45.9753 1.46152 43.3501 1.45124C43.973 1.45707 44.5958 1.4629 45.2187 1.46873C43.4057 1.46733 41.5927 1.46592 39.7796 1.46452C43.9781 1.42955 38.8739 1.46285 38.5376 1.4636C38.0013 1.46488 38.7719 1.45056 37.8749 1.45234C37.7822 1.45264 37.9163 1.46612 36.5338 1.46763C33.6451 1.47075 34.1017 1.4538 32.8889 1.45399C32.7778 1.45408 33.1669 1.46622 31.0722 1.4691C24.4145 1.47824 31.1053 1.45979 31.3607 1.45811C31.6961 1.4559 29.4134 1.40514 35.0686 1.42314C33.1697 1.41741 32.9788 1.39494 32.765 1.39439C32.5757 1.39393 29.2857 1.39709 29.1044 1.39787C27.487 1.40549 28.9101 1.42084 28.5949 1.42359C28.3372 1.42581 24.3734 1.40581 23.4444 1.45198C21.5479 1.40939 24.5355 1.41329 27.7158 1.40675C28.1799 1.39801 24.6873 1.38951 24.5038 1.38953C19.9989 1.38961 22.493 1.42464 21.5081 1.44703C20.9908 1.45875 19.1554 1.43485 20.8499 1.46626C16.7612 1.46957 19.2408 1.45137 18.9768 1.44868C18.5782 1.44472 17.1476 1.45372 16.9684 1.45253C16.7056 1.45075 17.6193 1.43988 16.583 1.43605C16.4107 1.43549 14.7408 1.4542 16.894 1.46315C14.0172 1.46049 14.2542 1.47644 13.2785 1.44429C11.2971 1.50512 11.8408 1.40832 11.0605 1.40492C8.98575 1.39593 9.58768 1.4437 9.47816 1.44602C9.12212 1.45306 7.65654 1.45313 6.05798 1.45197L6.75003 0.632386C7.04883 2.39834 7.37407 4.32917 7.50358 5.0695C7.40325 4.64019 6.99088 2.12366 6.74228 0.633702L6.05798 1.44411C6.4736 1.44536 6.81056 1.44582 7.00317 1.44438C8.59175 1.43252 7.28906 1.42842 6.05798 1.4206L6.71911 0.637641C6.8925 1.69867 7.05394 2.70631 6.86526 1.71639C7.02879 2.60772 7.19232 3.49906 7.35584 4.3904C7.60681 6.03293 7.19995 3.71131 7.95911 8.11758C8.10527 8.83443 7.42571 5.00171 7.57518 5.7684C7.66324 6.22033 8.09997 8.77585 8.11428 8.82515C8.12978 8.87437 7.72896 6.56571 7.80151 6.92801C7.95964 7.71898 9.36969 16.1484 8.26705 9.7366C8.57148 11.5255 8.68234 12.4551 8.96027 14.0041C9.14003 15.0057 8.24409 9.35095 9.67155 17.8204C9.68057 18.0044 9.08982 14.4361 9.07246 14.344C9.04795 14.2142 9.10877 14.8676 9.12535 14.9797C9.15786 15.1974 9.6241 17.9049 10.0851 20.6041C10.1167 20.7874 10.0136 21.0742 9.87368 21.1969C8.18316 22.6742 6.49555 24.1456 5.85904 24.6861C6.33048 24.3061 2.62944 27.5195 0.982134 28.9568L0.948833 27.9574C1.31838 28.2388 1.59074 28.4455 1.70345 28.5294C1.87474 28.6568 1.25063 28.1596 1.4333 28.2963C2.26408 28.9188 4.10816 30.3412 5.59669 31.4856C5.9001 31.7155 5.94761 32.1202 5.7091 32.4169C5.26849 32.9569 4.86758 33.449 4.56348 33.8249C3.3063 35.3789 3.47725 35.1915 3.40701 35.2784C2.85348 35.9619 3.28721 35.4089 2.94924 35.8271C2.72383 36.1061 1.91356 37.1079 1.06385 38.1589L0.265321 37.1691C1.79195 36.4003 3.40838 35.5861 3.54759 35.5146C3.62054 35.4771 2.79897 35.8717 3.88427 35.3212C4.07226 35.2258 3.96212 35.3043 7.17649 33.6748C7.64114 33.4393 7.95531 33.2795 8.15119 33.1792L7.82259 33.9933C7.67163 33.5707 7.70234 33.668 7.81369 33.9964L8.14695 33.1708C7.33918 33.5678 5.0575 34.7051 6.07437 34.1775C7.15759 33.6466 7.75442 33.3479 8.13775 33.1526L7.79439 34.0032C7.60555 33.4716 7.54521 33.327 7.40478 32.9218C7.31907 32.6744 6.69972 30.8273 5.99908 28.8309C6.50478 30.2628 7.01048 31.6946 7.51618 33.1264C7.12583 32.0005 6.4333 30.0309 5.9655 28.6908C5.85648 28.3819 6.00085 28.0259 6.29253 27.8769C6.61248 27.7148 6.8945 27.5722 7.11617 27.4608C7.65216 27.1913 7.22095 27.4341 8.3827 26.8434C8.62928 26.7179 9.58446 26.175 6.55091 27.7416C6.29921 27.8488 7.75315 27.1238 8.42274 26.7779C8.52402 26.7255 8.91088 26.4946 9.77769 26.0758C9.92034 26.0069 8.93018 26.5582 10.1474 25.9467C10.57 25.7307 10.9895 25.9434 11.0702 26.4111C11.1723 27.0276 11.3701 28.1606 11.7322 30.169C11.7693 30.3747 11.6586 29.6565 11.6951 29.8575C11.7201 29.9949 11.9932 31.6287 12.0254 31.8088C12.0585 31.9931 11.9365 31.2023 11.9762 31.4216C12.18 32.5458 12.3833 34.0325 11.9922 31.7093C12.1182 32.4866 12.2442 33.2639 12.3703 34.0412C12.2652 33.2042 12.5877 35.2587 12.7714 36.3326C12.7894 36.4377 12.8069 36.5402 12.824 36.64L12.1771 36.0938C18.7063 36.0862 14.1904 36.0629 15.3725 36.0508C17.3034 36.031 15.8287 36.0937 18.695 36.0748C18.9602 36.0731 15.4953 36.0465 22.261 36.0615C21.2624 36.0625 20.2639 36.0636 19.2653 36.0646C19.8411 36.1001 22.871 36.0622 23.104 36.0617C25.7607 36.0568 23.9647 36.0696 27.9097 36.0513C28.2621 36.0497 29.0294 36.0584 29.7828 36.0541C32.9058 36.0361 25.662 36.0432 25.464 36.0288C25.3702 36.0218 33.1602 36.0235 33.4276 36.0269C34.5632 36.0417 29.8963 36.0334 30.7859 36.0518C31.1105 36.0583 42.2135 36.0449 44.441 36.0521C47.0115 36.0604 48.1687 36.1085 48.185 36.0544C48.9105 36.1075 49.5512 36.0713 49.8801 36.0716C53.8551 36.0766 53.8624 36.0771 57.2712 36.072C58.0239 36.0709 58.6595 36.087 58.9257 36.0843C59.0806 36.0826 58.791 36.0654 59.5501 36.0601C60.6045 36.0528 66.9413 36.0705 67.4123 36.0801C67.8832 36.0896 64.7362 36.0842 65.3002 36.0998C67.5782 36.1014 69.7626 36.0976 72.0557 36.0992C73.0081 36.0999 72.5187 36.1109 72.9302 36.1111C73.1054 36.1112 76.3943 36.1016 76.255 36.0976C75.9285 36.0882 65.7726 36.0945 68.4469 36.0753C68.9628 36.0716 70.7858 36.0968 70.4959 36.0662C79.5692 36.0731 88.6427 36.0801 97.716 36.087C92.5028 36.11 86.636 36.0895 81.1756 36.0916C80.4272 36.0919 77.8972 36.0889 78.2048 36.1044C82.8481 36.1084 88.6208 36.1004 93.0794 36.1105C93.2222 36.1108 92.6983 36.1247 93.2327 36.1269C94.2318 36.1311 97.4847 36.1086 98.0316 36.1144C98.1251 36.1158 96.274 36.1341 96.8369 36.1458C98.282 36.1758 98.6487 36.1094 99.8912 36.1102C100.852 36.1108 107.308 36.1429 108.917 36.1226C110.626 36.101 104.158 36.1101 104.636 36.0924C109.012 36.0747 113.444 36.0936 117.579 36.0914C117.652 36.0914 117.019 36.0775 117.942 36.0756C119.547 36.0722 119.969 36.0919 120.75 36.095C121.593 36.0983 124.574 36.0955 124.972 36.1027C125.023 36.1036 124.419 36.1231 124.328 36.1236C123.029 36.1317 122.568 36.1064 122.45 36.1061C122.006 36.1051 121.57 36.1148 121.165 36.1142C120.498 36.1133 120.131 36.1043 119.251 36.1035C118.644 36.1029 119.23 36.1201 118.645 36.1193C118.43 36.119 116.113 36.0797 115.897 36.1198C115.83 36.1324 134.777 36.1487 136.671 36.1386C135.046 36.1338 133.422 36.1289 131.798 36.1241C135.096 36.1358 139.059 36.1038 139.34 36.1512C151.573 36.1551 163.805 36.159 176.038 36.1628C178.223 36.1669 177.025 36.1973 180.619 36.1885C179.69 36.1788 178.761 36.1691 177.833 36.1594C179.674 36.1662 187.836 36.1795 189.157 36.1732C189.328 36.1724 189.566 36.1448 191.605 36.1424C193.414 36.1403 193.705 36.161 194.673 36.1649C195.485 36.1682 196.397 36.1628 196.638 36.1639C196.823 36.1648 196.896 36.1775 197.342 36.1797C198.747 36.1865 197.608 36.1509 199.003 36.1918C198.663 36.1933 198.324 36.1949 197.984 36.1964C199.68 36.2023 201.997 36.2209 199.499 36.23C199.069 36.2316 199.438 36.2194 199.118 36.2194C186.574 36.2217 196.591 36.2454 200.986 36.2265C202.115 36.2446 208.442 36.2335 208.652 36.2371C208.945 36.2423 207.862 36.2567 209.281 36.2692C209.58 36.2719 218.039 36.2617 214.993 36.2858C214.365 36.2908 210.309 36.2855 209.331 36.2863C211.631 36.3246 217.024 36.2696 217.63 36.2711C220.077 36.277 212.931 36.3043 218.442 36.3088C222.679 36.3122 218.701 36.2866 220.331 36.2756C221.247 36.2695 226.042 36.2977 225.912 36.2612C227.558 36.2573 226.595 36.2766 226.798 36.278C226.996 36.2792 230.233 36.2683 231.283 36.276C231.411 36.277 231.01 36.296 231.141 36.2975C231.398 36.3002 234.519 36.2964 234.644 36.2948C234.724 36.2936 233.98 36.277 234.286 36.273C234.642 36.2683 237.646 36.2722 237.811 36.2675C238.045 36.2603 234.337 36.265 234.955 36.2464C236.664 36.2511 239.449 36.2387 240.577 36.2237C240.3 36.228 238.643 36.2286 238.068 36.2271C238.339 36.1999 241.897 36.2002 240.681 36.2218C241.454 36.2102 240.926 36.2041 241.361 36.1931C241.476 36.1904 242.574 36.1898 242.786 36.1851C242.813 36.1841 241.68 36.1739 241.907 36.1683C242.318 36.1583 245.649 36.1606 245.921 36.1632C246.688 36.1706 243.973 36.1796 243.746 36.1911C243.714 36.1929 246.024 36.2154 246.059 36.2174C246.194 36.2387 243.624 36.2234 243.917 36.2426C244.553 36.2466 245.189 36.2507 245.824 36.2548C243.372 36.2742 238.836 36.2642 237.667 36.2863C241.302 36.2798 245.106 36.2805 245.099 36.3304C245.096 36.3514 243.528 36.3637 243.588 36.369C243.82 36.3881 245.997 36.3674 246.077 36.3684C246.143 36.3695 246.173 36.3707 246.173 36.3718C246.173 36.3718 246.173 36.3718 246.173 36.3718C246.173 36.383 243.07 36.391 242.914 36.3961C242.653 36.4052 244.034 36.4425 244.032 36.4508C243.984 36.4524 241.774 36.4613 242.52 36.4757C243.274 36.4902 245.209 36.4906 245.277 36.4921C245.646 36.5008 242.262 36.5087 242.161 36.5139C242.108 36.5165 243.925 36.5324 243.978 36.537C244.024 36.5416 242.643 36.5517 242.098 36.5662C241.693 36.577 242.874 36.5853 242.666 36.587C242.518 36.5881 239.321 36.588 239.164 36.5899C238.929 36.5927 239.678 36.6056 239.569 36.6088C239.415 36.6134 238.382 36.6088 238.517 36.6136C238.618 36.6171 242.62 36.6616 242.594 36.6735C242.548 36.6938 238.31 36.6472 242.254 36.7272C242.282 36.7277 243.241 36.722 243.268 36.7225C243.861 36.7372 240.783 36.7599 244.546 36.7559C237.546 36.7815 243.675 36.7864 242.639 36.8206C242.239 36.8337 239.526 36.8391 239.513 36.8411C239.777 36.8577 240.641 36.8448 240.935 36.853C241.097 36.8575 238.669 36.8752 239.215 36.8866C239.498 36.8925 242.075 36.8904 242.182 36.8915C243.202 36.9024 241.951 36.914 242.175 36.9217C242.324 36.9269 243.879 36.9273 243.92 36.9282C243.985 36.9302 241.873 36.951 241.433 36.9584C241.099 36.964 242.354 36.9728 242.121 36.9753C240.715 36.99 237.724 36.9525 240.606 37.0051C240.782 37.0083 241.872 37.007 241.905 37.0076C242.578 37.0225 240.571 37.0238 240.212 37.036C239.595 37.057 242.48 37.0453 240.081 37.0601C241.881 37.0738 242.884 37.0733 244.99 37.0694C239.158 37.0801 237.1 37.1345 243.575 37.1331C241.515 37.1323 241.743 37.163 241.129 37.1635C240.747 37.1638 237.761 37.1333 239.13 37.2018C239.302 37.2104 241.116 37.1995 240.548 37.217C236.193 37.2125 240.455 37.2282 240.46 37.2305C240.403 37.2708 229.764 37.2378 227.936 37.2424C225.815 37.2477 223.93 37.2795 223.468 37.2795C221.951 37.2796 223.21 37.2634 222.871 37.2575C222.527 37.2516 218.213 37.2825 217.998 37.2808C217.162 37.274 218.01 37.2549 217.923 37.2539C216.889 37.2422 211.095 37.2572 209.473 37.2527C209.523 37.2651 212.78 37.2661 210.746 37.286C208.379 37.3093 208.243 37.2546 208.181 37.2522C197.333 37.2527 186.485 37.2532 175.637 37.2537C175.772 37.2828 182.865 37.2609 183.026 37.2647C183.973 37.2874 171.992 37.287 170.523 37.2767C171.639 37.283 172.756 37.2893 173.872 37.2956C171.966 37.329 167.746 37.2856 164.989 37.3003C164.098 37.3051 165.809 37.318 165.773 37.3189C164.772 37.3319 163.166 37.3219 164.367 37.3045C161.923 37.3212 162.28 37.3027 160.404 37.3013C160.307 37.3013 161.113 37.3148 159.629 37.3204C158.933 37.323 155.225 37.323 154.728 37.3348C154.524 37.3398 156.405 37.3922 156.637 37.3471C160.671 37.3691 157.926 37.3266 159.493 37.3276C159.734 37.3279 159.181 37.353 163.127 37.3412C162.375 37.3865 157.831 37.3526 157.052 37.3581C155.446 37.3694 162.066 37.3928 163.28 37.3575C162.713 37.3929 163.75 37.3622 165.225 37.3637C166.841 37.3653 166.137 37.3758 167.011 37.3759C169.401 37.3761 168.41 37.3511 170.381 37.3737C168.459 37.3039 173.754 37.3645 175.297 37.3827C172.786 37.3863 170.276 37.3898 167.766 37.3934C167.909 37.397 168.053 37.4007 168.196 37.4043C167.535 37.4038 166.874 37.4033 166.213 37.4028C166.319 37.3993 166.425 37.3958 166.531 37.3923C163.121 37.4151 162.289 37.3894 162.011 37.3891C158.432 37.3862 154.298 37.3864 150.68 37.3863C150.137 37.3863 150.51 37.4091 146.553 37.3912C145.291 37.3856 146.482 37.3678 145.052 37.3705C143.262 37.4187 143.296 37.3802 142.764 37.3802C141.237 37.3802 140.304 37.3921 140.162 37.3923C138.276 37.3941 135.513 37.3921 133.441 37.3939C133.402 37.3941 134.48 37.4089 133.134 37.4045C132.661 37.403 128.422 37.3397 124.715 37.3603C125.679 37.3646 126.643 37.3688 127.607 37.3731C126.474 37.3671 118.531 37.3831 120.473 37.4C121.664 37.4104 124.57 37.3696 124.889 37.4088C122.246 37.3971 107.648 37.4146 106.511 37.4055C106.354 37.4042 107.321 37.3915 107.104 37.3899C106.936 37.3886 103.592 37.3916 103.148 37.3868C102.884 37.3839 104.362 37.3761 104.242 37.3715C104.136 37.3682 99.9605 37.3628 99.7222 37.3787C100.748 37.3723 103.63 37.3779 102.118 37.3913C101.924 37.393 100.916 37.3827 100.68 37.3848C98.4884 37.4044 105.038 37.3997 106.052 37.3999C101.937 37.4202 95.5742 37.3962 90.8073 37.4095C88.881 37.3962 93.663 37.3892 91.4835 37.3782C86.9623 37.3554 90.2806 37.3965 90.1401 37.3982C89.0172 37.4116 85.1922 37.3398 85.1901 37.3945C83.5511 37.3862 84.0816 37.3793 81.7685 37.3865C82.0728 37.3903 82.3771 37.3941 82.6814 37.3978C80.1132 37.4295 74.6778 37.3496 75.0851 37.3435C76.1805 37.3272 79.0112 37.3527 79.2529 37.3521C79.6109 37.3512 80.6 37.2957 84.5162 37.3453C86.1197 37.3081 78.3092 37.3202 81.8631 37.2948C79.463 37.299 69.5888 37.2731 68.1674 37.2894C67.9978 37.2916 68.7878 37.3286 66.3484 37.3098C65.1903 37.3008 67.9828 37.3003 67.4529 37.2919C65.8223 37.266 43.6452 37.2826 39.4325 37.2839C39.1591 37.284 39.2594 37.2725 38.9907 37.2726C38.1654 37.2729 35.1574 37.2901 33.6801 37.2848C36.7408 37.3061 30.7967 37.3077 29.2846 37.3054C26.9897 37.3018 27.1317 37.2816 26.1402 37.2773C22.319 37.2607 16.3981 37.3087 13.4295 37.2638C13.4816 37.2781 12.9724 37.281 12.1771 37.2783C11.9273 37.2776 11.6976 37.0849 11.6563 36.8385C11.3795 35.1763 10.9122 32.2434 10.6381 30.6294C10.3221 28.7685 9.83404 26.0737 10.2433 28.5884C10.1325 27.934 10.02 27.2726 9.90688 26.6088L10.6818 26.9988C9.39765 27.6517 8.10391 28.311 6.84014 28.9551L7.10691 28.2912C7.49618 29.398 7.87787 30.4831 8.24285 31.5227C8.41021 31.9993 8.16795 31.3472 8.45391 32.1605C8.47997 32.2343 8.52783 32.3319 8.77368 33.0301C8.84301 33.2269 8.90879 33.4138 8.9712 33.5912C9.06051 33.8484 8.94222 34.1442 8.69877 34.2661C3.95396 36.6661 6.38559 35.4119 5.39593 35.9018C4.82258 36.1857 4.3999 36.3961 4.09013 36.5513C5.62632 35.776 7.27619 34.9427 8.68193 34.2327C8.90887 34.119 9.01914 33.8433 8.93589 33.6035C8.37759 32.014 7.92295 30.7197 7.73516 30.1839C7.85548 30.5643 8.34679 31.9701 8.92285 33.6081C9.00386 33.8414 8.89656 34.1097 8.67571 34.2203C6.58446 35.2777 4.09397 36.543 3.04685 37.0656C2.98363 37.0971 3.19632 36.9724 3.1322 37.0046C3.13086 37.0052 3.12951 37.0059 3.12817 37.0066C2.81952 37.1615 1.76269 37.695 0.781057 38.1928C0.276868 38.4464 -0.182639 37.8771 0.172402 37.4384C1.00758 36.3995 1.76378 35.4537 1.41112 35.8737C1.3154 35.9877 0.841004 36.5727 0.153425 37.423C-0.219092 37.8833 0.263032 38.4807 0.792037 38.2145C1.57859 37.8185 2.562 37.3225 3.61926 36.789C2.97916 37.1154 3.46618 36.8898 3.35332 36.9475C2.76315 37.249 1.80097 37.7326 0.801485 38.2333C0.251126 38.5102 -0.25046 37.8887 0.137094 37.4098C1.06735 36.2643 2.04462 35.0649 2.52353 34.4745C2.7159 34.2373 2.69337 34.2472 2.72483 34.2082C3.49075 33.2647 3.20239 33.6727 3.96015 32.6823C5.37475 30.9959 1.37226 35.8937 1.67271 35.5634C1.76249 35.4648 3.15202 33.7506 4.81366 31.6932L4.89918 32.4016C3.36869 31.2371 1.65264 29.9339 0.251581 28.8731C-0.022464 28.6633 -0.0351411 28.3158 0.225475 28.0896C1.75845 26.7447 2.88651 25.7497 2.8693 25.7509C2.90805 25.7216 3.05637 25.5978 3.3581 25.3409C4.02716 24.7712 6.97149 22.1979 7.47613 21.7498C7.56118 21.6741 7.50673 21.6808 7.61296 21.5878C7.71551 21.4979 8.31734 20.9774 9.09441 20.3037L8.91649 20.8027C8.64747 19.1888 8.27937 16.9944 8.08473 15.9157C8.24201 16.8668 8.39928 17.8179 8.55655 18.7689C7.5809 13.0298 7.72265 13.9184 8.03857 15.8321C8.05474 15.9277 8.06941 16.021 8.08481 16.1123C8.33 17.5955 8.64649 19.4968 8.649 19.526C8.65837 19.6363 6.99846 9.90012 7.34484 11.7682C7.39304 12.0286 8.14619 16.5358 7.78713 14.3018C7.72431 13.9109 7.22687 11.0186 7.20326 10.8663C7.04513 9.8469 8.1384 16.1616 8.02801 15.3857C7.74754 13.8558 7.42355 11.886 7.11953 10.1283C6.9812 9.32833 6.93263 9.13443 6.91556 9.03573C6.66084 7.56093 6.81748 8.38631 6.73337 7.89377C6.68818 7.62955 6.16018 4.72783 6.30026 5.26944C5.86808 2.7805 5.62784 1.40695 5.52656 0.840317C5.46762 0.488127 5.7009 0.210055 6.05798 0.210957C6.50733 0.207125 6.4577 0.204383 6.05798 0.202463C5.69527 0.201547 5.45832 0.484 5.51819 0.84174C5.69041 1.88545 6.27913 5.34542 6.81696 8.50147C6.48438 6.64751 5.87387 3.00551 5.59229 1.37256C5.53277 1.02748 5.52339 1.00708 5.49071 0.84641C5.42779 0.47046 5.67681 0.173628 6.05798 0.174591C6.17237 0.170895 6.35593 0.16746 6.76876 0.166161C8.8358 0.15966 18.7049 0.177812 21.276 0.182091C19.697 0.187675 20.1586 0.204888 21.3774 0.203699C22.5963 0.202501 21.5724 0.179526 21.8102 0.177056C22.065 0.174499 27.7833 0.185343 28.7347 0.182366C24.4297 0.190688 25.4009 0.207853 29.0548 0.20965C28.5265 0.214594 27.9984 0.219538 27.4701 0.224482C29.6118 0.217534 34.1144 0.243719 35.3526 0.235927C35.5468 0.234674 34.8491 0.220241 34.9582 0.219538C36.044 0.213406 39.7384 0.228125 39.9104 0.2232C40.0561 0.219101 38.4803 0.207001 39.0651 0.201044C39.1872 0.199789 40.7064 0.219298 42.2028 0.214502C42.7579 0.212738 42.4236 0.199088 42.5634 0.198297C43.729 0.191731 43.0411 0.214717 45.1714 0.211023C46.732 0.20829 47.8946 0.185818 50.0514 0.193261C42.9696 0.164615 48.9228 0.176581 51.884 0.1679C52.3586 0.166515 51.9518 0.141736 54.7872 0.153801C48.753 0.198606 56.5077 0.177483 58.094 0.177971C58.181 0.178124 58.2108 0.194465 58.9888 0.194726C59.0546 0.194712 58.9601 0.183669 59.6831 0.182824C66.5408 0.17484 62.1559 0.187315 63.4587 0.198205C64.0134 0.202846 67.3481 0.18723 68.2463 0.186852C68.4529 0.186813 68.3579 0.198288 69.157 0.197839C70.5706 0.197015 71.8372 0.1848 72.7702 0.183831C72.8791 0.183775 72.8836 0.20188 74.6524 0.196008C75.1497 0.194367 75.708 0.187938 75.0018 0.182732C72.6593 0.165611 68.2161 0.195243 65.5685 0.178155C63.1542 0.162592 70.7671 0.161124 71.1631 0.161034C71.3084 0.160977 69.8216 0.169967 71.3321 0.171746C72.622 0.173227 74.9795 0.141955 76.9019 0.148765C77.0485 0.14927 78.5844 0.175784 78.5136 0.177331C78.4494 0.17846 76.0905 0.184215 76.4331 0.191888C76.474 0.192762 77.9731 0.192584 78.1687 0.198297C78.4084 0.205251 79.0545 0.273493 79.3747 0.275204C80.1962 0.279431 79.6615 0.263867 80.1929 0.26495C81.3324 0.267233 85.2847 0.287414 85.4133 0.26376C84.7604 0.262356 84.1075 0.260952 83.4545 0.259548C87.0873 0.257115 85.5388 0.247047 86.0535 0.24261C86.6077 0.237811 86.4518 0.258602 87.6764 0.260555C87.9428 0.260985 93.0667 0.256644 92.9735 0.24792C90.1399 0.261805 91.1905 0.236111 91.0598 0.235652C90.5633 0.233978 89.9293 0.248391 89.2633 0.248103C84.5786 0.245848 89.3031 0.223099 88.1971 0.217249C87.8164 0.21528 87.058 0.227584 86.8965 0.226954C86.3716 0.224916 86.3631 0.208804 86.0129 0.210108C85.1959 0.213132 86.1497 0.23593 86.085 0.237117C85.355 0.251384 82.494 0.233632 84.275 0.208826C83.2059 0.199886 83.0806 0.230035 82.2328 0.217982C80.5473 0.194115 83.0724 0.200245 83.7566 0.196283C86.2108 0.181988 86.9388 0.193559 90.4129 0.189599C91.664 0.188202 93.1459 0.173557 93.7263 0.172753C94.0921 0.172247 97.5446 0.223201 97.6462 0.143455C98.9883 0.151171 101.094 0.203722 102.477 0.201318C103.718 0.199126 103.323 0.170914 103.439 0.169823C103.617 0.168108 105.118 0.170331 105.626 0.166344C106.221 0.161633 105.924 0.150865 106.868 0.146476C109.217 0.135584 109.155 0.164381 109.397 0.166252C112.2 0.187884 110.972 0.146924 111.594 0.143638C112.173 0.140619 120.287 0.156384 121.995 0.146018C121.3 0.151786 120.605 0.157554 119.91 0.163322C121.153 0.181284 122.472 0.151987 122.495 0.184197C122.747 0.132194 125.315 0.166955 126.086 0.165611C126.39 0.165058 126.366 0.156197 126.746 0.155815C128.232 0.154261 131.582 0.161315 132.388 0.156822C135.874 0.137477 126.961 0.105297 126.259 0.103353C127.664 0.103927 135.61 0.0922799 131.958 0.06728C131.393 0.0634228 130.393 0.0866945 130.076 0.0876055C127.929 0.0935971 129.617 0.0727425 129.449 0.0707591C129.163 0.0675575 127.75 0.087718 127.377 0.0853165C127.253 0.0845468 128.054 0.0656631 126.007 0.0652658C127.014 0.046959 132.767 0.061874 133.522 0.057575C133.791 0.0560399 132.105 0.0169219 137.029 0.0549199C136.972 0.0512882 136.915 0.0476564 136.858 0.0440247C139.6 0.0425293 142.341 0.0410339 145.083 0.0395384C144.785 0.0479056 143.246 0.0647116 145.185 0.0611457C146.301 0.059082 145.475 0.0404454 145.577 0.0399047C146.578 0.034775 164.307 0.0409767 167.743 0.0388976C168.912 0.0382227 172.17 0.023245 172.418 0.0229668C173.904 0.0214676 179.164 0.0312163 180.213 0.0291011C180.868 0.0277444 180.245 0.012165 180.83 0.0128956C181.375 0.0135964 180.811 0.0286543 180.972 0.0292842C182.311 0.0347407 192.479 0.0149909 194.894 0.0291926C193.418 0.0249292 186.054 0.0550139 186.202 0.065632C186.234 0.0670878 188.024 0.0785428 188.393 0.0729564C189.003 0.0859936 191.097 0.0462996 192.236 0.0540959C192.365 0.0549814 191.858 0.0772467 193.891 0.0812881C194.591 0.082669 196.425 0.0653136 198.27 0.0847672C200.942 0.0754198 214.99 0.104295 215.953 0.0803725C215.982 0.0791095 214.004 0.0708721 215.34 0.0610542C217.117 0.0480043 215.521 0.0919621 217.592 0.095754C217.904 0.0963308 223.665 0.0918824 223.854 0.0891619C225.599 0.0644915 220.565 0.0544912 220.635 0.0516239C220.811 0.0444021 224.994 0.0400328 225.164 0.0417358C225.325 0.0435076 221.914 0.0761964 226.013 0.0638009C225.544 0.0598944 225.074 0.0559881 224.605 0.0520816C226.532 0.0444737 226.716 0.0670887 227.183 0.0684702C228.635 0.0728441 230.206 0.0384931 232.532 0.0809219C233.147 0.092182 232.126 0.104686 232.203 0.106375C232.942 0.12153 233.885 0.0809875 234.996 0.111227C235.079 0.113482 232.494 0.131598 237.013 0.131644C236.702 0.128745 236.391 0.125845 236.08 0.122946C236.717 0.116473 241.293 0.112627 241.909 0.114157C243.707 0.118629 242.139 0.139442 243.947 0.136954C242.787 0.108432 248.284 0.104709 247.968 0.129264C248.418 0.11118 250.21 0.111881 252.058 0.115702C252.476 0.116758 252.752 0.440109 252.684 0.852328C252.471 2.13813 252.252 3.45115 252.105 4.34707C251.882 5.71387 251.439 8.50413 251.366 8.93816C251.278 9.46691 251.284 9.30275 251.123 10.2573C251.077 10.5295 250.627 13.3759 250.198 15.8686C250.115 16.3517 249.913 17.362 250.051 16.4613C250.288 14.9198 250.792 12.0129 250.765 12.0466C250.736 12.0866 250.108 16.0104 249.933 17.0655C249.123 21.9365 249.559 19.1186 249.531 19.2427C249.461 19.5649 249.026 22.2277 249.006 22.3385C248.924 22.7979 249.219 20.9088 249.213 20.8785C249.205 20.8419 248.76 23.4044 248.851 22.8201C248.981 21.9838 249.387 19.6285 249.411 19.4788C249.715 17.5299 249.247 20.1931 249.111 20.9259C249.07 21.148 249.207 20.2585 249.176 20.4431C248.693 23.2611 249.123 21.0452 248.812 22.9212C248.535 24.5949 248.866 22.4371 248.854 22.5009C248.839 22.5834 248.511 24.5852 248.452 24.8974C248.423 25.0512 249.233 19.8411 249.179 20.0554C248.912 21.7163 248.644 23.3772 248.377 25.0381C248.332 25.1644 248.74 22.7792 248.778 22.5318C248.854 22.0338 248.615 23.4183 248.618 23.3576C248.618 23.3249 248.867 21.6948 248.619 23.1637C248.534 23.6686 248.378 24.7317 248.06 26.5691C249.085 20.1614 248.346 24.5971 248.307 24.7845C248.268 24.968 248.748 21.9074 248.145 25.6191C248.072 25.7724 248.143 25.5367 248.307 24.4808C248.508 23.1874 248.005 26.1705 248.789 21.451C248.723 21.716 248.104 25.5112 248.07 25.7119C248.04 25.8851 248.167 25.0398 248.114 25.34C247.49 28.8907 247.909 26.4503 247.714 27.4763C247.696 27.5676 247.137 30.9285 247.551 28.3679C248.307 23.703 248.656 21.7589 248.718 20.9644C248.126 24.4094 247.485 28.596 247.314 29.6448C247.053 31.25 247.311 29.5851 247.275 29.7823C247.263 29.8508 247.038 31.2341 247.034 31.2525C246.822 32.2306 248.039 25.0949 248.398 22.8444C248.292 23.446 248.186 24.0476 248.08 24.6492C248.213 23.8313 248.347 23.0134 248.48 22.1954C247.828 26.0894 248.452 22.3319 248.57 21.3536C248.597 21.134 248.194 23.6964 248.646 20.7721C248.288 22.9249 248.392 22.2366 248.085 24.1886C248.076 24.1356 248.775 19.7449 249.05 18.0129C248.032 24.1237 248.662 20.647 247.766 25.9272C247.626 26.9106 248.035 24.3872 248.004 24.5935C247.896 25.3335 247.594 27.0606 247.295 29.1551C247.246 29.4961 247.502 28.0613 247.153 30.1895C247.115 30.4248 246.875 31.778 246.877 31.759C246.892 31.5769 247.117 30.2358 247.12 30.1794C247.122 30.1265 246.881 31.6243 246.879 31.6292C246.853 31.6723 247.076 30.3788 247.04 30.566C246.961 30.9703 246.043 36.3496 247.203 29.3228C246.269 35.1641 247.1 30.0734 247.464 27.7987C247.557 27.2186 247.57 27.07 247.702 26.2433C247.871 25.1798 248.079 23.9369 248.167 23.3867C248.262 22.795 247.687 26.1511 248.489 21.2924C248.06 23.7617 247.372 28.135 246.957 30.5617C246.121 35.4578 247.473 27.1369 247.611 26.2696C247.648 26.0386 247.507 26.8103 247.532 26.6563C247.571 26.4044 248.35 21.6837 248.414 21.2162C248.478 20.7499 248.132 22.9457 248.096 23.0895C248.071 23.187 248.987 17.4885 248.478 20.5711C248.126 22.6957 247.52 26.6186 247.376 27.2726C247.884 24.1466 248.392 21.0206 248.899 17.8947C248.606 19.6031 248.313 21.3115 248.019 23.02C248.589 19.5112 249.1 16.4811 249.625 13.1461C248.272 21.1451 250.015 10.5408 250.028 10.4233C250.032 10.3837 249.481 13.5292 249.391 14.0352C249.834 11.2405 251.214 2.75434 250.359 7.7114C250.516 6.81198 250.848 4.62593 250.842 4.65441C250.777 4.92833 250.012 9.6895 250.121 8.91043C250.248 8.00762 250.481 6.75171 250.705 5.36756C251.083 3.03272 251.291 1.67411 251.443 0.649399L252.058 1.3736C249.943 1.40641 249.241 1.44917 244.398 1.43824C244.541 1.4419 244.685 1.44557 244.828 1.44923C236.986 1.4434 229.144 1.43757 221.302 1.43174C218.234 1.46315 210.069 1.48228 206.058 1.4788C205.25 1.47813 201.286 1.46164 200.986 1.45875C200.432 1.45321 203.479 1.4511 202.102 1.44071C201.811 1.43858 195.099 1.43166 195.579 1.44923C196.331 1.45127 198.685 1.44243 199.07 1.44657C201.777 1.47613 181.083 1.45252 180.057 1.46443C180.516 1.47013 180.974 1.47584 181.432 1.48155C180.126 1.47874 178.821 1.47593 177.515 1.47313ZM237.52 0.0617866C238.304 0.0441542 240.268 0.0573973 241.429 0.0524479C243.032 0.0455168 245.758 -0.0223804 244.585 0.0456727C242.23 0.051044 239.875 0.0564153 237.52 0.0617866ZM203.105 0.03551C204.684 0.0449808 203.46 0.0829884 202.165 0.0671884C202.022 0.0653928 200.969 0.0227626 203.105 0.03551ZM219.659 0.0535465C219.593 0.0540499 218.228 0.0530439 218.18 0.0524479C216.957 0.0371877 221.071 0.0403067 219.659 0.0535465ZM139.691 0.0730481C141.431 0.0714073 140.171 0.0368554 139.09 0.0510746C139.022 0.0519774 139.577 0.0731287 139.691 0.0730481ZM140.929 0.0739636C142.28 0.104904 145.002 0.042197 142.838 0.048511C142.628 0.0491486 140.866 0.0724568 140.929 0.0739636ZM208.734 0.0506167C208.556 0.0624754 206.927 0.0567494 206.232 0.0539128C206.251 0.0430861 208.052 0.0519421 208.734 0.0506167ZM167.437 0.0539128C167.368 0.0632355 173.029 0.0627203 173.415 0.0504336C172.521 0.0556464 167.502 0.045535 167.437 0.0539128ZM152.918 0.0670053C153.062 0.068617 155.018 0.0661668 154.96 0.0579413C154.006 0.0471505 152.272 0.0597104 152.918 0.0670053ZM124.062 0.066456C123.955 0.0685223 125.42 0.120869 121.95 0.0864152C121.44 0.0813704 123.26 0.0676932 123.079 0.0658151C122.7 0.062152 122.4 0.0604445 122.159 0.0601386C123.776 0.0557999 125.455 0.0537588 125.617 0.0569341C126.38 0.0719308 124.109 0.0655936 124.062 0.066456ZM108.912 0.105459C108.579 0.113997 106.452 0.109432 105.968 0.105917C105.885 0.105255 106.247 0.0828145 105.29 0.0844926C104.521 0.0858779 105.669 0.108862 104.172 0.105184C102.658 0.101493 104.68 0.0851123 104.548 0.0839432C104.371 0.0824108 102.03 0.0927315 102.102 0.0793654C102.157 0.0694647 104.665 0.0761591 105.285 0.0740551C106.079 0.0713509 105.116 0.0548555 106.444 0.058399C107.278 0.0606121 106.816 0.0896191 106.992 0.0910846C107.139 0.0922655 110.055 0.0755721 108.908 0.105367C108.909 0.105398 108.911 0.105428 108.912 0.105459ZM121.722 0.0614204C121.844 0.0604402 121.986 0.0599191 122.159 0.0601386C122.012 0.0605324 121.866 0.0609897 121.722 0.0614204ZM232.958 0.0745129C232.137 0.0655666 234.574 0.0540953 235.496 0.0658151C235.512 0.0752664 233.089 0.0759056 232.958 0.0745129ZM120.223 0.0850419C117.822 0.0777752 119.588 0.0677812 121.722 0.0614204C121.044 0.0668803 121.029 0.0874692 120.223 0.0850419ZM188.393 0.0729564C188.292 0.070793 188.227 0.0674199 188.219 0.0618781C188.485 0.0679392 188.509 0.0711945 188.393 0.0729564ZM182.792 0.0630684C180.871 0.079949 184.773 0.0792677 184.748 0.0671884C184.736 0.0626285 182.868 0.0623971 182.792 0.0630684ZM137.46 0.0714C137.635 0.073052 134.907 0.124025 138.869 0.0857744C136.754 0.0797669 138.985 0.0742159 138.952 0.069752C138.866 0.0569218 135.314 0.0692546 134.527 0.0637093C133.911 0.086665 136.88 0.0659574 137.455 0.0714C137.457 0.0714 137.458 0.0714 137.46 0.0714ZM81.6085 0.0930988C82.0897 0.0796473 83.6166 0.0839754 84.6469 0.0847672C84.1656 0.0982187 82.6388 0.0938907 81.6085 0.0930988ZM131.827 37.4088C124.767 37.4213 123.852 37.3665 130.312 37.3881C130.439 37.3886 132.255 37.4033 131.827 37.4088ZM71.2374 37.3946C70.5722 37.3708 72.7737 37.3669 74.2196 37.3768C74.5468 37.379 75.7565 37.4032 74.3751 37.4079C74.4192 37.379 72.2828 37.3679 71.2374 37.3946ZM118.866 0.100332C118.167 0.116254 116.015 0.10492 114.881 0.102529C115.573 0.0894195 117.863 0.0953483 118.866 0.100332ZM108.628 37.3803C107.884 37.3785 107.381 37.3992 107.51 37.401C108.085 37.4089 109.476 37.3921 108.628 37.3803ZM125.813 0.102804C125.911 0.112318 123.061 0.121477 122.862 0.0979513C123.472 0.0996535 125.742 0.0968332 125.813 0.102804ZM83.5515 0.10024C83.9939 0.105078 81.7021 0.113739 81.0089 0.108938C81.0646 0.0988114 83.2613 0.0970957 83.5515 0.10024ZM96.6476 37.3873C95.9812 37.3855 94.3165 37.385 94.132 37.3934C93.9031 37.4038 96.3442 37.4003 96.6476 37.3873ZM220.635 37.3692C220.719 37.373 218.141 37.4001 216.995 37.3933C214.818 37.3801 220.544 37.3665 220.635 37.3692ZM115.672 37.3695C117.773 37.3893 115.44 37.3702 115.532 37.391C116.946 37.3917 120.464 37.3927 118.046 37.3723C117.574 37.3683 116.331 37.3709 115.672 37.3695ZM113.733 37.3626C113.508 37.3693 111.994 37.3906 113.303 37.389C113.908 37.3883 114.884 37.3647 113.733 37.3626ZM204.66 37.3784C202.777 37.36 211.411 37.3699 211.659 37.3731C211.791 37.3748 211.876 37.3764 211.925 37.3778C212.242 37.3719 213.873 37.3709 214.062 37.3857C213.573 37.3844 212.238 37.3857 212.083 37.3841C212.016 37.3834 211.966 37.3828 211.932 37.3821C211.357 37.3949 205.021 37.3819 204.66 37.3784ZM190.354 37.3595C192.509 37.3323 192.891 37.3785 192.705 37.38C190.359 37.3989 191.889 37.3648 191.817 37.3632C191.653 37.3606 189.986 37.3764 190.361 37.3595C190.358 37.3595 190.356 37.3595 190.354 37.3595ZM201.728 37.3708C201.817 37.3702 203.626 37.3717 203.7 37.3724C205.183 37.3879 200.063 37.3839 201.728 37.3708ZM97.4929 0.137778C96.1974 0.133187 97.4682 0.116194 98.3292 0.122305C98.3999 0.122908 98.6357 0.141835 97.4929 0.137778ZM112.699 37.3672C112.398 37.364 104.715 37.3518 105.177 37.3775C105.829 37.3745 114.563 37.3877 112.699 37.3672ZM55.2809 37.3609C56.6358 37.3611 55.1585 37.3853 54.4356 37.3763C54.1676 37.373 54.9393 37.3609 55.2809 37.3609ZM129.656 0.124777C131.063 0.111479 130.772 0.156092 129.553 0.1408C129.505 0.140201 129.601 0.125297 129.656 0.124777ZM66.1049 37.3749C61.4323 37.3895 62.5388 37.3128 68.6137 37.3387C68.4236 37.3421 68.2335 37.3455 68.0434 37.3489C75.0552 37.3605 68.523 37.3544 66.8059 37.3587C66.1535 37.3603 66.7005 37.3731 66.1094 37.3749C66.1079 37.3749 66.1064 37.3749 66.1049 37.3749ZM48.1557 37.3595C43.6558 37.305 52.2465 37.3405 54.7106 37.3334C52.3219 37.3559 49.2118 37.3525 53.4415 37.3755C47.2572 37.38 49.8317 37.3583 49.5848 37.3565C49.2926 37.3544 48.3476 37.3618 48.1557 37.3595ZM60.0257 37.3591C60.2857 37.3575 62.2456 37.3686 62.9515 37.3668C61.9643 37.3854 58.2987 37.3699 60.0257 37.3591ZM175.355 37.3721C175.518 37.3575 175.92 37.3468 177.467 37.3522C176.989 37.3596 176.002 37.3659 175.355 37.3721ZM239.008 0.138511C240.073 0.139556 242.194 0.14505 241.544 0.129721C241.473 0.128415 239.011 0.129907 239.008 0.138511ZM90.3835 37.3554C90.1569 37.3536 84.2981 37.3524 86.3217 37.3684C86.932 37.3733 92.2628 37.3712 90.3835 37.3554ZM120.723 37.3572C120.233 37.357 118.241 37.3598 118.199 37.3632C118.064 37.3751 120.509 37.3686 120.723 37.3572ZM244.382 0.153434C244.522 0.154947 247.776 0.152267 247.418 0.145194C246.739 0.131818 243.901 0.148224 244.382 0.153434ZM92.7796 0.171929C92.5076 0.172468 92.148 0.156632 92.0538 0.156456C91.8327 0.15623 86.854 0.162321 88.7561 0.14199C89.0734 0.138583 96.2366 0.14639 97.1683 0.148399C97.5286 0.170138 94.4688 0.149458 93.7241 0.151695C93.5929 0.15212 93.5089 0.170307 92.7819 0.171837C92.7812 0.171868 92.7804 0.171898 92.7796 0.171929ZM183.414 37.3567C183.633 37.3429 189.486 37.3338 189.418 37.3505C187.417 37.3526 185.415 37.3547 183.414 37.3567ZM180.44 37.3544C179.192 37.3447 182.116 37.3414 182.979 37.3457C182.988 37.355 180.622 37.3559 180.44 37.3544ZM109.622 37.3055C109.034 37.3089 110.843 37.3291 110.438 37.333C110.179 37.3355 108.865 37.3279 108.445 37.3342C108.327 37.3362 109.667 37.3552 110.055 37.3543C110.606 37.3533 110.071 37.3383 110.672 37.3382C112.668 37.3379 114.437 37.3486 116.308 37.3483C116.477 37.3483 115.166 37.3377 116.607 37.3379C116.83 37.3379 118.168 37.3536 119.892 37.3512C123.698 37.3026 126.493 37.3504 131.324 37.3328C131.142 37.3283 127.529 37.316 127.317 37.3155C123.279 37.3075 116.045 37.3067 111.815 37.3066C110.73 37.3065 111.257 37.3168 110.79 37.3172C110.42 37.3175 110.859 37.2984 109.622 37.3055ZM238.442 0.14904C238.95 0.168062 240.731 0.156022 241.868 0.157005C241.468 0.139846 239.554 0.153255 238.442 0.14904ZM154.163 37.3397C153.592 37.3404 151.825 37.3347 151.679 37.3404C151.49 37.3479 154.042 37.3526 154.163 37.3397ZM64.7074 0.166527C64.6523 0.167046 63.2806 0.166027 63.2287 0.165428C62.0032 0.150161 66.1176 0.153289 64.7074 0.166527ZM31.8949 0.162865C30.8548 0.165213 29.8055 0.171157 29.456 0.155723C30.1188 0.158087 32.0168 0.152115 31.8949 0.162865ZM8.73537 20.0052C8.7295 19.9267 8.79401 20.2887 8.88301 20.8084L9.07208 20.2781C8.38218 20.8816 7.32444 21.7969 7.04081 22.0429C7.15105 21.9384 8.31362 20.9146 9.06025 20.2646L8.86527 20.8114C8.79216 20.3784 8.73906 20.0537 8.73537 20.0052ZM175.13 37.3087C177.044 37.3099 176.64 37.2792 177.855 37.2931C178.053 37.2954 178.694 37.3592 176.591 37.3353C176.212 37.331 177.693 37.3159 175.13 37.3087ZM69.6032 37.3393C70.09 37.326 71.6114 37.3299 72.6395 37.331C72.409 37.3409 70.3346 37.3384 69.6032 37.3393ZM250.258 0.168724C250.576 0.175402 251.3 0.177965 252.058 0.177937C252.435 0.178889 252.684 0.470514 252.623 0.842288C252.399 2.209 252.166 3.68838 252.281 3.0351C252.295 2.95347 252.47 1.87033 252.635 0.844298C252.698 0.464425 252.443 0.166447 252.058 0.165474C251.267 0.167351 250.51 0.169033 250.258 0.168724ZM113.999 0.161308C112.293 0.176173 115.828 0.180777 116.943 0.166252C116.438 0.167204 114.115 0.16033 113.999 0.161308ZM6.92432 9.28346C6.93865 9.36412 7.24041 11.1482 7.25325 11.2282C7.48641 12.6927 6.63249 7.64452 6.92432 9.28346ZM42.6851 0.187402C42.0332 0.199634 37.7469 0.189764 36.7862 0.177514C37.7107 0.159627 43.4942 0.172123 42.6851 0.187402ZM167.254 37.3174C168.62 37.3167 169.915 37.3205 171.169 37.3258C170.906 37.3361 167.398 37.3251 167.254 37.3174ZM8.03857 15.8321C8.05474 15.9277 8.06941 16.021 8.08481 16.1123C8.06904 16.0169 8.05365 15.9234 8.03857 15.8321ZM136.691 37.3101C135.547 37.3061 135.784 37.3249 135.855 37.3255C136.716 37.3316 137.987 37.3147 136.691 37.3101ZM239.75 0.177056C240.146 0.194086 242.071 0.180877 243.178 0.18493C242.857 0.171479 240.641 0.175269 239.75 0.177056ZM43.3365 37.3246C41.8987 37.3061 47.7482 37.2847 48.9807 37.2966C49.0718 37.308 43.547 37.3271 43.3365 37.3246ZM119.299 0.186852C119.414 0.200197 121.87 0.184093 121.348 0.177788C121.017 0.173776 119.23 0.178562 119.299 0.186852ZM51.9223 37.3044C52.4718 37.3003 53.7528 37.3135 53.3018 37.3215C52.7228 37.3318 51.7803 37.3055 51.9223 37.3044ZM101.23 37.2936C100.99 37.2916 97.7583 37.3053 99.0933 37.3189C100.02 37.3284 100.167 37.3091 100.385 37.309C100.628 37.3091 105.816 37.3327 101.23 37.2936ZM11.3538 35.2657C11.4398 35.7594 11.5313 36.2959 11.624 36.844C11.6678 37.1057 11.9118 37.3104 12.1771 37.311C12.9735 37.3117 13.7938 37.3136 14.5453 37.3134C14.2467 37.3182 13.1526 37.3209 12.1771 37.3203C11.9074 37.3197 11.6594 37.1116 11.6149 36.8456C11.4941 36.1329 11.3862 35.4841 11.3538 35.2657ZM109.827 0.190423C110.123 0.19582 118.19 0.19907 113.607 0.182458C113.34 0.181519 108.928 0.174079 109.827 0.190423ZM175.13 37.3087C174.889 37.3085 174.61 37.3079 174.287 37.3066C174.608 37.3071 174.887 37.308 175.13 37.3087ZM153.392 37.3066C153.832 37.2969 151.612 37.2943 150.957 37.2995C150.755 37.3114 153.331 37.308 153.392 37.3066ZM14.6422 37.2999C15.3774 37.2943 16.7118 37.3002 17.6221 37.2996C17.468 37.3086 14.9601 37.309 14.6422 37.2999ZM5.32558 23.5947C4.22197 24.5505 2.86987 25.7335 2.85627 25.76C2.83229 25.7786 2.77771 25.8238 2.68797 25.8997C2.59731 25.9764 1.42219 27.0085 0.907679 27.4524C-2.17243 30.11 12.7365 17.1142 4.11944 24.674C4.52149 24.3143 4.92353 23.9545 5.32558 23.5947ZM48.4849 0.213404C49.3135 0.226851 51.6342 0.210001 51.032 0.204706C50.6125 0.201078 47.6553 0.199865 48.4849 0.213404ZM16.5988 0.221369C16.8464 0.223769 19.1124 0.214351 19.1707 0.207269C17.8681 0.199807 15.4704 0.21022 16.5988 0.221369ZM54.8549 0.229151C55.3749 0.23118 56.0385 0.209497 55.9774 0.208551C55.4488 0.200636 53.9814 0.217078 54.8549 0.229151ZM171.165 37.2502C170.391 37.244 167.924 37.2597 167.387 37.2741C167.287 37.2713 167.018 37.2677 166.524 37.2633C166.525 37.2633 166.527 37.2633 166.528 37.2633C165.862 37.2576 145.924 37.2512 159.297 37.2788C159.716 37.2797 159.144 37.2668 160.848 37.2691C160.961 37.2693 161.017 37.2798 161.364 37.2803C162.165 37.2814 166.427 37.288 167.283 37.2795C167.291 37.2815 167.346 37.2833 167.464 37.285C168.514 37.3002 171.765 37.255 171.165 37.2502ZM12.1064 0.223292C12.5623 0.22718 14.0058 0.223488 14.1554 0.214228C13.4395 0.209689 11.0481 0.214221 12.1064 0.223292ZM110.077 0.228419C111.006 0.236035 113.361 0.221797 112.649 0.214228C112.213 0.209572 109.006 0.219675 110.077 0.228419ZM26.564 0.218348C21.2369 0.207401 25.2926 0.219233 24.4767 0.232814C25.1725 0.227992 25.8683 0.22317 26.564 0.218348ZM195.82 37.2853C194.971 37.2822 195.969 37.2554 196.904 37.2699C197.198 37.2746 196.295 37.287 195.82 37.2853ZM234.178 37.277C233.453 37.2532 236.993 37.2672 235.613 37.2835C235.549 37.284 234.229 37.2779 234.178 37.277ZM207.374 37.2673C206.798 37.2835 206.422 37.2854 204.798 37.2814C207.203 37.2768 204.972 37.2625 207.374 37.2673ZM2.8693 25.7509C2.86182 25.7566 2.85553 25.7614 2.85627 25.76C2.86455 25.7536 2.86834 25.751 2.8693 25.7509ZM59.8634 0.22494C60.5302 0.238645 62.3992 0.237636 61.8425 0.223841C61.7887 0.222564 60.1367 0.214813 59.8634 0.22494ZM167.387 37.2741C167.476 37.2765 167.431 37.2781 167.283 37.2795C167.277 37.2777 167.315 37.276 167.387 37.2741ZM49.8283 0.23611C49.895 0.225884 47.0504 0.221908 46.9363 0.223109C45.3038 0.240842 48.6537 0.236725 49.8283 0.23611ZM128.885 0.242793C129.032 0.241726 128.086 0.215331 127.506 0.225672C127.057 0.233696 128.336 0.246854 128.885 0.242793ZM212.89 37.2607C213.791 37.2607 215.059 37.2607 215.293 37.2732C214.689 37.2713 212.871 37.2699 212.89 37.2607ZM232.791 37.2598C231.727 37.2745 229.295 37.2745 227.742 37.272C227.714 37.2526 231.792 37.2643 232.791 37.2598ZM173.608 37.2575C173.534 37.2567 171.276 37.2509 171.584 37.2639C172.035 37.2829 174.246 37.2645 173.608 37.2575ZM124.499 0.228785C123.489 0.237729 125.813 0.265216 126.879 0.243983C127.427 0.233111 124.669 0.227287 124.499 0.228785ZM65.6992 0.242885C67.0323 0.235369 63.7285 0.221981 63.2671 0.23556C63.881 0.23665 65.2257 0.245546 65.6992 0.242885ZM20.345 0.256618C24.5455 0.295783 22.2577 0.224335 21.5126 0.230616C21.4076 0.231513 20.2423 0.255697 20.345 0.256618ZM251.163 9.34119C251.073 9.92893 251.45 7.74419 251.483 7.45896C251.504 7.28271 251.221 8.96531 251.163 9.34119ZM4.09013 36.5513C3.93182 36.6312 3.77474 36.7105 3.61926 36.789C3.7356 36.7297 3.88893 36.6522 4.09013 36.5513ZM77.7991 0.295346C74.8422 0.240049 75.1527 0.282669 74.8958 0.282437C74.3406 0.281842 73.0502 0.26689 72.0039 0.269345C73.2023 0.263119 74.4007 0.256893 75.5991 0.250667C74.6525 0.246675 66.4284 0.226319 66.256 0.235286C66.0091 0.248055 68.5969 0.244049 68.6723 0.245174C68.7809 0.246776 69.1852 0.282277 69.4252 0.283627C69.8201 0.285785 76.6969 0.286521 77.7991 0.295346ZM29.1291 0.250484C28.4537 0.246264 28.2618 0.232198 27.948 0.23556C27.8411 0.236711 27.8239 0.250127 27.4589 0.253597C28.0157 0.252559 28.5724 0.251522 29.1291 0.250484ZM83.0939 0.245631C83.9309 0.262025 80.178 0.2558 80.0576 0.253963C79.4157 0.242851 82.4099 0.232239 83.0939 0.245631ZM51.2484 0.248012C51.3854 0.248969 54.2672 0.254087 54.244 0.244991C53.4816 0.238056 49.6283 0.236036 51.2484 0.248012ZM27.0081 0.254512C25.9955 0.252948 24.0814 0.239438 24.3009 0.25964C24.3024 0.25964 24.3039 0.25964 24.3054 0.25964C25.2063 0.257931 26.1072 0.256221 27.0081 0.254512ZM121.041 0.27145C122.918 0.303625 122.029 0.26297 120.367 0.25259C119.864 0.267035 120.734 0.266215 121.041 0.27145ZM127.046 0.295438C127.568 0.301228 132.948 0.294884 132.127 0.277859C131.835 0.271792 128.742 0.287093 128.599 0.285916C128.383 0.284172 129.37 0.265338 127.72 0.26907C127.816 0.275452 126.867 0.293504 127.046 0.295438ZM122.594 0.29205C124.459 0.316519 124.878 0.27139 123.476 0.271267C122.928 0.271188 122.328 0.28852 122.594 0.29205ZM114.978 0.288205C115.649 0.292485 117.436 0.298728 118.668 0.283719C117.019 0.282437 115.371 0.281155 113.722 0.279873C113.532 0.288376 114.391 0.284444 114.982 0.288205C114.981 0.288205 114.979 0.288205 114.978 0.288205ZM243.996 37.1441C242.515 37.1313 245.928 37.1264 246.072 37.1296C246.501 37.14 244.659 37.1498 243.996 37.1441ZM248.892 20.6959C248.82 21.1013 248.76 21.3642 248.623 22.2598C248.782 21.3624 248.941 20.4649 249.101 19.5675C249.187 18.8639 248.97 20.2527 248.892 20.6959ZM248.228 24.1138C248.248 23.9867 248.091 24.6737 248.389 23.0369C248.589 21.931 247.622 27.9652 247.425 29.0508C247.613 27.8464 248.055 25.2085 248.228 24.1138ZM246.315 34.6477C246.3 34.7167 246.669 32.4245 246.715 32.1597C246.955 30.7692 246.394 34.2745 246.315 34.6477ZM247.518 27.3392C247.334 28.4124 247.717 26.031 247.838 25.3223C247.857 25.2548 247.546 27.1734 247.518 27.3392ZM228.993 36.5118C227.815 36.4822 226.761 36.546 228.574 36.5332C228.66 36.5326 229.043 36.5133 228.993 36.5118ZM246.637 32.4005C246.821 31.3273 246.438 33.7087 246.317 34.4174C246.298 34.4821 246.609 32.5639 246.637 32.4005ZM228.164 36.4412C226.599 36.4198 227.15 36.4915 227.345 36.4944C228.151 36.5058 230.913 36.4776 231.477 36.4706C227.343 36.4814 228.9 36.4512 228.164 36.4412ZM220.946 36.4842C219.494 36.4918 223.204 36.5065 223.913 36.4865C223.191 36.4874 221.359 36.482 220.946 36.4842ZM212.135 36.4612C211.354 36.4587 209.033 36.4525 208.643 36.4638C209.496 36.4617 211.806 36.4728 212.135 36.4612ZM210.368 36.4274C209.148 36.4121 208.855 36.4567 210.262 36.4435C210.317 36.4429 210.413 36.4283 210.368 36.4274ZM203.509 36.4113C202.708 36.3936 201.795 36.4368 203.092 36.438C203.477 36.4382 203.593 36.4134 203.509 36.4113ZM226.205 36.3641C225.059 36.3565 223.582 36.3874 226.029 36.3908C225.17 36.3955 224.31 36.4003 223.45 36.405C226.656 36.4224 226.421 36.3794 227.341 36.3812C228.627 36.3837 228.526 36.4191 228.267 36.4303C229.322 36.4086 233.802 36.4082 236.391 36.4041C234.116 36.395 230.423 36.3792 228.177 36.3734C227.536 36.3717 226.914 36.3815 226.367 36.3804C225.491 36.3786 226.269 36.3646 226.209 36.3641C226.208 36.3641 226.206 36.3641 226.205 36.3641ZM194.492 36.4107C192.14 36.3906 193.627 36.434 194.957 36.4262C195.014 36.4256 194.551 36.4112 194.492 36.4107ZM246.004 35.458C246.529 32.3589 246.184 34.6176 247.209 28.1224C246.788 30.8528 247.202 28.2761 247.126 28.81C247.064 29.2382 246.796 30.8367 246.964 29.9096C246.747 31.1288 245.884 36.4358 245.843 36.6718C245.843 36.6696 245.843 36.6674 245.844 36.6652C245.819 36.807 245.836 36.4469 246.004 35.458ZM212.124 36.3477C211.339 36.295 211.031 36.3786 209.489 36.335C207.435 36.3984 215.162 36.335 216.098 36.3885C207.706 36.3823 221.642 36.4416 215.784 36.3614C220.61 36.3905 217.366 36.3515 218.111 36.3413C218.907 36.3304 221.637 36.3422 221.498 36.3226C221.497 36.3226 221.495 36.3226 221.494 36.3226C219.824 36.324 218.155 36.3253 216.485 36.3267C218.119 36.369 214.708 36.3564 213.551 36.3219C213.075 36.3305 212.599 36.3391 212.124 36.3477ZM221.573 36.3874C221.408 36.3865 217.777 36.3924 218.011 36.4009C218.496 36.4063 223.65 36.3998 221.573 36.3874ZM237.554 36.3782C236.25 36.3781 234.234 36.3698 233.524 36.3858C234.828 36.3859 236.844 36.3941 237.554 36.3782ZM170.417 36.3752C168.755 36.3883 173.871 36.3921 172.391 36.3766C172.318 36.3759 170.498 36.3745 170.417 36.3752ZM208.344 36.3557C206.654 36.3396 207.453 36.3908 208.704 36.3774C208.777 36.3767 208.422 36.3564 208.344 36.3557ZM246.409 32.9432C246.414 32.8297 247.159 28.3304 247.289 27.5325C247.227 27.9877 246.402 33.0735 246.409 32.9432ZM239.849 36.3312C237.254 36.2861 233.734 36.3382 233.348 36.3371C232.964 36.3359 233.566 36.3162 233.479 36.3156C233.279 36.3145 229.191 36.3162 228.993 36.3176C228.852 36.3186 229.591 36.3464 228.747 36.3551C230.394 36.3393 237.868 36.3492 238.255 36.3461C238.556 36.3437 236.291 36.3146 239.844 36.3312C239.846 36.3312 239.847 36.3312 239.849 36.3312ZM232.383 36.331C233.405 36.3426 230.541 36.3441 229.847 36.3398C228.307 36.3302 232.252 36.3296 232.383 36.331ZM225.495 36.3203C225.168 36.3177 222.216 36.3153 221.965 36.3283C223.362 36.3451 226.237 36.3264 225.495 36.3203ZM192.649 36.3221C191.882 36.3237 189.774 36.3138 189.653 36.3251C190.42 36.3234 192.528 36.3334 192.649 36.3221ZM248.821 17.5713C248.607 18.8267 249.079 15.9139 249.222 15.065C249.237 15.0201 248.84 17.4644 248.821 17.5713ZM208.057 36.2475C207.604 36.2441 198.343 36.2527 197.044 36.258C198.315 36.2665 207.492 36.2672 207.909 36.263C208.03 36.2617 208.115 36.2481 208.057 36.2475ZM228.085 36.2423C228.934 36.2257 229.488 36.2456 229.595 36.2459C230.645 36.2484 232.822 36.2447 232.345 36.2607C230.492 36.2542 226.395 36.2754 228.085 36.2423ZM191.99 36.2467C188.846 36.2529 194.886 36.2704 194.093 36.253C194.042 36.252 192.316 36.2461 191.99 36.2467ZM209.092 36.2427C209.786 36.2292 219.049 36.2408 220.536 36.2408C219.204 36.2657 218.13 36.2468 216.341 36.2481C215.858 36.2484 215.987 36.2588 215.935 36.2588C215.099 36.2593 215.725 36.2473 215.21 36.2472C214.884 36.2471 208.116 36.2616 209.092 36.2427ZM228.569 36.2308C229.087 36.2212 234.871 36.2172 235.104 36.2197C236.845 36.2386 229.019 36.2341 228.569 36.2308ZM208.242 36.2206C209.238 36.1918 213.839 36.2111 210.69 36.2255C210.389 36.2268 209.116 36.2143 208.242 36.2206ZM192.326 36.2192C192.171 36.2184 188.894 36.2126 188.835 36.2218C189.308 36.2254 194.087 36.2286 192.326 36.2192ZM194.026 36.1882C193.947 36.1884 194.715 36.2061 193.178 36.2039C193.05 36.2036 192.811 36.1838 190.879 36.191C190.487 36.1925 189.879 36.2057 189.923 36.2065C191.935 36.2377 197.995 36.1779 194.026 36.1882ZM228.675 36.2147C228.364 36.2063 229.115 36.1813 229.793 36.194C230.084 36.1994 229.542 36.2144 228.675 36.2147ZM181.93 36.2112C183.836 36.1961 177.853 36.1932 177.549 36.1971C177.741 36.2065 181.74 36.2127 181.93 36.2112ZM249.187 14.6094C249.187 14.6109 249.187 14.6124 249.187 14.6138C249.449 13.0322 249.301 14.0143 249.313 13.9402C249.882 10.5732 249.708 11.4624 249.791 10.9349C249.969 9.80374 249.973 9.99139 250.27 8.08292C249.776 11.2372 250.236 8.36769 250.263 8.28043C250.37 7.93542 249.554 12.4717 249.308 14.0444C249.273 14.2635 249.553 12.65 249.466 13.2115C249.183 15.0372 248.182 20.6782 249.187 14.6094ZM230.316 36.1918C231.06 36.177 236.701 36.1913 235.205 36.2035C234.965 36.2054 229.223 36.2133 230.316 36.1918ZM3.21341 26.9236C2.20021 27.8246 4.57777 25.7701 5.01023 25.3796C5.22475 25.1858 3.65846 26.5279 3.21341 26.9236ZM7.85661 7.54511C7.58412 5.95724 7.24704 4.29186 7.59101 6.26643C7.62758 6.47626 7.88027 7.7284 7.85661 7.54511ZM50.5496 36.1427C48.8674 36.1236 48.9675 36.159 50.2024 36.1585C50.6385 36.1584 50.6026 36.1433 50.5496 36.1427ZM3.24529 35.7211C3.09432 35.7958 1.35859 36.6729 1.42562 36.6482C2.06981 36.3291 4.22151 35.2388 3.24529 35.7211ZM51.0838 36.1377C50.0863 36.144 51.8031 36.1696 53.0223 36.1446C52.4031 36.1467 51.1864 36.137 51.0838 36.1377ZM204.766 36.1424C203.931 36.1569 201.568 36.1526 200.211 36.1551C200.065 36.1362 203.797 36.1458 204.766 36.1424ZM8.98134 14.2909C8.71273 12.7895 9.24948 16.0126 9.21655 15.7142C9.21051 15.673 8.99196 14.35 8.98134 14.2909ZM104.823 36.1357C103.715 36.147 107.235 36.1621 106.266 36.1423C106.218 36.1415 104.884 36.1351 104.823 36.1357ZM120.194 36.1422C119.353 36.1384 115.766 36.1396 117.162 36.1506C117.379 36.1522 120.131 36.1525 120.194 36.1422ZM249.793 10.8393C249.701 11.2834 250.13 8.68816 250.194 8.31706C250.219 8.17128 249.913 10.26 249.793 10.8393ZM39.6241 36.1397C38.7537 36.1421 36.4962 36.1375 36.0987 36.1476C37.1635 36.1455 39.9103 36.1599 39.6241 36.1397ZM9.4432 21.5323C9.5723 21.4232 9.71262 21.3039 9.85833 21.1793C9.99314 21.0611 10.0925 20.7847 10.062 20.608C9.85473 19.3096 9.57101 17.6678 9.62943 18.1545C10.0255 20.4749 9.6533 18.1638 10.0577 20.6087C10.088 20.7842 9.98932 21.0586 9.85546 21.176C9.73402 21.281 9.59725 21.3992 9.4432 21.5323ZM56.6897 36.115C55.9916 36.1134 55.4568 36.1398 55.5356 36.141C56.2919 36.1529 57.3832 36.1253 56.6897 36.115ZM11.4636 28.8931C11.4679 28.8515 11.0879 26.6466 11.1308 26.9422C11.1448 27.0392 11.46 28.9267 11.4636 28.8931ZM175.463 36.136C174.438 36.1257 177.569 36.1157 178.495 36.1277C178.945 36.145 175.593 36.1372 175.463 36.136ZM76.0454 36.1216C76.1495 36.1049 72.6523 36.1144 74.0302 36.1282C74.3752 36.1317 76.0089 36.1272 76.0454 36.1216ZM109.525 36.1016C107.179 36.1215 117.03 36.1357 114.441 36.1108C114.256 36.1091 109.729 36.0999 109.525 36.1016ZM125.612 36.114C125.208 36.1118 125.409 36.0557 127.084 36.0773C127.304 36.0801 126.276 36.095 126.455 36.0984C126.561 36.1003 130.203 36.1082 130.371 36.1069C130.551 36.1054 130.339 36.0874 130.522 36.0854C130.728 36.0831 132.97 36.0989 134.144 36.0991C136.357 36.0994 136.596 36.0844 136.777 36.0844C137.305 36.0843 138.194 36.0949 139.265 36.0949C144.666 36.0948 152.926 36.0821 157.208 36.1139C153.398 36.1011 149.767 36.1146 145.976 36.1188C147.086 36.0875 140.398 36.1429 144.31 36.1068C142.509 36.1146 126.939 36.1209 125.617 36.114C125.615 36.114 125.614 36.114 125.612 36.114ZM6.80673 1.27363C6.8685 1.59879 6.81403 1.25568 6.71063 0.639082L6.05798 1.412C7.30277 1.41473 9.64888 1.40788 9.93572 1.39311C9.4297 1.39078 7.18213 1.3949 6.05798 1.398L6.69682 0.641428C6.75897 1.00112 6.80117 1.24407 6.80673 1.27363ZM7.02877 23.7502C6.67555 24.0628 6.36295 24.3853 4.48691 25.9969C4.48521 25.9984 4.48351 25.9999 4.48182 26.0014C3.9333 26.4726 4.54814 25.924 4.44624 26.0086C4.40898 26.0393 2.69741 27.5079 4.10672 26.2743C6.25602 24.3929 4.32771 26.1185 5.4756 25.1175C5.6159 24.9951 7.77452 23.0848 7.64527 23.1917C7.63187 23.2027 6.98119 23.7761 6.87204 23.8689C6.45983 24.2193 6.65056 24.0373 6.59274 24.087C6.40377 24.25 2.98222 27.2618 2.47129 27.6845C2.30529 27.8219 7.93434 22.8933 8.15594 22.7038C8.29608 22.584 8.25888 22.6596 8.40482 22.5365C8.44773 22.5003 9.2035 21.8361 9.89891 21.2258C10.0471 21.0958 10.1564 20.7919 10.1229 20.5977C10.0046 19.9134 9.89435 19.2739 9.86755 19.1086C9.84939 18.9966 9.83579 18.911 9.82589 18.8482C9.89227 19.2988 9.43634 16.6118 9.46153 16.6923C9.47386 16.7382 9.78562 18.588 9.7961 18.6543C9.80071 18.6834 9.80454 18.7087 9.80823 18.7323C9.78672 18.576 9.94924 19.5152 10.1357 20.5955C10.1699 20.7935 10.0585 21.1031 9.90749 21.2356C8.70167 22.2933 7.26503 23.5523 7.8858 23.0251C6.5051 24.243 8.06502 22.8332 7.02877 23.7502ZM1.6849 28.4273C1.53159 28.3148 1.37829 28.2024 1.22498 28.0899C2.60272 29.1334 4.08962 30.269 5.62793 31.4446C5.95528 31.6926 6.00653 32.1293 5.74921 32.4493C4.69435 33.7498 3.60839 35.0878 2.52606 36.427C1.93385 37.1598 2.63141 36.33 1.85069 37.2868C1.58823 37.6085 1.31205 37.943 1.10463 38.1918L0.241729 37.1223C0.64477 36.9269 0.860499 36.8267 0.58288 36.9694C0.555152 36.9836 0.432215 37.045 0.248806 37.1364L1.09239 38.1819C1.50818 37.6722 2.36452 36.624 2.8469 36.0256C4.71472 33.7084 4.22816 34.2819 4.33717 34.1463C4.42761 34.0338 5.12083 33.1873 5.73244 32.4357C5.98189 32.1255 5.93221 31.7021 5.61487 31.4618C5.36082 31.267 5.11739 31.0807 4.91519 30.927C3.39336 29.7695 2.48264 29.084 0.970411 27.9291L1.00555 28.9837C1.50098 28.5527 2.06558 28.0627 2.7473 27.4728C1.47716 28.5941 1.86426 28.2823 1.03038 29.0121L0.99329 27.899C1.1671 28.031 1.38999 28.2011 1.6849 28.4273ZM90.8163 36.0709C90.9388 36.0596 93.0479 36.0696 93.8142 36.068C93.6937 36.0793 91.583 36.0693 90.8163 36.0709ZM167.302 1.44374C167.949 1.42522 163.094 1.42063 164.373 1.43605C164.657 1.43947 166.691 1.4436 167.302 1.44374ZM145.489 1.43247C144.839 1.43759 147.455 1.45093 147.45 1.43659C147.446 1.432 145.573 1.43181 145.489 1.43247ZM12.343 36.051C12.4659 36.0504 14.2526 36.0545 14.3086 36.0554C15.0233 36.0673 13.1626 36.0679 12.1771 36.0636L12.8538 36.635C12.7539 36.032 12.7123 35.7607 12.8655 36.633L12.1771 36.0518C12.2285 36.0515 12.2837 36.0512 12.343 36.051ZM118.972 1.45527C121.236 1.44314 114.422 1.43788 116.504 1.45335C116.608 1.4541 118.863 1.45586 118.972 1.45527ZM109.5 1.45866C110.043 1.45801 112.453 1.46404 112.485 1.45838C112.533 1.44927 109.774 1.44304 109.5 1.45866ZM57.1608 36.0451C56.8993 36.0242 60.0771 36.04 61.182 36.0374C61.4444 36.0583 58.2652 36.0425 57.1608 36.0451ZM37.1018 36.0297C50.4992 36.0133 47.5457 36.0578 36.3038 36.0399C36.2877 36.0265 36.2562 36.0308 37.1018 36.0297ZM54.2575 36.0322C53.7706 36.0456 52.2492 36.0416 51.2213 36.0405C51.4062 36.0312 53.516 36.0346 54.2575 36.0322ZM173.083 1.47239C172.243 1.48928 168.522 1.46846 169.184 1.4615C169.338 1.45999 173.392 1.46311 173.083 1.47239ZM13.4656 36.0331C13.1536 36.0128 17.1766 36.0211 17.4846 36.0256C18.7262 36.0437 13.7914 36.0286 13.4656 36.0331ZM76.1761 36.0272C76.8865 36.0113 78.9042 36.0195 80.2019 36.0197C79.611 36.0333 77.2773 36.0275 76.1761 36.0272ZM66.8082 36.0148C66.8896 36.0142 68.6995 36.0156 68.7805 36.0163C70.2634 36.0319 65.1436 36.0279 66.8082 36.0148ZM248.678 16.7782C248.687 16.7186 248.909 15.3661 248.918 15.319C249.13 14.1142 248.463 18.1734 248.678 16.7782Z" fill="black" style="fill:black;fill-opacity:1;"/>
</svg>
