<svg width="16" height="24" viewBox="0 0 16 24" fill="none" xmlns="http://www.w3.org/2000/svg">
<path d="M2.55398 8.02605L5.02025 0.644464C5.0899 0.436007 5.28751 0.297474 5.50722 0.303072L8.96471 0.391166C9.35142 0.401019 9.58095 0.827458 9.37618 1.15566L4.60623 8.80124C4.48643 8.99327 4.25257 9.08087 4.03609 9.01481L2.88228 8.66273C2.61324 8.58063 2.46484 8.29284 2.55398 8.02605Z" fill="black" style="fill:black;fill-opacity:1;"/>
<path d="M0.55912 11.2349L1.3619 10.215C1.49459 10.0464 1.72004 9.98125 1.9222 10.0531L3.5884 10.6451C3.85229 10.7389 3.98767 11.0308 3.89202 11.294C3.63275 12.0074 3.31224 12.9469 3.32595 13.1397C3.3406 13.3456 1.81203 12.5709 0.711277 11.9784C0.439882 11.8323 0.36849 11.4771 0.55912 11.2349Z" fill="black" style="fill:black;fill-opacity:1;"/>
<path d="M5.0796 12.9135L8.80942 5.97239C8.91996 5.76669 9.15816 5.6649 9.38322 5.72718L12.9551 6.71565C13.3252 6.81807 13.4478 7.28085 13.1752 7.55129C10.6968 10.0101 6.6779 14.0011 6.57496 14.1198C6.48768 14.2204 5.81057 13.8783 5.26661 13.573C5.03371 13.4423 4.95318 13.1487 5.0796 12.9135Z" fill="black" style="fill:black;fill-opacity:1;"/>
<path d="M2.55408 15.5418L3.31157 14.7559C3.46635 14.5953 3.70878 14.5567 3.90582 14.6612L5.60342 15.5614C5.86431 15.6998 5.9491 16.0329 5.78611 16.2791L5.01717 17.4408C4.85791 17.6815 4.52859 17.7377 4.2985 17.5636L2.61236 16.2875C2.37338 16.1067 2.3461 15.7576 2.55408 15.5418Z" fill="black" style="fill:black;fill-opacity:1;"/>
<path d="M5.72636 18.3676L10.8828 12.5678C11.033 12.3988 11.278 12.3517 11.4802 12.4529L14.6173 14.0226C14.958 14.1931 14.9905 14.6666 14.6764 14.8821L7.32204 19.9266C7.1344 20.0553 6.88353 20.0411 6.71163 19.892L5.77245 19.0776C5.562 18.8951 5.54128 18.5758 5.72636 18.3676Z" fill="black" style="fill:black;fill-opacity:1;"/>
<path d="M2.71572 20.4866L3.6623 19.926C3.8354 19.8235 4.05307 19.8347 4.21471 19.9545L5.76856 21.1057C5.99624 21.2743 6.03839 21.5983 5.86145 21.8196L4.89517 23.0283C4.69904 23.2736 4.32795 23.2795 4.12417 23.0405L2.59001 21.2412C2.38873 21.0051 2.44878 20.6446 2.71572 20.4866Z" fill="black" style="fill:black;fill-opacity:1;"/>
<path d="M1.19894 11.1902C1.17952 11.2775 1.07098 11.3898 1.01129 11.4516C1.01021 11.4528 1.00912 11.4539 1.00804 11.455C0.993878 11.4697 0.981589 11.4845 0.967225 11.5018C0.958999 11.5117 0.950078 11.5224 0.939707 11.5345C0.935909 11.5364 0.930667 11.5317 0.910424 11.5354C0.910672 11.5388 0.910937 11.5423 0.911178 11.5458C0.9134 11.5606 0.9117 11.5683 0.923858 11.5835C1.1877 11.7397 1.44832 11.9027 1.70918 12.0652C1.71456 12.0678 1.72003 12.0703 1.72555 12.0729C1.8325 12.1235 1.96467 12.185 2.04063 12.2389C2.1367 12.3071 2.20049 12.3572 2.2524 12.3986C2.57002 12.5867 2.90836 12.7842 3.21653 12.8944C3.2423 12.903 3.26727 12.9096 3.27747 12.9115C3.28092 12.913 3.28359 12.9104 3.25336 12.9145C3.23253 12.9204 3.20972 12.9163 3.14615 12.9666C3.08489 13.0159 3.0597 13.112 3.06648 13.1581C3.0639 13.0402 3.07982 12.9996 3.09014 12.9391C3.11559 12.8179 3.14465 12.7106 3.17388 12.6015C3.18406 12.5366 3.19273 12.4738 3.20069 12.417C3.21207 12.3365 3.22304 12.2646 3.23751 12.2079C3.27272 12.0702 3.33751 11.9235 3.38616 11.815C3.3941 11.7973 3.40162 11.7806 3.4085 11.7651C3.43425 11.6745 3.46002 11.584 3.48596 11.4936C3.49109 11.4887 3.49636 11.4839 3.50174 11.479C3.56515 11.4214 3.59773 11.3356 3.64483 11.2042C3.64623 11.2002 3.64754 11.1962 3.64876 11.1921C3.65791 11.1608 3.66273 11.1239 3.6585 11.0796C3.6555 11.0514 3.66585 11.032 3.67361 11.0139C3.67584 11.0086 3.67779 11.0035 3.67893 10.9986C3.68277 10.9817 3.66522 10.9733 3.6452 10.9676C3.61847 10.9595 3.59084 10.958 3.58088 10.9248C3.5675 10.8839 3.53983 10.8608 3.51486 10.8521C3.44205 10.8264 3.38895 10.8321 3.34472 10.8369C3.32389 10.8392 3.30501 10.8412 3.28698 10.8397C3.22851 10.8346 3.1572 10.7937 3.10633 10.7542C3.066 10.723 2.96929 10.7054 2.89323 10.6998C2.86446 10.6976 2.82895 10.6852 2.78715 10.6706C2.74388 10.6554 2.69384 10.6378 2.6375 10.6268C2.49514 10.5992 2.41981 10.5835 2.35928 10.5709C2.34202 10.5673 2.32596 10.5639 2.30988 10.5606C2.25909 10.5502 2.19705 10.5344 2.13425 10.5184C2.05909 10.4993 1.98281 10.4799 1.92338 10.469C1.88033 10.4505 1.83735 10.4317 1.79442 10.4127C1.77277 10.3965 1.74425 10.3859 1.71151 10.3869C1.68825 10.3875 1.65145 10.3654 1.58947 10.3389C1.5285 10.3113 1.44972 10.2833 1.38463 10.2329C1.32009 10.183 1.2752 10.1052 1.29277 10.0066C1.30896 9.90931 1.39477 9.80672 1.51492 9.7629C1.67589 9.70244 1.86088 9.6956 2.03063 9.74794C2.08109 9.76176 2.13148 9.77576 2.18177 9.79003C2.36961 9.84331 2.55614 9.90031 2.73973 9.96555C2.86816 10.0112 2.99593 10.0587 3.12318 10.1076C3.13628 10.1127 3.14937 10.1177 3.16246 10.1228C3.27714 10.142 3.39101 10.1629 3.46908 10.1837C3.53354 10.2008 3.57559 10.2273 3.6116 10.2499C3.63639 10.2655 3.65832 10.2792 3.68272 10.2869C3.69084 10.2895 3.70087 10.2925 3.71253 10.2958C3.72482 10.2996 3.73803 10.3041 3.75199 10.3092C3.90329 10.3557 4.14924 10.536 4.22248 10.7792C4.25781 10.8835 4.2675 11.0127 4.24914 11.1284C4.23351 11.2332 4.19731 11.3253 4.16509 11.3933C4.15181 11.4181 4.14232 11.44 4.1387 11.4574C4.12177 11.5391 4.08033 11.625 4.04394 11.701C4.00921 11.7735 3.97912 11.837 3.97899 11.8791C3.97886 11.9293 3.95927 11.9653 3.93039 12.0189C3.91033 12.0562 3.88583 12.1018 3.86044 12.1666C3.83118 12.2412 3.80243 12.2915 3.77814 12.3342C3.74394 12.3944 3.71843 12.4396 3.71369 12.5177C3.70849 12.6043 3.69598 12.6916 3.67059 12.755C3.65908 12.7837 3.65002 12.8181 3.64112 12.8535C3.62954 12.8995 3.61772 12.9492 3.60039 12.9901C3.58625 13.0231 3.56449 13.0494 3.54654 13.0698C3.54087 13.0766 3.53553 13.0832 3.53094 13.0888C3.52781 13.1085 3.52721 13.132 3.5277 13.1253C3.52998 13.1554 3.52674 13.1935 3.51094 13.2315C3.49692 13.2744 3.46139 13.3196 3.42496 13.3447C3.2572 13.4352 3.22798 13.4078 3.15854 13.4129C3.06354 13.4069 3.00372 13.3759 2.94187 13.3441C2.8945 13.3192 2.84731 13.2927 2.7883 13.2718C2.75028 13.2584 2.70205 13.2453 2.65791 13.2334C2.58933 13.2144 2.52373 13.1954 2.48394 13.1708C2.46889 13.1616 2.45917 13.1461 2.44953 13.1307C2.44949 13.1307 2.44946 13.1306 2.44942 13.1305C2.44876 13.1295 2.4481 13.1284 2.44744 13.1274C2.34074 13.087 2.23388 13.0459 2.12753 13.0045C2.11734 13.0025 2.1076 13.0006 2.09766 12.9986C2.04944 12.9889 2.0012 12.9785 1.96693 12.9805C1.92927 12.9825 1.85003 12.9554 1.76639 12.9261C1.71217 12.9073 1.65529 12.8872 1.60788 12.8746C1.58004 12.8671 1.56077 12.8458 1.54094 12.8237C1.52249 12.8032 1.50378 12.7822 1.47693 12.7713C1.46349 12.7658 1.44763 12.7625 1.43069 12.759C1.41577 12.7559 1.40011 12.7527 1.38449 12.7476C1.36999 12.7429 1.34271 12.7225 1.30775 12.6964C1.28618 12.6802 1.26167 12.6619 1.23546 12.6437C1.15816 12.6108 1.08112 12.5775 1.00435 12.5436C0.984682 12.5435 0.965919 12.5469 0.948183 12.5547C0.935482 12.5602 0.922931 12.5683 0.91007 12.5765C0.89257 12.5876 0.87447 12.5991 0.854596 12.6054C0.839063 12.6104 0.824995 12.6082 0.819271 12.5997C0.816605 12.5957 0.815735 12.5905 0.81494 12.5857C0.814029 12.5803 0.813211 12.5754 0.809933 12.5738C0.80757 12.5726 0.80368 12.5741 0.798903 12.5758C0.791283 12.5786 0.781398 12.5821 0.771776 12.5773C0.735816 12.5594 0.697736 12.5364 0.659261 12.5131C0.616842 12.4873 0.576061 12.4625 0.540792 12.4462C0.522113 12.4376 0.501392 12.4242 0.479765 12.4084C0.431173 12.3778 0.381683 12.3383 0.336904 12.2943C0.276919 12.2357 0.226235 12.1692 0.186951 12.1108C0.148264 12.0538 0.106625 11.9954 0.0725255 11.9341C0.0315103 11.8609 0.00201926 11.7829 2.48688e-05 11.7136C-0.00039021 11.6996 0.00917863 11.6806 0.0221452 11.6579C0.031337 11.6419 0.0422447 11.6239 0.0526337 11.6045C0.0470797 11.5235 0.0530636 11.4416 0.0704391 11.3621C0.0693556 11.359 0.0682788 11.3557 0.0671859 11.3524C0.0671561 11.3523 0.0671263 11.3523 0.0670965 11.3522C0.0419344 11.2807 0.0196051 11.1585 0.118623 11.0536C0.143645 11.0276 0.16839 11.0184 0.19051 11.0107C0.209872 11.0041 0.22727 10.9989 0.242608 10.9858C0.243785 10.9851 0.244912 10.9842 0.245983 10.9833C0.25749 10.9733 0.261904 10.9544 0.266736 10.9337C0.27352 10.9046 0.281094 10.8722 0.310159 10.8565C0.312143 10.8554 0.314293 10.8543 0.3165 10.8531C0.337428 10.8416 0.368401 10.8246 0.410282 10.8164C0.475471 10.7456 0.541665 10.6756 0.608479 10.6061C0.719852 10.4902 0.83299 10.3756 0.946091 10.2611C1.0012 10.2054 1.07714 10.1703 1.15886 10.1646C1.24065 10.1589 1.32115 10.1829 1.38463 10.2329C1.44811 10.2828 1.49032 10.3554 1.50405 10.4362C1.51771 10.517 1.50134 10.5991 1.4602 10.6657C1.39297 10.7743 1.32574 10.8829 1.25763 10.9908C1.25484 10.9971 1.25198 11.0033 1.24906 11.0095C1.22736 11.0554 1.21684 11.1055 1.20632 11.1557C1.20391 11.1672 1.20149 11.1787 1.19894 11.1902ZM8.22834 8.0575C8.16954 8.24872 7.97647 8.57461 7.87028 8.75389C7.86834 8.75718 7.86641 8.76048 7.86448 8.76377C7.83928 8.80632 7.81669 8.84724 7.79025 8.8952C7.72722 9.00956 7.64206 9.16406 7.44604 9.47672C7.39613 9.57151 7.34585 9.66613 7.29514 9.7605C6.74752 10.7796 6.17154 11.7835 5.58996 12.7843C5.58322 12.7973 5.57636 12.8105 5.56944 12.8238C5.52412 12.911 5.47511 13.0053 5.42548 13.0993C5.40436 13.1408 5.41415 13.185 5.42487 13.2129C5.42984 13.2265 5.43723 13.2385 5.44818 13.2495C5.60054 13.3499 5.7164 13.426 5.81591 13.4903C5.95588 13.5697 6.09654 13.6462 6.23563 13.7139C6.30474 13.7475 6.37417 13.779 6.43663 13.8029C6.46752 13.8148 6.49782 13.8248 6.51565 13.8295C6.52368 13.8319 6.53003 13.8323 6.51866 13.8326C6.50938 13.8405 6.46398 13.8074 6.34586 13.9211C6.7992 13.4808 7.20652 13.1005 7.63368 12.6838C7.83801 12.4853 8.04824 12.2788 8.24977 12.0782C8.43822 11.8907 8.62419 11.704 8.81228 11.5137C8.91404 11.4006 9.01428 11.2869 9.10262 11.186C9.22898 11.042 9.34194 10.9134 9.43903 10.8116C9.67328 10.566 9.95628 10.3051 10.1665 10.1112C10.2009 10.0796 10.2333 10.0497 10.2632 10.022C10.4207 9.8581 10.5775 9.69445 10.7345 9.53035C10.7476 9.52196 10.7608 9.51358 10.7742 9.50509C10.9418 9.39916 11.1099 9.23141 11.3758 8.96638C11.4905 8.85198 11.6255 8.71742 11.7854 8.56312C11.8891 8.463 11.953 8.42357 12.0052 8.3913C12.0205 8.38186 12.035 8.37287 12.0492 8.36307C12.0979 8.32962 12.1332 8.27851 12.1746 8.21848C12.2278 8.141 12.2928 8.04692 12.411 7.95635C12.7832 7.67133 12.9043 7.4955 12.9912 7.36575C12.9915 7.36492 12.9919 7.36409 12.9922 7.36327C13.0021 7.3403 13.0064 7.32042 13.0114 7.30262C13.0284 7.24827 13.0498 7.16983 13.0346 7.0942C13.0282 7.04551 12.9609 6.98295 12.8822 6.9791C12.8455 6.97239 12.8094 6.96626 12.7754 6.96083C12.708 6.95011 12.6197 6.92586 12.5157 6.89726C12.408 6.86766 12.2834 6.83337 12.148 6.80475C11.8056 6.73243 11.6239 6.69302 11.4779 6.6613C11.4362 6.65226 11.3975 6.64379 11.3587 6.63542C11.2362 6.60897 11.0851 6.57327 10.932 6.5371C10.7488 6.49381 10.5629 6.44989 10.4204 6.42047C10.0603 6.31021 9.70087 6.1976 9.34147 6.08503C9.32382 6.0795 9.30631 6.07372 9.28898 6.0677C9.24411 6.04341 9.18288 6.01747 9.09931 6.01151C9.00842 6.0023 8.90798 6.02403 8.83491 5.98609C8.76469 5.95182 8.71624 5.82666 8.82962 5.65699C8.92678 5.50752 9.18847 5.37494 9.46203 5.44237C9.47999 5.44612 9.49798 5.45016 9.51597 5.45449C9.89484 5.54577 10.2738 5.63707 10.652 5.73093C11.1127 5.84526 11.5724 5.9634 12.0297 6.08995C12.3496 6.17848 12.669 6.26891 12.988 6.36084C13.0081 6.36666 13.0283 6.37249 13.0485 6.37832C13.0697 6.38436 13.0904 6.39108 13.1111 6.39869C13.5936 6.53442 13.7983 7.11183 13.6826 7.4474C13.6356 7.62008 13.5418 7.74468 13.4504 7.8287C13.4158 7.8588 13.3832 7.88561 13.3525 7.91093C13.2989 7.95522 13.2509 7.99491 13.2065 8.04013C13.183 8.06419 13.1522 8.09645 13.1143 8.13624C12.9572 8.30068 12.6957 8.57489 12.4329 8.80784C12.3182 8.90931 12.1765 9.0256 12.0442 9.13365C11.8528 9.29033 11.6758 9.43498 11.598 9.52174C11.4629 9.67267 11.2903 9.82985 11.1384 9.96819C10.9932 10.1004 10.8663 10.2159 10.8069 10.2943C10.7359 10.3879 10.6603 10.4536 10.5487 10.5504C10.4717 10.6173 10.3756 10.701 10.2525 10.8185C10.1097 10.9549 10.0024 11.0453 9.91179 11.1216C9.78234 11.2308 9.68839 11.3096 9.56742 11.4567C9.43548 11.6176 9.28899 11.7822 9.16468 11.8964C9.10644 11.95 9.04335 12.0138 8.97862 12.0793C8.89417 12.1647 8.7998 12.2601 8.71257 12.3362C8.6403 12.3993 8.56976 12.4469 8.51007 12.4864C8.49131 12.4988 8.47338 12.5107 8.45635 12.5224C8.40375 12.5751 8.34561 12.6334 8.29184 12.6876C8.28479 12.6982 8.27752 12.7095 8.26993 12.7212C8.23279 12.779 8.18369 12.8534 8.11568 12.9339C8.01099 13.0583 7.8981 13.1582 7.78276 13.2598C7.69202 13.3398 7.59803 13.4226 7.49983 13.5246C7.43247 13.5945 7.35938 13.6767 7.28461 13.7606C7.17861 13.8802 7.06731 14.0051 6.98624 14.078C6.95671 14.1045 6.91952 14.1277 6.89 14.1433C6.88986 14.1434 6.88971 14.1435 6.88956 14.1435C6.8875 14.1446 6.88545 14.1458 6.88342 14.1469C6.83918 14.1941 6.78093 14.2559 6.76036 14.2806C6.60496 14.4236 6.53269 14.3763 6.48453 14.3842C6.43532 14.3812 6.39895 14.3737 6.36579 14.3665C6.2992 14.3514 6.24332 14.3334 6.18872 14.3147C6.08028 14.277 5.98022 14.2357 5.88099 14.1928C5.85795 14.1848 5.83384 14.1761 5.81098 14.1678C5.69745 14.1265 5.58957 14.0843 5.51499 14.0644C5.43956 14.0443 5.27274 13.9674 5.09472 13.8793C5.07331 13.8681 5.05236 13.856 5.03169 13.8429C4.82574 13.716 4.68855 13.4824 4.65148 13.2809C4.62749 13.1625 4.64463 13.0444 4.68346 12.9359C4.70657 12.8714 4.73735 12.8095 4.77348 12.749C4.78644 12.7287 4.79875 12.7074 4.80994 12.6847C4.82532 12.6534 4.83936 12.6182 4.85434 12.5807C4.86753 12.5476 4.88146 12.5126 4.89768 12.4769C4.91276 12.4437 4.95607 12.375 5.01155 12.2869C5.04583 12.2325 5.08476 12.1706 5.12462 12.1051C5.21471 11.9239 5.30506 11.7427 5.39577 11.5617C5.40776 11.5203 5.41472 11.4824 5.41514 11.4497C5.41543 11.4263 5.4124 11.4045 5.40934 11.3822C5.40518 11.3519 5.4009 11.3205 5.40452 11.2824C5.40735 11.2526 5.41868 11.2217 5.43327 11.2048C5.44007 11.1969 5.4475 11.192 5.45423 11.1875C5.46194 11.1825 5.46882 11.1779 5.47291 11.1701C5.47585 11.1644 5.47626 11.1571 5.47682 11.1481C5.4777 11.1338 5.47891 11.1151 5.49089 11.0923C5.53549 11.0071 5.58939 10.912 5.64221 10.8189C5.70094 10.7154 5.75834 10.6141 5.80017 10.5314C5.84702 10.4387 5.92722 10.3139 6.0075 10.1888C6.06351 10.1015 6.11955 10.0141 6.16448 9.93736C6.20851 9.86221 6.24579 9.77935 6.28185 9.69908C6.32514 9.60274 6.36675 9.51006 6.41642 9.43899C6.42648 9.42462 6.44773 9.41149 6.47436 9.395C6.49323 9.38331 6.51488 9.36982 6.5371 9.35316C6.58899 9.2566 6.64134 9.16026 6.69406 9.06415C6.6944 9.05994 6.69476 9.05562 6.69509 9.05127C6.69509 9.05119 6.69508 9.05112 6.69508 9.05104C6.70263 8.95289 6.71299 8.81859 6.82354 8.68149C6.85164 8.64663 6.87819 8.62945 6.90209 8.61397C6.92556 8.59876 6.94656 8.58517 6.96397 8.55812C6.98374 8.5274 6.9968 8.48561 7.01106 8.44006C7.03108 8.3761 7.05344 8.30466 7.09994 8.2459C7.10311 8.24189 7.10654 8.23759 7.11008 8.23308C7.14363 8.19041 7.19329 8.12723 7.25509 8.07102C7.37226 7.86868 7.49056 7.66692 7.60955 7.46556C7.80789 7.12991 8.00822 6.79524 8.20849 6.46067C8.30602 6.29795 8.42544 6.1558 8.54233 6.06649C8.6593 5.97721 8.76375 5.94785 8.83491 5.98609C8.90606 6.02434 8.93918 6.12762 8.92928 6.27442C8.91931 6.42119 8.86668 6.59922 8.78481 6.77036C8.65115 7.04934 8.51746 7.32842 8.38281 7.60692C8.37662 7.62198 8.37035 7.63708 8.36402 7.65206C8.31697 7.76355 8.28408 7.87278 8.25119 7.98209C8.24364 8.0072 8.23607 8.03235 8.22834 8.0575ZM3.16576 20.7722C3.12942 20.8272 3.04257 20.877 2.96865 20.9137C2.96663 20.9124 2.96463 20.9105 2.96284 20.9091C2.96273 20.909 2.96261 20.9089 2.9625 20.9088C2.96085 20.9075 2.96019 20.9074 2.95951 20.9073C2.95767 20.9084 2.95658 20.9013 2.92915 20.9081C2.92923 20.9123 2.92946 20.9163 2.92967 20.9199C2.9306 20.9293 2.93025 20.9346 2.93579 20.9464C3.16308 21.2288 3.37849 21.5215 3.59102 21.8165C3.59503 21.8209 3.59911 21.8254 3.60322 21.8299C3.68279 21.917 3.78145 22.0251 3.83033 22.1042C3.89246 22.2048 3.93127 22.276 3.96261 22.3349C4.08788 22.5092 4.21397 22.6828 4.34274 22.8541C4.37995 22.9139 4.44925 22.9527 4.52665 22.9504C4.58275 22.9489 4.63684 22.9258 4.6763 22.8852C4.68203 22.8793 4.68748 22.8731 4.69273 22.8664C4.74926 22.7952 4.80514 22.7234 4.8604 22.6512C4.89302 22.5969 4.92247 22.544 4.94979 22.495C4.98819 22.4261 5.02239 22.3648 5.05515 22.3178C5.1341 22.2044 5.24293 22.0913 5.32375 22.0073C5.33696 21.9936 5.34944 21.9806 5.3609 21.9686C5.41434 21.8933 5.4675 21.8177 5.52056 21.7421C5.52692 21.7393 5.53341 21.7365 5.54003 21.7337C5.58067 21.7167 5.61583 21.6897 5.6523 21.6524C5.67248 21.6357 5.68835 21.6094 5.69827 21.5744C5.70664 21.5445 5.71094 21.5078 5.70625 21.4643C5.703 21.4367 5.71327 21.4175 5.72091 21.3996C5.72312 21.3944 5.72504 21.3894 5.72615 21.3846C5.72991 21.3679 5.71241 21.3601 5.69255 21.3551C5.66598 21.3478 5.63885 21.3473 5.62822 21.3141C5.62677 21.3098 5.62512 21.3057 5.6233 21.3017C5.51238 21.1566 5.42479 21.1403 5.35789 21.1279C5.33746 21.1241 5.31895 21.1206 5.3023 21.114C5.24831 21.0924 5.1927 21.033 5.15606 20.9807C5.12701 20.9393 5.04042 20.8949 4.9699 20.8677C4.94324 20.8575 4.9132 20.8354 4.87785 20.8095C4.84127 20.7826 4.79897 20.7515 4.74874 20.7249C4.62181 20.6578 4.55495 20.6213 4.50122 20.5919C4.4859 20.5835 4.47167 20.5757 4.45739 20.5679C4.41226 20.5434 4.35805 20.5106 4.30317 20.4774C4.23749 20.4376 4.17084 20.3972 4.11764 20.3699C4.07455 20.3332 4.03166 20.2964 3.98888 20.2593C3.97435 20.2393 3.95307 20.2221 3.92543 20.2125C3.90376 20.2048 3.87743 20.171 3.82937 20.1239C3.78263 20.0761 3.71952 20.0215 3.67704 19.9509C3.63487 19.881 3.62082 19.7926 3.67193 19.7072C3.72129 19.6225 3.83677 19.5577 3.96339 19.5594C4.11757 19.56 4.27448 19.6074 4.40612 19.6961C4.45855 19.7291 4.51082 19.7623 4.56285 19.7958C4.72539 19.9004 4.88558 20.0082 5.04056 20.123C5.14898 20.2033 5.25623 20.2852 5.36254 20.3684C5.37349 20.377 5.38441 20.3855 5.39534 20.3941C5.49849 20.4453 5.60037 20.4978 5.66834 20.54C5.72445 20.5748 5.75656 20.6121 5.78407 20.644C5.803 20.6659 5.81975 20.6854 5.84063 20.6997C5.85184 20.7074 5.86751 20.7175 5.8864 20.7296C5.91601 20.7486 5.95357 20.7727 5.99437 20.8009C6.10805 20.8798 6.2179 21.0126 6.26661 21.1576C6.30326 21.2613 6.31418 21.3895 6.29742 21.5044C6.27542 21.6709 6.19921 21.801 6.17096 21.8686C6.15206 21.9152 6.12413 21.9612 6.09022 22.0025C6.05554 22.0443 6.01625 22.084 5.9799 22.1207C5.92351 22.1777 5.8742 22.2274 5.86017 22.267C5.84341 22.3142 5.81297 22.3416 5.76775 22.3823C5.73639 22.4105 5.69793 22.4452 5.65193 22.4973C5.59882 22.5575 5.55442 22.5947 5.51668 22.6262C5.46357 22.6707 5.42361 22.7041 5.39094 22.7754C5.35465 22.8546 5.30998 22.932 5.26132 22.9822C5.23915 23.0051 5.21709 23.0338 5.19414 23.0638C5.16375 23.1034 5.13178 23.1451 5.09591 23.1779C5.09376 23.1798 5.09159 23.1817 5.0894 23.1836C5.05068 23.2206 5.00841 23.2416 4.97102 23.2566C4.95835 23.2618 4.94626 23.2662 4.93465 23.2705C4.89987 23.2979 4.86233 23.322 4.823 23.3425C4.81776 23.3481 4.81224 23.354 4.80623 23.36C4.77642 23.3902 4.73501 23.4262 4.67422 23.4495C4.57764 23.4861 4.48267 23.4793 4.39216 23.4562C4.32117 23.4378 4.25151 23.4098 4.17357 23.3739C4.1204 23.3495 4.06048 23.3179 4.006 23.2779C3.97714 23.2568 3.95005 23.2338 3.92585 23.2096C3.89564 23.1817 3.86927 23.1546 3.85317 23.1298C3.8438 23.1153 3.84192 23.0977 3.84009 23.0801C3.84009 23.08 3.8401 23.0799 3.8401 23.0798C3.83998 23.0787 3.83984 23.0775 3.83971 23.0763C3.76186 22.9968 3.68341 22.9178 3.60462 22.839C3.59642 22.8334 3.58817 22.8276 3.58002 22.8219C3.54016 22.7941 3.50143 22.767 3.46923 22.7552C3.43434 22.7425 3.37351 22.6876 3.30941 22.6297C3.26744 22.5918 3.22404 22.5526 3.18561 22.5232C3.16314 22.506 3.15398 22.4793 3.14458 22.4518C3.1358 22.4262 3.12679 22.3999 3.10652 22.38C3.09636 22.37 3.08317 22.3612 3.06909 22.3517C3.0567 22.3434 3.04359 22.3346 3.03127 22.3242C3.01983 22.3145 3.00275 22.2858 2.98081 22.249C2.96726 22.2263 2.95183 22.2005 2.93477 22.1741C2.87651 22.1157 2.81843 22.0571 2.7607 21.9983C2.74267 21.9911 2.72405 21.9874 2.70491 21.9883C2.69117 21.9889 2.67664 21.9918 2.66176 21.9948C2.64151 21.9988 2.62058 22.003 2.59996 22.0017C2.58385 22.0007 2.57175 21.9936 2.56966 21.9837C2.56868 21.9791 2.56985 21.974 2.57089 21.9693C2.57209 21.9639 2.57314 21.9591 2.57072 21.9565C2.56897 21.9546 2.56485 21.9545 2.55983 21.9544C2.55182 21.9543 2.54144 21.9541 2.53442 21.9463C2.50829 21.9172 2.48136 21.8818 2.455 21.8471C2.42568 21.8085 2.39701 21.7708 2.37081 21.7436C2.34145 21.7132 2.31121 21.66 2.28088 21.6067C2.26763 21.5834 2.25435 21.5601 2.24114 21.5387C2.22453 21.5156 2.20957 21.4933 2.19555 21.4717C2.15907 21.4154 2.11876 21.3575 2.08577 21.2964C2.04606 21.2234 2.01764 21.1456 2.01658 21.0768C2.01636 21.063 2.02616 21.0441 2.03941 21.0219C2.04881 21.0061 2.05993 20.9884 2.07054 20.9693C2.06593 20.8892 2.07257 20.8087 2.09 20.7308C2.08892 20.7277 2.08785 20.7245 2.08676 20.7213C2.08673 20.7212 2.0867 20.7211 2.08667 20.7211C2.06166 20.6506 2.03852 20.531 2.13675 20.4265C2.16151 20.4008 2.18645 20.3913 2.20845 20.3837C2.2302 20.3761 2.24943 20.3703 2.2661 20.3535C2.28511 20.3343 2.2994 20.3051 2.31763 20.2738C2.34293 20.23 2.37738 20.1815 2.43051 20.1599C2.43412 20.1585 2.43801 20.1569 2.44206 20.1553C2.46013 20.1481 2.48187 20.1403 2.50693 20.134C2.52452 20.1332 2.54472 20.1339 2.5669 20.1379C2.65243 20.0959 2.73861 20.055 2.82519 20.0148C2.96951 19.9477 3.11499 19.8826 3.26042 19.8174C3.33122 19.7858 3.41411 19.7808 3.4919 19.8052C3.56974 19.8298 3.63588 19.8814 3.67704 19.9509C3.7182 20.0204 3.73163 20.1032 3.71573 20.1832C3.69979 20.2632 3.65554 20.3335 3.59378 20.3804C3.493 20.4567 3.39218 20.533 3.29082 20.6084C3.28601 20.6132 3.28115 20.618 3.27626 20.6227C3.23989 20.6573 3.21238 20.7001 3.18485 20.7428C3.17853 20.7526 3.1722 20.7625 3.16576 20.7722ZM9.84857 14.4461C9.74838 14.6171 9.48758 14.8866 9.34413 15.0349C9.34151 15.0376 9.33889 15.0404 9.33628 15.0431C9.30223 15.0783 9.27109 15.1125 9.23463 15.1526C9.14769 15.2483 9.03022 15.3776 8.76955 15.6337C8.69975 15.7136 8.62963 15.7932 8.55915 15.8724C7.79803 16.7285 7.01286 17.5632 6.22293 18.3937C6.21346 18.4046 6.20384 18.4158 6.19411 18.427C6.13882 18.491 6.07963 18.5595 6.01955 18.6283C5.98797 18.6653 5.98832 18.7174 5.99669 18.7531C5.99998 18.7689 6.00615 18.7835 6.01559 18.7972C6.14687 18.9284 6.24494 19.0296 6.32883 19.1168C6.52362 19.2978 6.7186 19.4785 6.91398 19.6587C6.97193 19.7202 7.07871 19.7365 7.15799 19.6874C7.51467 19.4563 7.8701 19.2233 8.22351 18.9873C8.4607 18.829 8.697 18.6693 8.93215 18.508C9.1487 18.3595 9.36461 18.2099 9.57985 18.0594C9.70119 17.966 9.81543 17.8755 9.92137 17.7916C10.0702 17.6737 10.2028 17.5687 10.3155 17.4868C10.5872 17.2894 10.9093 17.0859 11.1485 16.9347C11.1876 16.91 11.2246 16.8867 11.2586 16.8651C11.4408 16.7337 11.6229 16.602 11.8048 16.4702C11.819 16.4643 11.8333 16.4586 11.848 16.4527C12.0303 16.3797 12.2243 16.2459 12.5297 16.0355C12.6627 15.9439 12.8168 15.8377 13.0003 15.7156C13.1185 15.6369 13.1883 15.6097 13.2453 15.5874C13.2621 15.5809 13.2778 15.5747 13.2933 15.5678C13.3463 15.5443 13.3894 15.5009 13.4404 15.4495C13.5065 15.383 13.5857 15.3031 13.7169 15.2361C14.135 15.0228 14.2809 14.8729 14.3912 14.7596C14.4236 14.7263 14.453 14.6962 14.4852 14.6686C14.4943 14.6608 14.5038 14.6529 14.5138 14.645C14.5589 14.6044 14.6048 14.5563 14.6286 14.4905C14.6559 14.4338 14.5962 14.3117 14.5167 14.2923C14.5079 14.2892 14.4985 14.2855 14.4878 14.2814C14.4365 14.2586 14.3771 14.2291 14.3108 14.196C14.2118 14.1467 14.0973 14.0896 13.9711 14.036C13.6522 13.9006 13.4832 13.8277 13.3473 13.7691C13.3086 13.7524 13.2725 13.7368 13.2364 13.7213C13.1225 13.6723 12.9824 13.6088 12.8406 13.5445C12.6708 13.4675 12.4986 13.3895 12.3657 13.3338C12.0369 13.1578 11.7092 12.9797 11.3816 12.8016C11.3616 12.7907 11.3419 12.7795 11.3225 12.768C11.2849 12.7354 11.2321 12.6978 11.1548 12.6734C11.069 12.6435 10.9667 12.6408 10.9044 12.587C10.844 12.5373 10.8255 12.4054 10.9728 12.2668C11.097 12.1476 11.3664 12.0769 11.6121 12.1894C11.6329 12.198 11.6537 12.207 11.6744 12.2165C12.0251 12.3774 12.3759 12.5383 12.7255 12.7016C13.1513 12.9005 13.5754 13.1029 13.9956 13.3132C14.2559 13.4435 14.5156 13.5752 14.7748 13.708C14.8305 13.7362 14.8841 13.771 14.9334 13.8117C14.9778 13.8484 15.019 13.8902 15.0551 13.9356C15.3912 14.2994 15.2778 14.8916 15.0083 15.1204C14.9731 15.1547 14.937 15.1838 14.9006 15.2089C14.8009 15.2776 14.7181 15.3238 14.6454 15.3644C14.585 15.3981 14.5316 15.4279 14.4812 15.4635C14.4542 15.4826 14.4176 15.5093 14.3735 15.5414C14.1932 15.6724 13.8871 15.895 13.5913 16.0739C13.46 16.1533 13.3035 16.2397 13.1541 16.3222C12.9405 16.4401 12.7413 16.55 12.6508 16.6203C12.4919 16.7436 12.2964 16.8656 12.1236 16.9733C11.9587 17.0761 11.8145 17.166 11.7427 17.2319C11.6569 17.3106 11.572 17.3608 11.4458 17.4353C11.3582 17.487 11.2509 17.5506 11.1094 17.6435C10.9462 17.7507 10.8257 17.8194 10.7233 17.8778C10.5792 17.96 10.4708 18.0218 10.3287 18.1423C10.1708 18.2762 10.001 18.4091 9.85743 18.4994C9.79205 18.5406 9.71964 18.5912 9.6443 18.6438C9.54457 18.7134 9.43966 18.7867 9.33904 18.8465C9.25612 18.8958 9.18146 18.9276 9.1154 18.9558C9.09479 18.9646 9.07502 18.973 9.05609 18.9815C8.99298 19.025 8.92992 19.0687 8.86696 19.1124C8.85817 19.1216 8.84902 19.1313 8.83945 19.1414C8.79142 19.1923 8.73235 19.2547 8.65165 19.321C8.52391 19.4259 8.39968 19.5003 8.26861 19.5787C8.16655 19.6398 8.06035 19.7033 7.94517 19.7856C7.86663 19.8418 7.77968 19.9094 7.69349 19.9763C7.61692 20.0358 7.54092 20.0949 7.47188 20.1451C7.40067 20.196 7.32538 20.2289 7.25935 20.2461C7.19758 20.2622 7.14148 20.2609 7.0886 20.2545C7.08836 20.2545 7.08812 20.2545 7.08789 20.2544C7.08429 20.254 7.08068 20.2535 7.0771 20.253C6.88899 20.267 6.69409 20.2049 6.54719 20.0817C6.43642 19.9914 6.32554 19.9013 6.21458 19.8113C6.19519 19.7979 6.17563 19.7843 6.15626 19.7708C6.06161 19.7049 5.96964 19.6409 5.9037 19.6061C5.8368 19.5707 5.69538 19.4619 5.54228 19.343C5.52485 19.3288 5.50804 19.314 5.49154 19.2983C5.31899 19.1383 5.22636 18.8931 5.22152 18.6916C5.21675 18.5731 5.25141 18.4608 5.30587 18.3605C5.34901 18.2811 5.40431 18.2085 5.46813 18.138C5.47521 18.1303 5.48218 18.1224 5.48902 18.1141C5.511 18.0875 5.53256 18.0568 5.55556 18.024C5.57581 17.9951 5.59722 17.9646 5.62101 17.9339C5.64313 17.9054 5.70063 17.8492 5.77432 17.7771C5.81986 17.7326 5.87158 17.6819 5.92501 17.628C6.0533 17.474 6.18182 17.3202 6.31063 17.1666C6.33162 17.1294 6.34692 17.0944 6.3547 17.0629C6.36028 17.0403 6.36225 17.0186 6.36432 16.9964C6.36713 16.9661 6.37006 16.9347 6.38219 16.8987C6.39166 16.8706 6.40961 16.8435 6.42759 16.8305C6.43597 16.8245 6.44428 16.8215 6.4518 16.8188C6.46043 16.8157 6.46812 16.8129 6.47386 16.8063C6.478 16.8015 6.48005 16.7945 6.48261 16.786C6.48671 16.7723 6.49208 16.7546 6.50887 16.7353C6.57134 16.6635 6.64507 16.5843 6.71731 16.5067C6.79765 16.4205 6.87616 16.3362 6.9354 16.266C7.00176 16.1875 7.10772 16.0857 7.21382 15.9836C7.28783 15.9125 7.36192 15.8412 7.4228 15.7776C7.48246 15.7153 7.53732 15.644 7.59041 15.5749C7.65413 15.492 7.71541 15.4122 7.77962 15.3552C7.79262 15.3437 7.81619 15.336 7.84574 15.3263C7.86668 15.3195 7.89072 15.3115 7.91602 15.3007C7.98814 15.2195 8.06066 15.1388 8.13348 15.0583C8.13476 15.0543 8.13609 15.0502 8.13739 15.0461C8.1374 15.046 8.13741 15.0459 8.13743 15.0458C8.16691 14.9528 8.20728 14.8254 8.34543 14.7189C8.38055 14.6918 8.41017 14.6815 8.43685 14.6721C8.46304 14.663 8.48647 14.6548 8.50946 14.6327C8.53557 14.6077 8.55767 14.5704 8.58178 14.5297C8.61563 14.4726 8.65345 14.4088 8.7118 14.363C8.71579 14.3598 8.72009 14.3565 8.72453 14.353C8.7667 14.3196 8.82911 14.2702 8.90174 14.2304C9.06104 14.0625 9.22131 13.8953 9.38215 13.7287C9.65027 13.4509 9.92009 13.1746 10.1898 12.8984C10.3211 12.7641 10.469 12.6548 10.6026 12.5959C10.7361 12.5372 10.8441 12.5333 10.9044 12.587C10.9648 12.6407 10.9736 12.7483 10.9308 12.8878C10.888 13.0273 10.7968 13.187 10.6788 13.3331C10.4862 13.5713 10.2935 13.8095 10.1001 14.047C10.0907 14.0601 10.0812 14.0732 10.0717 14.0862C10.0009 14.1829 9.94434 14.2807 9.88776 14.3786C9.87476 14.4011 9.86174 14.4236 9.84857 14.4461ZM3.08305 15.6776C3.06124 15.7486 2.97291 15.8296 2.90907 15.884C2.90779 15.8835 2.90656 15.883 2.90544 15.8825C2.9053 15.8824 2.90516 15.8824 2.90502 15.8823C2.90303 15.8815 2.90228 15.8816 2.90152 15.8817C2.89972 15.8834 2.89777 15.8766 2.87189 15.8865C2.87264 15.8903 2.87345 15.8941 2.87419 15.8976C2.8769 15.9082 2.87741 15.9146 2.88565 15.9264C3.14284 16.1351 3.39177 16.3547 3.63863 16.577C3.64328 16.5803 3.64802 16.5837 3.65281 16.587C3.74531 16.652 3.86 16.7326 3.92167 16.797C4.00007 16.8788 4.05062 16.938 4.09172 16.9872C4.21906 17.1021 4.34686 17.2165 4.47596 17.3291C4.5291 17.3876 4.62568 17.4103 4.70783 17.3743C4.74486 17.3585 4.77698 17.3325 4.80084 17.2976C4.81574 17.2755 4.83056 17.2533 4.84528 17.2311C4.90227 17.145 4.95826 17.0582 5.01332 16.9708C5.03949 16.916 5.0627 16.8628 5.08423 16.8135C5.11448 16.7442 5.14144 16.6825 5.16853 16.6347C5.2338 16.5196 5.32842 16.4027 5.39869 16.3158C5.41017 16.3016 5.42102 16.2882 5.43097 16.2758C5.4633 16.22 5.49548 16.164 5.52757 16.108C5.53154 16.0992 5.53462 16.0905 5.53702 16.0818C5.54086 16.0812 5.54485 16.0806 5.54894 16.0798C5.59965 16.0696 5.61588 16.0187 5.60023 15.951C5.59313 15.9215 5.57977 15.8886 5.55682 15.8544C5.54201 15.8328 5.54285 15.8116 5.54177 15.7926C5.54146 15.7871 5.54095 15.7818 5.53985 15.7771C5.53595 15.761 5.51726 15.7623 5.4975 15.767C5.49633 15.7672 5.49516 15.7675 5.49399 15.7678C5.45491 15.7662 5.40909 15.7627 5.36913 15.721C5.23579 15.5818 5.14531 15.5803 5.07687 15.5791C5.05679 15.5788 5.03861 15.5785 5.02179 15.5747C4.96728 15.5626 4.90639 15.5137 4.86461 15.4687C4.83148 15.4331 4.7428 15.404 4.67173 15.3891C4.64486 15.3835 4.61326 15.3669 4.57606 15.3474C4.53756 15.3272 4.49304 15.3038 4.44149 15.2861C4.31123 15.2415 4.24248 15.2169 4.18723 15.1971C4.17147 15.1914 4.15682 15.1861 4.14215 15.1809C4.09576 15.1644 4.0396 15.1414 3.98275 15.118C3.91471 15.0899 3.84566 15.0615 3.79117 15.0436C3.76909 15.0298 3.74704 15.016 3.72503 15.0021C3.70472 14.981 3.67471 14.9649 3.63782 14.9629C3.61572 14.9616 3.58195 14.9361 3.52381 14.9033C3.46674 14.8694 3.39209 14.8327 3.3324 14.776C3.27315 14.7198 3.23531 14.6395 3.25852 14.5454C3.28037 14.4524 3.36852 14.3607 3.48492 14.3268C3.66912 14.2711 3.8791 14.2851 4.05953 14.3713C4.08806 14.3838 4.11654 14.3964 4.14498 14.4091C4.31414 14.4844 4.48146 14.5633 4.64468 14.6498C4.75886 14.7104 4.87212 14.7726 4.98465 14.8363C4.99623 14.8429 5.0078 14.8495 5.01937 14.856C5.12479 14.889 5.22917 14.9235 5.2997 14.9534C5.35794 14.9782 5.39347 15.0093 5.42391 15.0359C5.44486 15.0542 5.46339 15.0704 5.48523 15.081C5.49696 15.0867 5.51327 15.0939 5.53293 15.1026C5.59472 15.13 5.68974 15.1722 5.78069 15.2272C5.82857 15.2545 5.87392 15.2879 5.9135 15.3255C5.99051 15.3976 6.05742 15.5025 6.09492 15.6075C6.15104 15.7586 6.14713 15.9013 6.15618 15.9709C6.17472 16.0952 6.13365 16.2422 6.06899 16.3489C6.05154 16.3786 6.03298 16.4057 6.01453 16.4303C5.98366 16.469 5.95991 16.5031 5.95314 16.531C5.94178 16.5779 5.91486 16.6065 5.87487 16.649C5.84713 16.6784 5.81312 16.7146 5.77359 16.7682C5.72795 16.8301 5.68838 16.8691 5.65474 16.9022C5.6074 16.9489 5.57179 16.9839 5.54741 17.0552C5.52033 17.1344 5.48483 17.2124 5.44248 17.2643C5.42319 17.2879 5.40464 17.3173 5.38534 17.3478C5.35979 17.3883 5.33291 17.4308 5.30123 17.465C5.27513 17.4931 5.24453 17.5103 5.21745 17.5256C5.20901 17.5304 5.20092 17.535 5.1934 17.5396C5.19069 17.5438 5.18798 17.5479 5.18527 17.5521C5.166 17.5816 5.14465 17.6096 5.1212 17.6362C5.11855 17.643 5.11565 17.6503 5.11249 17.6578C5.09673 17.6954 5.07279 17.7425 5.02685 17.7852C4.9537 17.8525 4.86635 17.8801 4.7777 17.8921C4.70804 17.9013 4.63645 17.9018 4.55468 17.8997C4.49887 17.8983 4.43435 17.894 4.37082 17.8803C4.27737 17.861 4.18806 17.8193 4.13898 17.7744C4.13865 17.774 4.13832 17.7737 4.138 17.7734C4.12631 17.7617 4.12115 17.7452 4.11608 17.7289C4.11607 17.7288 4.11606 17.7287 4.11605 17.7286C4.1157 17.7275 4.11534 17.7264 4.115 17.7253C4.02559 17.6672 3.9357 17.6098 3.84555 17.5527C3.83664 17.5492 3.82768 17.5456 3.81881 17.542C3.77547 17.5246 3.73336 17.5076 3.70039 17.5038C3.66466 17.4997 3.59617 17.4612 3.52399 17.4207C3.47672 17.3941 3.42786 17.3667 3.38558 17.3474C3.36087 17.3361 3.34706 17.3127 3.33287 17.2886C3.31963 17.2661 3.30603 17.243 3.28291 17.2287C3.27133 17.2215 3.25706 17.2161 3.24182 17.2103C3.22841 17.2052 3.21422 17.1998 3.20049 17.1927C3.18773 17.1861 3.16598 17.1626 3.13806 17.1325C3.1208 17.1138 3.10118 17.0927 3.0799 17.0714C3.01319 17.029 2.94663 16.9864 2.88035 16.9435C2.86177 16.9408 2.8433 16.9416 2.82518 16.9468C2.81218 16.9506 2.79886 16.9567 2.78522 16.963C2.76665 16.9716 2.74745 16.9804 2.72753 16.984C2.71196 16.9867 2.69906 16.9828 2.69519 16.9738C2.69339 16.9696 2.69352 16.9644 2.69362 16.9597C2.69375 16.9543 2.69385 16.9495 2.69104 16.9475C2.689 16.946 2.68506 16.947 2.68025 16.948C2.67258 16.9498 2.66263 16.952 2.65444 16.9461C2.62398 16.9243 2.59156 16.8967 2.55981 16.8696C2.5245 16.8395 2.48998 16.81 2.4598 16.7901C2.426 16.7678 2.38703 16.7238 2.34796 16.6798C2.34211 16.6732 2.33625 16.6666 2.3304 16.6601C2.28616 16.619 2.24677 16.575 2.21356 16.5352C2.17204 16.4857 2.12647 16.4356 2.08725 16.3819C2.04012 16.3177 2.00275 16.2481 1.9928 16.1831C1.99078 16.17 1.99803 16.1507 2.00814 16.1276C2.0153 16.1112 2.0239 16.0929 2.03175 16.0732C2.01608 15.9981 2.01056 15.921 2.01524 15.8446C2.01367 15.8418 2.0121 15.8389 2.0105 15.836C2.01046 15.8359 2.01042 15.8359 2.01039 15.8359C1.97432 15.7728 1.93174 15.6628 2.00875 15.5485C2.02829 15.5202 2.05075 15.5075 2.07082 15.4967C2.0906 15.4863 2.10817 15.4778 2.12117 15.4591C2.13588 15.438 2.14405 15.408 2.15547 15.3751C2.17109 15.3294 2.19436 15.2773 2.24051 15.248C2.2422 15.2469 2.24397 15.2458 2.24579 15.2447C2.24679 15.2443 2.24781 15.2439 2.24884 15.2435C2.27002 15.235 2.30137 15.2224 2.3427 15.2196C2.41119 15.1593 2.48061 15.0998 2.5506 15.0409C2.66725 14.9427 2.78553 14.846 2.90377 14.7493C2.96137 14.7023 3.03778 14.6777 3.11768 14.6822C3.19765 14.6868 3.27423 14.7199 3.3324 14.776C3.39056 14.8321 3.42642 14.9073 3.43396 14.9871C3.44146 15.0668 3.41965 15.144 3.37484 15.2033C3.30165 15.2999 3.22845 15.3965 3.15446 15.4923C3.15129 15.498 3.14806 15.5037 3.14478 15.5093C3.12038 15.5509 3.10655 15.598 3.09272 15.6452C3.08954 15.656 3.08636 15.6669 3.08305 15.6776ZM4.80748 2.78057C4.78254 2.97738 4.64866 3.32821 4.57502 3.52119C4.57369 3.52474 4.57235 3.52828 4.57102 3.53183C4.55355 3.57763 4.53836 3.6214 4.52061 3.67271C4.47827 3.79503 4.42106 3.9603 4.28199 4.29867C4.2492 4.39968 4.21601 4.50058 4.18236 4.6013C3.81892 5.68907 3.42496 6.76663 3.02496 7.84218C3.02056 7.85598 3.01608 7.87002 3.01156 7.88421C2.98465 7.96862 2.95576 8.05928 2.92618 8.15041C2.91195 8.19605 2.93133 8.2426 2.9521 8.2724C2.96205 8.28737 2.97454 8.29944 2.9902 8.30905C3.15496 8.37251 3.28076 8.4232 3.38914 8.4673C3.63479 8.5515 3.88051 8.63544 4.1264 8.71884C4.20371 8.75128 4.30699 8.72344 4.35965 8.6474C4.59864 8.28588 4.8357 7.92315 5.06963 7.55848C5.2238 7.31815 5.37661 7.07694 5.52773 6.83471C5.66689 6.61165 5.80504 6.38789 5.94224 6.16361C6.01614 6.02925 6.08469 5.90045 6.14828 5.78101C6.23763 5.61318 6.31719 5.46378 6.38782 5.34343C6.55799 5.05349 6.77197 4.73764 6.93087 4.5031C6.95684 4.46477 6.98137 4.42858 7.00396 4.39505C7.11849 4.2015 7.23273 4.0077 7.34684 3.81388C7.35751 3.80285 7.36836 3.79179 7.37942 3.78056C7.5174 3.64047 7.6418 3.44004 7.83767 3.12458C7.92296 2.98721 8.02185 2.828 8.14126 2.64246C8.21821 2.52289 8.27131 2.46994 8.31467 2.42666C8.32743 2.41393 8.33938 2.40198 8.35082 2.38948C8.39002 2.34661 8.41219 2.28949 8.4384 2.222C8.47239 2.13446 8.51315 2.02941 8.60666 1.91539C8.90465 1.55208 8.9785 1.35615 9.03436 1.20794C9.05075 1.16447 9.06562 1.12507 9.08412 1.08679C9.09711 1.0599 9.11272 1.03144 9.13017 1.00218C9.15789 0.953922 9.17976 0.901487 9.18317 0.843003C9.19364 0.782067 9.09767 0.679423 9.01803 0.685002C9.00099 0.684395 8.98163 0.682318 8.95728 0.682536C8.91868 0.682178 8.87671 0.681187 8.8319 0.680121C8.72124 0.67749 8.59321 0.6744 8.45603 0.679459C8.10937 0.692243 7.92517 0.698027 7.77708 0.70264C7.73486 0.703955 7.69555 0.70513 7.65626 0.7064C7.53212 0.710412 7.37814 0.712399 7.22225 0.714391C7.03569 0.716775 6.84635 0.719197 6.70218 0.725196C6.32939 0.705461 5.95663 0.6833 5.58394 0.66117C5.55515 0.659449 5.52655 0.657047 5.49828 0.653986C5.45176 0.639317 5.38972 0.626768 5.31198 0.634452C5.22123 0.64081 5.12615 0.678617 5.04769 0.653633C4.97261 0.631723 4.90373 0.517545 4.98485 0.332114C5.0505 0.179426 5.2559 0.0142483 5.51469 0.00994887C5.54308 0.00833019 5.57176 0.00738563 5.60061 0.0071339C5.98693 0.00390278 6.37332 0.00066607 6.75961 9.17438e-05C7.23016 -0.000607394 7.70065 0.00263783 8.17088 0.0146189C8.43851 0.021438 8.70611 0.0295567 8.97369 0.0387605C9.07579 0.0418023 9.18013 0.0632995 9.27755 0.104266C9.33116 0.126737 9.38261 0.154995 9.43024 0.187997C9.8555 0.434789 9.92034 1.04332 9.72905 1.33477C9.72343 1.34505 9.71763 1.35511 9.71168 1.36497C9.63541 1.49465 9.56767 1.58377 9.50931 1.66055C9.4674 1.71569 9.43032 1.76448 9.3984 1.81734C9.38126 1.84572 9.35834 1.88482 9.3307 1.93195C9.21785 2.12443 9.02619 2.45131 8.82649 2.73403C8.73788 2.85947 8.62891 3.00144 8.52488 3.13698C8.37613 3.33078 8.23743 3.5115 8.18257 3.6122C8.08625 3.78904 7.95569 3.97931 7.84031 4.14742C7.73026 4.30777 7.63402 4.44802 7.5945 4.53728C7.54728 4.64393 7.48949 4.72394 7.40359 4.84293C7.34401 4.92545 7.27094 5.02676 7.17842 5.16868C7.0716 5.33253 6.98863 5.44383 6.9181 5.53843C6.81883 5.67157 6.74415 5.77175 6.66204 5.93927C6.57084 6.12537 6.46819 6.31529 6.37271 6.45574C6.32922 6.5197 6.28304 6.59511 6.23501 6.67357C6.17141 6.77744 6.10451 6.88669 6.03617 6.9819C5.97985 7.06037 5.92412 7.1195 5.87481 7.17182C5.85942 7.18814 5.84468 7.20382 5.83072 7.21919C5.79026 7.28443 5.74988 7.34972 5.70964 7.4151C5.70525 7.42701 5.70075 7.4396 5.69602 7.45273C5.67231 7.51861 5.64313 7.59958 5.59564 7.69274C5.52047 7.84019 5.4363 7.95821 5.34747 8.08268C5.2783 8.17959 5.20632 8.28041 5.13364 8.40213C5.08408 8.48513 5.03137 8.58196 4.97912 8.67794C4.9284 8.77109 4.87809 8.86348 4.83147 8.94176C4.7933 9.00493 4.74781 9.05681 4.70326 9.09544C4.65492 9.13728 4.60398 9.16101 4.55365 9.17869C4.55342 9.17876 4.55318 9.17882 4.55295 9.17888C4.54953 9.18008 4.54609 9.18127 4.54265 9.18242C4.37161 9.28318 4.15675 9.31132 3.96266 9.25546C3.83088 9.21964 3.69905 9.18398 3.5672 9.14843C3.544 9.14405 3.52058 9.13956 3.49738 9.1351C3.384 9.1133 3.27384 9.09211 3.19934 9.08704C3.12623 9.08205 2.96132 9.04249 2.78004 8.99777C2.7483 8.98918 2.71675 8.97869 2.68552 8.96619C2.46522 8.88132 2.28854 8.68796 2.20918 8.50241C2.16075 8.3939 2.15135 8.27652 2.16486 8.16303C2.17476 8.08006 2.19654 7.99851 2.22593 7.91645C2.23108 7.90274 2.23585 7.88867 2.24012 7.87412C2.24987 7.84096 2.25763 7.80421 2.2659 7.76499C2.27318 7.73046 2.28087 7.69395 2.29069 7.65632C2.29982 7.62135 2.3306 7.54698 2.37003 7.45159C2.3944 7.39264 2.42205 7.32565 2.45 7.25499C2.50745 7.06271 2.56516 6.87049 2.62327 6.67843C2.62793 6.63587 2.62827 6.5977 2.62304 6.56566C2.6193 6.54266 2.61257 6.5219 2.60572 6.5006C2.5964 6.47161 2.58677 6.44162 2.58377 6.40372C2.58143 6.3741 2.58727 6.34203 2.5987 6.32302C2.60403 6.31416 2.6105 6.30816 2.61637 6.3027C2.62308 6.29645 2.62906 6.29087 2.63174 6.28251C2.63366 6.27647 2.6328 6.26924 2.6318 6.26036C2.6302 6.24619 2.62818 6.22777 2.63603 6.2034C2.66525 6.1127 2.70193 6.01076 2.73787 5.9109C2.77785 5.79986 2.8169 5.69132 2.84382 5.60345C2.87397 5.50501 2.93139 5.36956 2.98886 5.23386C3.02895 5.1392 3.06905 5.04438 3.10006 4.9619C3.13045 4.88108 3.15287 4.79384 3.17453 4.70934C3.20054 4.60791 3.22552 4.51035 3.26217 4.43258C3.26959 4.41686 3.28825 4.40049 3.31162 4.37994C3.32818 4.36537 3.34716 4.34858 3.36616 4.3286C3.40059 4.22553 3.43552 4.12261 3.47086 4.01984C3.47046 4.01567 3.47008 4.01138 3.46966 4.00707C3.46964 4.007 3.46962 4.00693 3.4696 4.00686C3.46013 3.90959 3.4472 3.77649 3.53238 3.62403C3.55404 3.58528 3.5772 3.56407 3.59806 3.54495C3.61854 3.52618 3.63687 3.5094 3.64934 3.48006C3.66351 3.44673 3.66917 3.40368 3.67535 3.35675C3.68404 3.29087 3.69374 3.21727 3.72939 3.15208C3.73182 3.14763 3.73446 3.14285 3.73716 3.13786C3.76283 3.09055 3.80082 3.0205 3.85197 2.95527C3.93243 2.73789 4.01411 2.5209 4.09653 2.30418C4.23393 1.94294 4.37345 1.58232 4.51293 1.22181C4.58088 1.04645 4.67394 0.887584 4.77359 0.780823C4.87333 0.674081 4.97107 0.628032 5.04769 0.653633C5.12431 0.679242 5.17469 0.774777 5.19023 0.920026C5.2057 1.06525 5.18456 1.24814 5.13346 1.42914C5.04996 1.72422 4.96646 2.0194 4.8819 2.31417C4.87841 2.32993 4.87484 2.34574 4.87119 2.36145C4.84408 2.47831 4.83053 2.59062 4.81699 2.70301C4.81387 2.72882 4.81076 2.75469 4.80748 2.78057Z" fill="black" style="fill:black;fill-opacity:1;"/>
</svg>
