<svg width="28" height="28" viewBox="0 0 28 28" fill="none" xmlns="http://www.w3.org/2000/svg">
<path d="M21 4C23.7614 4 26 6.23858 26 9V19L25.9932 19.2568C25.8595 21.8989 23.6753 24 21 24H7L6.74316 23.9932C4.10111 23.8595 2 21.6753 2 19V9C2 6.32472 4.10111 4.14053 6.74316 4.00684L7 4H21ZM19.207 14.8086C18.3436 13.9456 16.9356 13.9742 16.1074 14.8711L12.2832 19.0137C11.9664 19.3569 11.4463 19.419 11.0576 19.1602L10.0781 18.5068C9.2575 17.9598 8.16945 18.041 7.43945 18.7041L4.61133 21.2744C5.21236 21.9055 6.05965 22.2998 7 22.2998H21C22.546 22.2998 23.843 21.2367 24.2012 19.8018L19.207 14.8086ZM7 5.7002C5.17746 5.7002 3.7002 7.17746 3.7002 9V19C3.7002 19.2514 3.72897 19.4961 3.78223 19.7314L6.2959 17.4463C7.6031 16.2584 9.55178 16.112 11.0215 17.0918L11.4688 17.3896L14.8584 13.7178C16.3415 12.1115 18.8631 12.0607 20.4092 13.6064L24.2998 17.4971V9C24.2998 7.17746 22.8225 5.7002 21 5.7002H7ZM9.7998 7.5C11.4567 7.5 12.7998 8.84315 12.7998 10.5C12.7998 12.1569 11.4567 13.5 9.7998 13.5C8.14306 13.4999 6.7998 12.1568 6.7998 10.5C6.7998 8.84323 8.14306 7.50013 9.7998 7.5ZM9.7998 8.90039C8.91626 8.90052 8.2002 9.61643 8.2002 10.5C8.2002 11.3836 8.91626 12.0995 9.7998 12.0996C10.6835 12.0996 11.3994 11.3837 11.3994 10.5C11.3994 9.61634 10.6835 8.90039 9.7998 8.90039Z" fill="var(------icon_primary, #1A1A1A)" style="fill:#1A1A1A;fill:color(display-p3 0.1020 0.1020 0.1020);fill-opacity:1;"/>
</svg>
