<svg width="28" height="28" viewBox="0 0 28 28" fill="none" xmlns="http://www.w3.org/2000/svg">
<path d="M17.3643 3.15002C18.531 3.15005 19.6141 3.75715 20.2227 4.75256L21.0771 6.15002H22.0996C24.2258 6.15002 25.949 7.87352 25.9492 9.99963V19.9996C25.9492 22.1259 24.2259 23.8492 22.0996 23.8492H6.09961C3.97349 23.849 2.25 22.1258 2.25 19.9996V9.99963C2.25021 7.87365 3.97362 6.15024 6.09961 6.15002H7.12207L7.97656 4.75256C8.58506 3.75706 9.66822 3.15018 10.835 3.15002H17.3643ZM10.835 4.84924C10.2604 4.8494 9.72642 5.14901 9.42676 5.63928L8.3252 7.44299C8.17079 7.69566 7.89572 7.84924 7.59961 7.84924H6.09961C4.91251 7.84945 3.94943 8.81253 3.94922 9.99963V19.9996C3.94922 21.1869 4.91238 22.1498 6.09961 22.15H22.0996C23.287 22.15 24.25 21.187 24.25 19.9996V9.99963C24.2498 8.8124 23.2869 7.84924 22.0996 7.84924H20.5996C20.3036 7.84911 20.0284 7.69555 19.874 7.44299L18.7725 5.63928C18.4727 5.1491 17.9389 4.84927 17.3643 4.84924H10.835ZM14.0996 8.99963C17.137 8.99963 19.5994 11.4622 19.5996 14.4996C19.5996 17.5372 17.1372 19.9996 14.0996 19.9996C11.0622 19.9994 8.59961 17.5371 8.59961 14.4996C8.59982 11.4624 11.0624 8.99985 14.0996 8.99963ZM14.0996 10.6998C12.0012 10.7 10.3 12.4013 10.2998 14.4996C10.2998 16.5982 12.0011 18.2992 14.0996 18.2994C16.1983 18.2994 17.8994 16.5983 17.8994 14.4996C17.8992 12.4011 16.1982 10.6998 14.0996 10.6998Z" fill="var(------icon_primary, #1A1A1A)" style="fill:#1A1A1A;fill:color(display-p3 0.1020 0.1020 0.1020);fill-opacity:1;"/>
</svg>
