<svg width="28" height="28" viewBox="0 0 28 28" fill="none" xmlns="http://www.w3.org/2000/svg">
<rect x="5.35" y="3.85" width="17.3" height="20.3" rx="3.15" stroke="var(------icon_aio_toolbar_normal, #1A1A1A)" style="stroke:#1A1A1A;stroke:color(display-p3 0.1020 0.1020 0.1020);stroke-opacity:1;" stroke-width="1.7"/>
<circle cx="14" cy="12.75" r="2.4" stroke="var(------icon_aio_toolbar_normal, #1A1A1A)" style="stroke:#1A1A1A;stroke:color(display-p3 0.1020 0.1020 0.1020);stroke-opacity:1;" stroke-width="1.7"/>
<path d="M11.2452 13.0078C8.18306 12.462 6.42613 11.0339 5.44288 9.68775C5.09032 9.20507 4.62636 8.39395 4.81713 8.15112C5.0079 7.90828 5.78443 6.97155 5.79132 7.00066C5.85861 7.28511 6.07648 8.0121 6.65417 8.80301C7.41286 9.84172 8.8324 11.0541 11.5084 11.5311L11.2452 13.0078Z" fill="var(------icon_aio_toolbar_normal, #1A1A1A)" style="fill:#1A1A1A;fill:color(display-p3 0.1020 0.1020 0.1020);fill-opacity:1;"/>
<path d="M16.6827 13.0078C19.7448 12.462 21.5018 11.0339 22.485 9.68775C22.8376 9.20507 23.3015 8.39395 23.1108 8.15112C22.92 7.90828 22.1435 6.97155 22.1366 7.00066C22.0693 7.28511 21.8514 8.0121 21.2737 8.80301C20.515 9.84172 19.0955 11.0541 16.4195 11.5311L16.6827 13.0078Z" fill="var(------icon_aio_toolbar_normal, #1A1A1A)" style="fill:#1A1A1A;fill:color(display-p3 0.1020 0.1020 0.1020);fill-opacity:1;"/>
</svg>
