<svg width="28" height="28" viewBox="0 0 28 28" fill="none" xmlns="http://www.w3.org/2000/svg">
<path d="M14 2.5C20.3513 2.5 25.5 7.64873 25.5 14C25.5 20.3513 20.3513 25.5 14 25.5C7.64873 25.5 2.5 20.3513 2.5 14C2.5 7.64873 7.64873 2.5 14 2.5ZM14 4.2002C8.58761 4.2002 4.2002 8.58761 4.2002 14C4.2002 19.4124 8.58761 23.7998 14 23.7998C19.4124 23.7998 23.7998 19.4124 23.7998 14C23.7998 8.58761 19.4124 4.2002 14 4.2002ZM17.7939 16.0752C18.0286 15.6688 18.5486 15.5292 18.9551 15.7637C19.3614 15.9984 19.501 16.5184 19.2666 16.9248C18.7532 17.8141 18.0142 18.553 17.125 19.0664C16.2358 19.5797 15.2269 19.8496 14.2002 19.8496C13.1735 19.8496 12.1646 19.5797 11.2754 19.0664C10.3861 18.553 9.64723 17.8141 9.13379 16.9248C8.89924 16.5183 9.03884 15.9984 9.44531 15.7637C9.85179 15.5293 10.3718 15.6688 10.6064 16.0752C10.9706 16.7058 11.4944 17.2296 12.125 17.5938C12.7558 17.9579 13.4718 18.1504 14.2002 18.1504C14.9286 18.1503 15.6446 17.9579 16.2754 17.5938C16.906 17.2296 17.4298 16.7058 17.7939 16.0752ZM10.5 9C11.0523 9 11.5 9.44772 11.5 10V12.5C11.5 13.0523 11.0523 13.5 10.5 13.5C9.94772 13.5 9.5 13.0523 9.5 12.5V10C9.5 9.44772 9.94772 9 10.5 9ZM17.5 9C18.0523 9 18.5 9.44772 18.5 10V12.5C18.5 13.0523 18.0523 13.5 17.5 13.5C16.9477 13.5 16.5 13.0523 16.5 12.5V10C16.5 9.44772 16.9477 9 17.5 9Z" fill="var(------icon_aio_toolbar_normal, #1A1A1A)" style="fill:#1A1A1A;fill:color(display-p3 0.1020 0.1020 0.1020);fill-opacity:1;"/>
</svg>
