<svg width="104" height="44" viewBox="0 0 104 44" fill="none" xmlns="http://www.w3.org/2000/svg">
<mask id="path-1-outside-1_2012_83010" maskUnits="userSpaceOnUse" x="0" y="0" width="104" height="44" fill="black">
<rect fill="white" width="104" height="44"/>
<path fill-rule="evenodd" clip-rule="evenodd" d="M78 1C83.1235 1 87.7963 2.92747 91.335 6.0957C96.2432 6.68508 101.547 4.65573 102.633 2C102.022 8.49 99.3003 11.2225 96.3672 13.0752C97.4171 15.5053 98 18.1845 98 21V23C98 34.0457 89.0457 43 78 43H21C9.95431 43 1 34.0457 1 23V21C1 9.95431 9.95431 1 21 1H78Z"/>
</mask>
<g filter="url(#filter0_i_2012_83010)">
<path fill-rule="evenodd" clip-rule="evenodd" d="M78 1C83.1235 1 87.7963 2.92747 91.335 6.0957C96.2432 6.68508 101.547 4.65573 102.633 2C102.022 8.49 99.3003 11.2225 96.3672 13.0752C97.4171 15.5053 98 18.1845 98 21V23C98 34.0457 89.0457 43 78 43H21C9.95431 43 1 34.0457 1 23V21C1 9.95431 9.95431 1 21 1H78Z" fill="white" style="fill:white;fill-opacity:1;"/>
</g>
<path d="M78 1V0V0V1ZM91.335 6.0957L90.6679 6.84073C90.8208 6.97758 91.012 7.06411 91.2157 7.08857L91.335 6.0957ZM102.633 2L103.628 2.09364C103.675 1.60015 103.353 1.14713 102.871 1.02888C102.39 0.910622 101.895 1.16283 101.707 1.62165L102.633 2ZM96.3672 13.0752L95.8332 12.2297C95.4168 12.4927 95.2539 13.0197 95.4492 13.4718L96.3672 13.0752ZM98 21H99H98ZM21 43V44V44V43ZM1 23H0H1ZM78 1V2C82.8678 2 87.3054 3.8302 90.6679 6.84073L91.335 6.0957L92.002 5.35068C88.2872 2.02475 83.3792 2.98023e-07 78 0V1ZM91.335 6.0957L91.2157 7.08857C93.8352 7.40311 96.5475 7.02052 98.7636 6.20295C100.922 5.40645 102.854 4.10157 103.558 2.37835L102.633 2L101.707 1.62165C101.326 2.55415 100.063 3.59181 98.0713 4.32658C96.1368 5.04027 93.743 5.37767 91.4542 5.10284L91.335 6.0957ZM102.633 2L101.637 1.90636C101.344 5.02309 100.552 7.16598 99.5329 8.73106C98.5143 10.2959 97.2266 11.3496 95.8332 12.2297L96.3672 13.0752L96.9012 13.9207C98.4409 12.9481 99.9808 11.7092 101.209 9.82212C102.437 7.93527 103.311 5.4669 103.628 2.09364L102.633 2ZM96.3672 13.0752L95.4492 13.4718C96.4461 15.7793 97 18.3237 97 21H98H99C99 18.0452 98.3881 15.2313 97.2852 12.6786L96.3672 13.0752ZM98 21H97V23H98H99V21H98ZM98 23H97C97 33.4934 88.4934 42 78 42V43V44C89.598 44 99 34.598 99 23H98ZM78 43V42H21V43V44H78V43ZM21 43V42C10.5066 42 2 33.4934 2 23H1H0C5.96046e-08 34.598 9.40202 44 21 44V43ZM1 23H2V21H1H0V23H1ZM1 21H2C2 10.5066 10.5066 2 21 2V1V0C9.40202 0 0 9.40202 0 21H1ZM21 1V2H78V1V0H21V1Z" fill="black" style="fill:black;fill-opacity:1;" mask="url(#path-1-outside-1_2012_83010)"/>
<defs>
<filter id="filter0_i_2012_83010" x="0" y="0" width="103.633" height="44" filterUnits="userSpaceOnUse" color-interpolation-filters="sRGB">
<feFlood flood-opacity="0" result="BackgroundImageFix"/>
<feBlend mode="normal" in="SourceGraphic" in2="BackgroundImageFix" result="shape"/>
<feColorMatrix in="SourceAlpha" type="matrix" values="0 0 0 0 0 0 0 0 0 0 0 0 0 0 0 0 0 0 127 0" result="hardAlpha"/>
<feOffset dx="2" dy="-4"/>
<feComposite in2="hardAlpha" operator="arithmetic" k2="-1" k3="1"/>
<feColorMatrix type="matrix" values="0 0 0 0 0.956863 0 0 0 0 0.956863 0 0 0 0 0.956863 0 0 0 1 0"/>
<feBlend mode="normal" in2="shape" result="effect1_innerShadow_2012_83010"/>
</filter>
</defs>
</svg>
